SplineFontDB: 3.2
FontName: PixelUltima
FullName: Pixel Ultima Regular
FamilyName: Pixel Ultima
Weight: Book
Copyright: Copyright (c) 2021, Douglas Lea~o, (DeeJayLSP, a.k.a. Didiei) 
Version: 2021
ItalicAngle: 0
UnderlinePosition: -2
UnderlineWidth: 1
Ascent: 52
Descent: 12
InvalidEm: 0
sfntRevision: 0x00010000
LayerCount: 2
Layer: 0 1 "Back" 1
Layer: 1 1 "Fore" 0
XUID: [1021 136 -898950254 11768413]
StyleMap: 0x0040
FSType: 4
OS2Version: 2
OS2_WeightWidthSlopeOnly: 0
OS2_UseTypoMetrics: 0
CreationTime: 1635657671
ModificationTime: 1657061960
PfmFamily: 81
TTFWeight: 400
TTFWidth: 5
LineGap: 0
VLineGap: 0
Panose: 0 0 0 0 0 0 0 0 0 0
OS2TypoAscent: 52
OS2TypoAOffset: 0
OS2TypoDescent: -12
OS2TypoDOffset: 0
OS2TypoLinegap: 100
OS2WinAscent: 52
OS2WinAOffset: 0
OS2WinDescent: 12
OS2WinDOffset: 0
HheadAscent: 52
HheadAOffset: 0
HheadDescent: -12
HheadDOffset: 0
OS2SubXSize: 40
OS2SubYSize: 40
OS2SubXOff: 40
OS2SubYOff: 40
OS2SupXSize: 40
OS2SupYSize: 40
OS2SupXOff: 40
OS2SupYOff: 40
OS2StrikeYSize: 40
OS2StrikeYPos: 200
OS2CapHeight: 52
OS2XHeight: 40
OS2Vendor: 'Bird'
OS2CodePages: 203f00ff.dffd0000
OS2UnicodeRanges: 00000001.00000000.00000000.00000000
Lookup: 258 0 0 "'kern' Horizontal Kerning lookup 0" { "'kern' Horizontal Kerning lookup 0 subtable"  } [' RQD' ('DFLT' <'dflt' > ) 'kern' ('DFLT' <'dflt' > ) ]
DEI: 91125
ShortTable: maxp 16
  1
  0
  303
  154
  18
  0
  0
  1
  0
  0
  0
  0
  0
  0
  0
  0
EndShort

StartChar: .notdef
Encoding: 65536 -1 0
Width: 36
Flags: W
LayerCount: 2
Fore
SplineSet
4 4 m 1,0,1
 9 4 9 4 24 4 c 1,2,3
 24 15 24 15 24 48 c 1,4,5
 19 48 19 48 4 48 c 1,6,7
 4 37 4 37 4 4 c 1,0,1
0 52 m 1,8,9
 7 52 7 52 28 52 c 1,10,11
 28 39 28 39 28 0 c 1,12,13
 21 0 21 0 0 0 c 1,14,15
 0 13 0 13 0 52 c 1,8,9
EndSplineSet
EndChar

StartChar: exclam
Encoding: 33 33 4
Width: 12
GlyphClass: 2
Flags: W
LayerCount: 2
Fore
SplineSet
0 0 m 1,0,1
 0 2 0 2 0 8 c 1,2,3
 1 8 1 8 4 8 c 1,4,5
 4 6 4 6 4 0 c 1,6,7
 3 0 3 0 0 0 c 1,0,1
0 16 m 1,8,9
 0 25 0 25 0 52 c 1,10,11
 1 52 1 52 4 52 c 1,12,13
 4 43 4 43 4 16 c 1,14,15
 3 16 3 16 0 16 c 1,8,9
EndSplineSet
EndChar

StartChar: quotedbl
Encoding: 34 34 5
Width: 24
GlyphClass: 2
Flags: W
LayerCount: 2
Fore
SplineSet
0 32 m 1,0,1
 0 37 0 37 0 52 c 1,2,3
 1 52 1 52 4 52 c 1,4,5
 4 47 4 47 4 32 c 1,6,7
 3 32 3 32 0 32 c 1,0,1
12 32 m 1,8,9
 12 37 12 37 12 52 c 1,10,11
 13 52 13 52 16 52 c 1,12,13
 16 47 16 47 16 32 c 1,14,15
 15 32 15 32 12 32 c 1,8,9
EndSplineSet
EndChar

StartChar: numbersign
Encoding: 35 35 6
Width: 44
GlyphClass: 2
Flags: W
LayerCount: 2
Fore
SplineSet
24 16 m 1,0,1
 24 21 24 21 24 36 c 1,2,3
 21 36 21 36 12 36 c 1,4,5
 12 31 12 31 12 16 c 1,6,7
 15 16 15 16 24 16 c 1,0,1
8 0 m 1,8,9
 8 3 8 3 8 12 c 1,10,11
 6 12 6 12 0 12 c 1,12,13
 0 13 0 13 0 16 c 1,14,15
 2 16 2 16 8 16 c 1,16,17
 8 21 8 21 8 36 c 1,18,19
 6 36 6 36 0 36 c 1,20,21
 0 37 0 37 0 40 c 1,22,23
 2 40 2 40 8 40 c 1,24,25
 8 43 8 43 8 52 c 1,26,27
 9 52 9 52 12 52 c 1,28,29
 12 49 12 49 12 40 c 1,30,31
 15 40 15 40 24 40 c 1,32,33
 24 43 24 43 24 52 c 1,34,35
 25 52 25 52 28 52 c 1,36,37
 28 49 28 49 28 40 c 1,38,39
 30 40 30 40 36 40 c 1,40,41
 36 39 36 39 36 36 c 1,42,43
 34 36 34 36 28 36 c 1,44,45
 28 31 28 31 28 16 c 1,46,47
 30 16 30 16 36 16 c 1,48,49
 36 15 36 15 36 12 c 1,50,51
 34 12 34 12 28 12 c 1,52,53
 28 9 28 9 28 0 c 1,54,55
 27 0 27 0 24 0 c 1,56,57
 24 3 24 3 24 12 c 1,58,59
 21 12 21 12 12 12 c 1,60,61
 12 9 12 9 12 0 c 1,62,63
 11 0 11 0 8 0 c 1,8,9
EndSplineSet
EndChar

StartChar: dollar
Encoding: 36 36 7
Width: 36
GlyphClass: 2
Flags: W
LayerCount: 2
Fore
SplineSet
0 12 m 1,0,1
 0 14 0 14 0 20 c 1,2,3
 1 20 1 20 4 20 c 1,4,5
 4 18 4 18 4 12 c 1,6,7
 3 12 3 12 0 12 c 1,0,1
24 12 m 1,8,9
 24 15 24 15 24 24 c 1,10,11
 25 24 25 24 28 24 c 1,12,13
 28 21 28 21 28 12 c 1,14,15
 27 12 27 12 24 12 c 1,8,9
0 28 m 1,16,17
 0 31 0 31 0 40 c 1,18,19
 1 40 1 40 4 40 c 1,20,21
 4 37 4 37 4 28 c 1,22,23
 3 28 3 28 0 28 c 1,16,17
24 36 m 1,24,25
 24 37 24 37 24 40 c 1,26,27
 25 40 25 40 28 40 c 1,28,29
 28 39 28 39 28 36 c 1,30,31
 27 36 27 36 24 36 c 1,24,25
12 0 m 1,32,33
 12 2 12 2 12 8 c 1,34,35
 10 8 10 8 4 8 c 1,36,37
 4 9 4 9 4 12 c 1,38,39
 6 12 6 12 12 12 c 1,40,41
 12 15 12 15 12 24 c 1,42,43
 10 24 10 24 4 24 c 1,44,45
 4 25 4 25 4 28 c 1,46,47
 6 28 6 28 12 28 c 1,48,49
 12 31 12 31 12 40 c 1,50,51
 10 40 10 40 4 40 c 1,52,53
 4 41 4 41 4 44 c 1,54,55
 6 44 6 44 12 44 c 1,56,57
 12 46 12 46 12 52 c 1,58,59
 13 52 13 52 16 52 c 1,60,61
 16 50 16 50 16 44 c 1,62,63
 18 44 18 44 24 44 c 1,64,65
 24 43 24 43 24 40 c 1,66,67
 22 40 22 40 16 40 c 1,68,69
 16 37 16 37 16 28 c 1,70,71
 18 28 18 28 24 28 c 1,72,73
 24 27 24 27 24 24 c 1,74,75
 22 24 22 24 16 24 c 1,76,77
 16 21 16 21 16 12 c 1,78,79
 18 12 18 12 24 12 c 1,80,81
 24 11 24 11 24 8 c 1,82,83
 22 8 22 8 16 8 c 1,84,85
 16 6 16 6 16 0 c 1,86,87
 15 0 15 0 12 0 c 1,32,33
EndSplineSet
EndChar

StartChar: percent
Encoding: 37 37 8
Width: 48
GlyphClass: 2
Flags: W
LayerCount: 2
Fore
SplineSet
4 0 m 1,0,1
 4 1 4 1 4 4 c 1,2,3
 5 4 5 4 8 4 c 1,4,5
 8 3 8 3 8 0 c 1,6,7
 7 0 7 0 4 0 c 1,0,1
28 0 m 1,8,9
 28 1 28 1 28 4 c 1,10,11
 30 4 30 4 36 4 c 1,12,13
 36 3 36 3 36 0 c 1,14,15
 34 0 34 0 28 0 c 1,8,9
8 4 m 1,16,17
 8 6 8 6 8 12 c 1,18,19
 9 12 9 12 12 12 c 1,20,21
 12 10 12 10 12 4 c 1,22,23
 11 4 11 4 8 4 c 1,16,17
24 4 m 1,24,25
 24 7 24 7 24 16 c 1,26,27
 25 16 25 16 28 16 c 1,28,29
 28 13 28 13 28 4 c 1,30,31
 27 4 27 4 24 4 c 1,24,25
36 4 m 1,32,33
 36 7 36 7 36 16 c 1,34,35
 37 16 37 16 40 16 c 1,36,37
 40 13 40 13 40 4 c 1,38,39
 39 4 39 4 36 4 c 1,32,33
12 12 m 1,40,41
 12 14 12 14 12 20 c 1,42,43
 13 20 13 20 16 20 c 1,44,45
 16 18 16 18 16 12 c 1,46,47
 15 12 15 12 12 12 c 1,40,41
28 16 m 1,48,49
 28 17 28 17 28 20 c 1,50,51
 30 20 30 20 36 20 c 1,52,53
 36 19 36 19 36 16 c 1,54,55
 34 16 34 16 28 16 c 1,48,49
16 20 m 1,56,57
 16 22 16 22 16 28 c 1,58,59
 17 28 17 28 20 28 c 1,60,61
 20 26 20 26 20 20 c 1,62,63
 19 20 19 20 16 20 c 1,56,57
4 32 m 1,64,65
 4 33 4 33 4 36 c 1,66,67
 6 36 6 36 12 36 c 1,68,69
 12 35 12 35 12 32 c 1,70,71
 10 32 10 32 4 32 c 1,64,65
20 28 m 1,72,73
 20 30 20 30 20 36 c 1,74,75
 21 36 21 36 24 36 c 1,76,77
 24 34 24 34 24 28 c 1,78,79
 23 28 23 28 20 28 c 1,72,73
24 36 m 1,80,81
 24 38 24 38 24 44 c 1,82,83
 25 44 25 44 28 44 c 1,84,85
 28 42 28 42 28 36 c 1,86,87
 27 36 27 36 24 36 c 1,80,81
0 36 m 1,88,89
 0 39 0 39 0 48 c 1,90,91
 1 48 1 48 4 48 c 1,92,93
 4 45 4 45 4 36 c 1,94,95
 3 36 3 36 0 36 c 1,88,89
12 36 m 1,96,97
 12 39 12 39 12 48 c 1,98,99
 13 48 13 48 16 48 c 1,100,101
 16 45 16 45 16 36 c 1,102,103
 15 36 15 36 12 36 c 1,96,97
4 48 m 1,104,105
 4 49 4 49 4 52 c 1,106,107
 6 52 6 52 12 52 c 1,108,109
 12 51 12 51 12 48 c 1,110,111
 10 48 10 48 4 48 c 1,104,105
28 44 m 1,112,113
 28 46 28 46 28 52 c 1,114,115
 29 52 29 52 32 52 c 1,116,117
 32 50 32 50 32 44 c 1,118,119
 31 44 31 44 28 44 c 1,112,113
EndSplineSet
EndChar

StartChar: ampersand
Encoding: 38 38 9
Width: 36
GlyphClass: 2
Flags: W
LayerCount: 2
Fore
SplineSet
8 0 m 1,0,1
 8 1 8 1 8 4 c 1,2,3
 10 4 10 4 16 4 c 1,4,5
 16 3 16 3 16 0 c 1,6,7
 14 0 14 0 8 0 c 1,0,1
4 4 m 1,8,9
 4 5 4 5 4 8 c 1,10,11
 5 8 5 8 8 8 c 1,12,13
 8 7 8 7 8 4 c 1,14,15
 7 4 7 4 4 4 c 1,8,9
16 4 m 1,16,17
 16 5 16 5 16 8 c 1,18,19
 17 8 17 8 20 8 c 1,20,21
 20 7 20 7 20 4 c 1,22,23
 19 4 19 4 16 4 c 1,16,17
24 0 m 1,24,25
 24 2 24 2 24 8 c 1,26,27
 25 8 25 8 28 8 c 1,28,29
 28 6 28 6 28 0 c 1,30,31
 27 0 27 0 24 0 c 1,24,25
20 8 m 1,32,33
 20 10 20 10 20 16 c 1,34,35
 21 16 21 16 24 16 c 1,36,37
 24 14 24 14 24 8 c 1,38,39
 23 8 23 8 20 8 c 1,32,33
0 8 m 1,40,41
 0 12 0 12 0 24 c 1,42,43
 1 24 1 24 4 24 c 1,44,45
 4 20 4 20 4 8 c 1,46,47
 3 8 3 8 0 8 c 1,40,41
16 16 m 1,48,49
 16 18 16 18 16 24 c 1,50,51
 17 24 17 24 20 24 c 1,52,53
 20 22 20 22 20 16 c 1,54,55
 19 16 19 16 16 16 c 1,48,49
24 16 m 1,56,57
 24 18 24 18 24 24 c 1,58,59
 25 24 25 24 28 24 c 1,60,61
 28 22 28 22 28 16 c 1,62,63
 27 16 27 16 24 16 c 1,56,57
4 24 m 1,64,65
 4 25 4 25 4 28 c 1,66,67
 5 28 5 28 8 28 c 1,68,69
 8 27 8 27 8 24 c 1,70,71
 7 24 7 24 4 24 c 1,64,65
12 24 m 1,72,73
 12 25 12 25 12 28 c 1,74,75
 11 28 11 28 8 28 c 1,76,77
 8 30 8 30 8 36 c 1,78,79
 9 36 9 36 12 36 c 1,80,81
 12 35 12 35 12 32 c 1,82,83
 13 32 13 32 16 32 c 1,84,85
 16 30 16 30 16 24 c 1,86,87
 15 24 15 24 12 24 c 1,72,73
16 32 m 1,88,89
 16 34 16 34 16 40 c 1,90,91
 17 40 17 40 20 40 c 1,92,93
 20 38 20 38 20 32 c 1,94,95
 19 32 19 32 16 32 c 1,88,89
4 36 m 1,96,97
 4 39 4 39 4 48 c 1,98,99
 5 48 5 48 8 48 c 1,100,101
 8 45 8 45 8 36 c 1,102,103
 7 36 7 36 4 36 c 1,96,97
20 40 m 1,104,105
 20 42 20 42 20 48 c 1,106,107
 21 48 21 48 24 48 c 1,108,109
 24 46 24 46 24 40 c 1,110,111
 23 40 23 40 20 40 c 1,104,105
8 48 m 1,112,113
 8 49 8 49 8 52 c 1,114,115
 11 52 11 52 20 52 c 1,116,117
 20 51 20 51 20 48 c 1,118,119
 17 48 17 48 8 48 c 1,112,113
EndSplineSet
EndChar

StartChar: quotesingle
Encoding: 39 39 10
Width: 12
GlyphClass: 2
Flags: W
LayerCount: 2
Fore
SplineSet
0 32 m 1,0,1
 0 37 0 37 0 52 c 1,2,3
 1 52 1 52 4 52 c 1,4,5
 4 47 4 47 4 32 c 1,6,7
 3 32 3 32 0 32 c 1,0,1
EndSplineSet
EndChar

StartChar: parenleft
Encoding: 40 40 11
Width: 24
GlyphClass: 2
Flags: W
LayerCount: 2
Fore
SplineSet
12 0 m 1,0,1
 12 1 12 1 12 4 c 1,2,3
 13 4 13 4 16 4 c 1,4,5
 16 3 16 3 16 0 c 1,6,7
 15 0 15 0 12 0 c 1,0,1
8 4 m 1,8,9
 8 5 8 5 8 8 c 1,10,11
 9 8 9 8 12 8 c 1,12,13
 12 7 12 7 12 4 c 1,14,15
 11 4 11 4 8 4 c 1,8,9
4 8 m 1,16,17
 4 10 4 10 4 16 c 1,18,19
 5 16 5 16 8 16 c 1,20,21
 8 14 8 14 8 8 c 1,22,23
 7 8 7 8 4 8 c 1,16,17
0 16 m 1,24,25
 0 21 0 21 0 36 c 1,26,27
 1 36 1 36 4 36 c 1,28,29
 4 31 4 31 4 16 c 1,30,31
 3 16 3 16 0 16 c 1,24,25
4 36 m 1,32,33
 4 38 4 38 4 44 c 1,34,35
 5 44 5 44 8 44 c 1,36,37
 8 42 8 42 8 36 c 1,38,39
 7 36 7 36 4 36 c 1,32,33
8 44 m 1,40,41
 8 45 8 45 8 48 c 1,42,43
 9 48 9 48 12 48 c 1,44,45
 12 47 12 47 12 44 c 1,46,47
 11 44 11 44 8 44 c 1,40,41
12 48 m 1,48,49
 12 49 12 49 12 52 c 1,50,51
 13 52 13 52 16 52 c 1,52,53
 16 51 16 51 16 48 c 1,54,55
 15 48 15 48 12 48 c 1,48,49
EndSplineSet
EndChar

StartChar: parenright
Encoding: 41 41 12
Width: 24
GlyphClass: 2
Flags: W
LayerCount: 2
Fore
SplineSet
0 0 m 1,0,1
 0 1 0 1 0 4 c 1,2,3
 1 4 1 4 4 4 c 1,4,5
 4 3 4 3 4 0 c 1,6,7
 3 0 3 0 0 0 c 1,0,1
4 4 m 1,8,9
 4 5 4 5 4 8 c 1,10,11
 5 8 5 8 8 8 c 1,12,13
 8 7 8 7 8 4 c 1,14,15
 7 4 7 4 4 4 c 1,8,9
8 8 m 1,16,17
 8 10 8 10 8 16 c 1,18,19
 9 16 9 16 12 16 c 1,20,21
 12 14 12 14 12 8 c 1,22,23
 11 8 11 8 8 8 c 1,16,17
12 16 m 1,24,25
 12 21 12 21 12 36 c 1,26,27
 13 36 13 36 16 36 c 1,28,29
 16 31 16 31 16 16 c 1,30,31
 15 16 15 16 12 16 c 1,24,25
8 36 m 1,32,33
 8 38 8 38 8 44 c 1,34,35
 9 44 9 44 12 44 c 1,36,37
 12 42 12 42 12 36 c 1,38,39
 11 36 11 36 8 36 c 1,32,33
4 44 m 1,40,41
 4 45 4 45 4 48 c 1,42,43
 5 48 5 48 8 48 c 1,44,45
 8 47 8 47 8 44 c 1,46,47
 7 44 7 44 4 44 c 1,40,41
0 48 m 1,48,49
 0 49 0 49 0 52 c 1,50,51
 1 52 1 52 4 52 c 1,52,53
 4 51 4 51 4 48 c 1,54,55
 3 48 3 48 0 48 c 1,48,49
EndSplineSet
EndChar

StartChar: asterisk
Encoding: 42 42 13
Width: 36
GlyphClass: 2
Flags: W
LayerCount: 2
Fore
SplineSet
0 28 m 1,0,1
 0 29 0 29 0 32 c 1,2,3
 1 32 1 32 4 32 c 1,4,5
 4 31 4 31 4 28 c 1,6,7
 3 28 3 28 0 28 c 1,0,1
24 28 m 1,8,9
 24 29 24 29 24 32 c 1,10,11
 25 32 25 32 28 32 c 1,12,13
 28 31 28 31 28 28 c 1,14,15
 27 28 27 28 24 28 c 1,8,9
4 32 m 1,16,17
 4 33 4 33 4 36 c 1,18,19
 5 36 5 36 8 36 c 1,20,21
 8 35 8 35 8 32 c 1,22,23
 7 32 7 32 4 32 c 1,16,17
20 32 m 1,24,25
 20 33 20 33 20 36 c 1,26,27
 21 36 21 36 24 36 c 1,28,29
 24 35 24 35 24 32 c 1,30,31
 23 32 23 32 20 32 c 1,24,25
4 40 m 1,32,33
 4 41 4 41 4 44 c 1,34,35
 5 44 5 44 8 44 c 1,36,37
 8 43 8 43 8 40 c 1,38,39
 7 40 7 40 4 40 c 1,32,33
20 40 m 1,40,41
 20 41 20 41 20 44 c 1,42,43
 21 44 21 44 24 44 c 1,44,45
 24 43 24 43 24 40 c 1,46,47
 23 40 23 40 20 40 c 1,40,41
0 44 m 1,48,49
 0 45 0 45 0 48 c 1,50,51
 1 48 1 48 4 48 c 1,52,53
 4 47 4 47 4 44 c 1,54,55
 3 44 3 44 0 44 c 1,48,49
24 44 m 1,56,57
 24 45 24 45 24 48 c 1,58,59
 25 48 25 48 28 48 c 1,60,61
 28 47 28 47 28 44 c 1,62,63
 27 44 27 44 24 44 c 1,56,57
12 24 m 1,64,65
 12 27 12 27 12 36 c 1,66,67
 11 36 11 36 8 36 c 1,68,69
 8 37 8 37 8 40 c 1,70,71
 9 40 9 40 12 40 c 1,72,73
 12 43 12 43 12 52 c 1,74,75
 13 52 13 52 16 52 c 1,76,77
 16 49 16 49 16 40 c 1,78,79
 17 40 17 40 20 40 c 1,80,81
 20 39 20 39 20 36 c 1,82,83
 19 36 19 36 16 36 c 1,84,85
 16 33 16 33 16 24 c 1,86,87
 15 24 15 24 12 24 c 1,64,65
EndSplineSet
EndChar

StartChar: plus
Encoding: 43 43 14
Width: 36
GlyphClass: 2
Flags: W
LayerCount: 2
Fore
SplineSet
12 12 m 1,0,1
 12 15 12 15 12 24 c 1,2,3
 9 24 9 24 0 24 c 1,4,5
 0 25 0 25 0 28 c 1,6,7
 3 28 3 28 12 28 c 1,8,9
 12 31 12 31 12 40 c 1,10,11
 13 40 13 40 16 40 c 1,12,13
 16 37 16 37 16 28 c 1,14,15
 19 28 19 28 28 28 c 1,16,17
 28 27 28 27 28 24 c 1,18,19
 25 24 25 24 16 24 c 1,20,21
 16 21 16 21 16 12 c 1,22,23
 15 12 15 12 12 12 c 1,0,1
EndSplineSet
EndChar

StartChar: comma
Encoding: 44 44 15
Width: 16
GlyphClass: 2
Flags: W
LayerCount: 2
Fore
SplineSet
0 -12 m 1,0,1
 0 -11 0 -11 0 -8 c 1,2,3
 1 -8 1 -8 4 -8 c 1,4,5
 4 -9 4 -9 4 -12 c 1,6,7
 3 -12 3 -12 0 -12 c 1,0,1
4 -8 m 1,8,9
 4 -6 4 -6 4 0 c 1,10,11
 3 0 3 0 0 0 c 1,12,13
 0 1 0 1 0 4 c 1,14,15
 2 4 2 4 8 4 c 1,16,17
 8 1 8 1 8 -8 c 1,18,19
 7 -8 7 -8 4 -8 c 1,8,9
EndSplineSet
EndChar

StartChar: hyphen
Encoding: 45 45 16
Width: 32
GlyphClass: 2
Flags: W
LayerCount: 2
Fore
SplineSet
0 24 m 1,0,1
 0 25 0 25 0 28 c 1,2,3
 6 28 6 28 24 28 c 1,4,5
 24 27 24 27 24 24 c 1,6,7
 18 24 18 24 0 24 c 1,0,1
EndSplineSet
EndChar

StartChar: period
Encoding: 46 46 17
Width: 12
GlyphClass: 2
Flags: W
LayerCount: 2
Fore
SplineSet
0 0 m 1,0,1
 0 1 0 1 0 4 c 1,2,3
 1 4 1 4 4 4 c 1,4,5
 4 3 4 3 4 0 c 1,6,7
 3 0 3 0 0 0 c 1,0,1
EndSplineSet
EndChar

StartChar: slash
Encoding: 47 47 18
Width: 36
GlyphClass: 2
Flags: W
LayerCount: 2
Fore
SplineSet
0 0 m 1,0,1
 0 1 0 1 0 4 c 1,2,3
 1 4 1 4 4 4 c 1,4,5
 4 3 4 3 4 0 c 1,6,7
 3 0 3 0 0 0 c 1,0,1
4 4 m 1,8,9
 4 6 4 6 4 12 c 1,10,11
 5 12 5 12 8 12 c 1,12,13
 8 10 8 10 8 4 c 1,14,15
 7 4 7 4 4 4 c 1,8,9
8 12 m 1,16,17
 8 14 8 14 8 20 c 1,18,19
 9 20 9 20 12 20 c 1,20,21
 12 18 12 18 12 12 c 1,22,23
 11 12 11 12 8 12 c 1,16,17
12 20 m 1,24,25
 12 22 12 22 12 28 c 1,26,27
 13 28 13 28 16 28 c 1,28,29
 16 26 16 26 16 20 c 1,30,31
 15 20 15 20 12 20 c 1,24,25
16 28 m 1,32,33
 16 30 16 30 16 36 c 1,34,35
 17 36 17 36 20 36 c 1,36,37
 20 34 20 34 20 28 c 1,38,39
 19 28 19 28 16 28 c 1,32,33
20 36 m 1,40,41
 20 38 20 38 20 44 c 1,42,43
 21 44 21 44 24 44 c 1,44,45
 24 42 24 42 24 36 c 1,46,47
 23 36 23 36 20 36 c 1,40,41
24 44 m 1,48,49
 24 46 24 46 24 52 c 1,50,51
 25 52 25 52 28 52 c 1,52,53
 28 50 28 50 28 44 c 1,54,55
 27 44 27 44 24 44 c 1,48,49
EndSplineSet
EndChar

StartChar: zero
Encoding: 48 48 19
Width: 36
GlyphClass: 2
Flags: W
LayerCount: 2
Fore
SplineSet
8 0 m 1,0,1
 8 1 8 1 8 4 c 1,2,3
 11 4 11 4 20 4 c 1,4,5
 20 3 20 3 20 0 c 1,6,7
 17 0 17 0 8 0 c 1,0,1
4 4 m 1,8,9
 4 5 4 5 4 8 c 1,10,11
 5 8 5 8 8 8 c 1,12,13
 8 7 8 7 8 4 c 1,14,15
 7 4 7 4 4 4 c 1,8,9
20 4 m 1,16,17
 20 5 20 5 20 8 c 1,18,19
 21 8 21 8 24 8 c 1,20,21
 24 7 24 7 24 4 c 1,22,23
 23 4 23 4 20 4 c 1,16,17
8 20 m 1,24,25
 8 21 8 21 8 24 c 1,26,27
 9 24 9 24 12 24 c 1,28,29
 12 23 12 23 12 20 c 1,30,31
 11 20 11 20 8 20 c 1,24,25
12 24 m 1,32,33
 12 25 12 25 12 28 c 1,34,35
 13 28 13 28 16 28 c 1,36,37
 16 27 16 27 16 24 c 1,38,39
 15 24 15 24 12 24 c 1,32,33
16 28 m 1,40,41
 16 29 16 29 16 32 c 1,42,43
 17 32 17 32 20 32 c 1,44,45
 20 31 20 31 20 28 c 1,46,47
 19 28 19 28 16 28 c 1,40,41
0 8 m 1,48,49
 0 17 0 17 0 44 c 1,50,51
 1 44 1 44 4 44 c 1,52,53
 4 38 4 38 4 20 c 1,54,55
 5 20 5 20 8 20 c 1,56,57
 8 19 8 19 8 16 c 1,58,59
 7 16 7 16 4 16 c 1,60,61
 4 14 4 14 4 8 c 1,62,63
 3 8 3 8 0 8 c 1,48,49
24 8 m 1,64,65
 24 14 24 14 24 32 c 1,66,67
 23 32 23 32 20 32 c 1,68,69
 20 33 20 33 20 36 c 1,70,71
 21 36 21 36 24 36 c 1,72,73
 24 38 24 38 24 44 c 1,74,75
 25 44 25 44 28 44 c 1,76,77
 28 35 28 35 28 8 c 1,78,79
 27 8 27 8 24 8 c 1,64,65
4 44 m 1,80,81
 4 45 4 45 4 48 c 1,82,83
 5 48 5 48 8 48 c 1,84,85
 8 47 8 47 8 44 c 1,86,87
 7 44 7 44 4 44 c 1,80,81
20 44 m 1,88,89
 20 45 20 45 20 48 c 1,90,91
 21 48 21 48 24 48 c 1,92,93
 24 47 24 47 24 44 c 1,94,95
 23 44 23 44 20 44 c 1,88,89
8 48 m 1,96,97
 8 49 8 49 8 52 c 1,98,99
 11 52 11 52 20 52 c 1,100,101
 20 51 20 51 20 48 c 1,102,103
 17 48 17 48 8 48 c 1,96,97
EndSplineSet
EndChar

StartChar: one
Encoding: 49 49 20
Width: 24
GlyphClass: 2
Flags: W
LayerCount: 2
Fore
SplineSet
0 36 m 1,0,1
 0 37 0 37 0 40 c 1,2,3
 1 40 1 40 4 40 c 1,4,5
 4 39 4 39 4 36 c 1,6,7
 3 36 3 36 0 36 c 1,0,1
4 40 m 1,8,9
 4 41 4 41 4 44 c 1,10,11
 5 44 5 44 8 44 c 1,12,13
 8 43 8 43 8 40 c 1,14,15
 7 40 7 40 4 40 c 1,8,9
12 0 m 1,16,17
 12 11 12 11 12 44 c 1,18,19
 11 44 11 44 8 44 c 1,20,21
 8 45 8 45 8 48 c 1,22,23
 9 48 9 48 12 48 c 1,24,25
 12 49 12 49 12 52 c 1,26,27
 13 52 13 52 16 52 c 1,28,29
 16 39 16 39 16 0 c 1,30,31
 15 0 15 0 12 0 c 1,16,17
EndSplineSet
EndChar

StartChar: two
Encoding: 50 50 21
Width: 36
GlyphClass: 2
Flags: W
LayerCount: 2
Fore
SplineSet
0 0 m 1,0,1
 0 3 0 3 0 12 c 1,2,3
 1 12 1 12 4 12 c 1,4,5
 4 10 4 10 4 4 c 1,6,7
 10 4 10 4 28 4 c 1,8,9
 28 3 28 3 28 0 c 1,10,11
 21 0 21 0 0 0 c 1,0,1
4 12 m 1,12,13
 4 13 4 13 4 16 c 1,14,15
 5 16 5 16 8 16 c 1,16,17
 8 15 8 15 8 12 c 1,18,19
 7 12 7 12 4 12 c 1,12,13
8 16 m 1,20,21
 8 17 8 17 8 20 c 1,22,23
 9 20 9 20 12 20 c 1,24,25
 12 19 12 19 12 16 c 1,26,27
 11 16 11 16 8 16 c 1,20,21
12 20 m 1,28,29
 12 21 12 21 12 24 c 1,30,31
 13 24 13 24 16 24 c 1,32,33
 16 23 16 23 16 20 c 1,34,35
 15 20 15 20 12 20 c 1,28,29
16 24 m 1,36,37
 16 25 16 25 16 28 c 1,38,39
 17 28 17 28 20 28 c 1,40,41
 20 27 20 27 20 24 c 1,42,43
 19 24 19 24 16 24 c 1,36,37
20 28 m 1,44,45
 20 29 20 29 20 32 c 1,46,47
 21 32 21 32 24 32 c 1,48,49
 24 31 24 31 24 28 c 1,50,51
 23 28 23 28 20 28 c 1,44,45
0 40 m 1,52,53
 0 41 0 41 0 44 c 1,54,55
 1 44 1 44 4 44 c 1,56,57
 4 43 4 43 4 40 c 1,58,59
 3 40 3 40 0 40 c 1,52,53
24 32 m 1,60,61
 24 35 24 35 24 44 c 1,62,63
 25 44 25 44 28 44 c 1,64,65
 28 41 28 41 28 32 c 1,66,67
 27 32 27 32 24 32 c 1,60,61
4 44 m 1,68,69
 4 45 4 45 4 48 c 1,70,71
 5 48 5 48 8 48 c 1,72,73
 8 47 8 47 8 44 c 1,74,75
 7 44 7 44 4 44 c 1,68,69
20 44 m 1,76,77
 20 45 20 45 20 48 c 1,78,79
 21 48 21 48 24 48 c 1,80,81
 24 47 24 47 24 44 c 1,82,83
 23 44 23 44 20 44 c 1,76,77
8 48 m 1,84,85
 8 49 8 49 8 52 c 1,86,87
 11 52 11 52 20 52 c 1,88,89
 20 51 20 51 20 48 c 1,90,91
 17 48 17 48 8 48 c 1,84,85
EndSplineSet
EndChar

StartChar: three
Encoding: 51 51 22
Width: 36
GlyphClass: 2
Flags: W
LayerCount: 2
Fore
SplineSet
8 0 m 1,0,1
 8 1 8 1 8 4 c 1,2,3
 11 4 11 4 20 4 c 1,4,5
 20 3 20 3 20 0 c 1,6,7
 17 0 17 0 8 0 c 1,0,1
4 4 m 1,8,9
 4 5 4 5 4 8 c 1,10,11
 5 8 5 8 8 8 c 1,12,13
 8 7 8 7 8 4 c 1,14,15
 7 4 7 4 4 4 c 1,8,9
20 4 m 1,16,17
 20 5 20 5 20 8 c 1,18,19
 21 8 21 8 24 8 c 1,20,21
 24 7 24 7 24 4 c 1,22,23
 23 4 23 4 20 4 c 1,16,17
0 8 m 1,24,25
 0 9 0 9 0 12 c 1,26,27
 1 12 1 12 4 12 c 1,28,29
 4 11 4 11 4 8 c 1,30,31
 3 8 3 8 0 8 c 1,24,25
24 8 m 1,32,33
 24 11 24 11 24 20 c 1,34,35
 25 20 25 20 28 20 c 1,36,37
 28 17 28 17 28 8 c 1,38,39
 27 8 27 8 24 8 c 1,32,33
20 20 m 1,40,41
 20 21 20 21 20 24 c 1,42,43
 21 24 21 24 24 24 c 1,44,45
 24 23 24 23 24 20 c 1,46,47
 23 20 23 20 20 20 c 1,40,41
8 24 m 1,48,49
 8 25 8 25 8 28 c 1,50,51
 11 28 11 28 20 28 c 1,52,53
 20 27 20 27 20 24 c 1,54,55
 17 24 17 24 8 24 c 1,48,49
20 28 m 1,56,57
 20 29 20 29 20 32 c 1,58,59
 21 32 21 32 24 32 c 1,60,61
 24 31 24 31 24 28 c 1,62,63
 23 28 23 28 20 28 c 1,56,57
0 40 m 1,64,65
 0 41 0 41 0 44 c 1,66,67
 1 44 1 44 4 44 c 1,68,69
 4 43 4 43 4 40 c 1,70,71
 3 40 3 40 0 40 c 1,64,65
24 32 m 1,72,73
 24 35 24 35 24 44 c 1,74,75
 25 44 25 44 28 44 c 1,76,77
 28 41 28 41 28 32 c 1,78,79
 27 32 27 32 24 32 c 1,72,73
4 44 m 1,80,81
 4 45 4 45 4 48 c 1,82,83
 5 48 5 48 8 48 c 1,84,85
 8 47 8 47 8 44 c 1,86,87
 7 44 7 44 4 44 c 1,80,81
20 44 m 1,88,89
 20 45 20 45 20 48 c 1,90,91
 21 48 21 48 24 48 c 1,92,93
 24 47 24 47 24 44 c 1,94,95
 23 44 23 44 20 44 c 1,88,89
8 48 m 1,96,97
 8 49 8 49 8 52 c 1,98,99
 11 52 11 52 20 52 c 1,100,101
 20 51 20 51 20 48 c 1,102,103
 17 48 17 48 8 48 c 1,96,97
EndSplineSet
EndChar

StartChar: four
Encoding: 52 52 23
Width: 36
GlyphClass: 2
Flags: W
LayerCount: 2
Fore
SplineSet
4 28 m 1,0,1
 4 29 4 29 4 32 c 1,2,3
 5 32 5 32 8 32 c 1,4,5
 8 31 8 31 8 28 c 1,6,7
 7 28 7 28 4 28 c 1,0,1
8 32 m 1,8,9
 8 33 8 33 8 36 c 1,10,11
 9 36 9 36 12 36 c 1,12,13
 12 35 12 35 12 32 c 1,14,15
 11 32 11 32 8 32 c 1,8,9
12 36 m 1,16,17
 12 37 12 37 12 40 c 1,18,19
 13 40 13 40 16 40 c 1,20,21
 16 39 16 39 16 36 c 1,22,23
 15 36 15 36 12 36 c 1,16,17
16 40 m 1,24,25
 16 41 16 41 16 44 c 1,26,27
 17 44 17 44 20 44 c 1,28,29
 20 43 20 43 20 40 c 1,30,31
 19 40 19 40 16 40 c 1,24,25
24 0 m 1,32,33
 24 4 24 4 24 16 c 1,34,35
 18 16 18 16 0 16 c 1,36,37
 0 19 0 19 0 28 c 1,38,39
 1 28 1 28 4 28 c 1,40,41
 4 26 4 26 4 20 c 1,42,43
 9 20 9 20 24 20 c 1,44,45
 24 26 24 26 24 44 c 1,46,47
 23 44 23 44 20 44 c 1,48,49
 20 45 20 45 20 48 c 1,50,51
 21 48 21 48 24 48 c 1,52,53
 24 49 24 49 24 52 c 1,54,55
 25 52 25 52 28 52 c 1,56,57
 28 39 28 39 28 0 c 1,58,59
 27 0 27 0 24 0 c 1,32,33
EndSplineSet
EndChar

StartChar: five
Encoding: 53 53 24
Width: 36
GlyphClass: 2
Flags: W
LayerCount: 2
Fore
SplineSet
8 0 m 1,0,1
 8 1 8 1 8 4 c 1,2,3
 11 4 11 4 20 4 c 1,4,5
 20 3 20 3 20 0 c 1,6,7
 17 0 17 0 8 0 c 1,0,1
4 4 m 1,8,9
 4 5 4 5 4 8 c 1,10,11
 5 8 5 8 8 8 c 1,12,13
 8 7 8 7 8 4 c 1,14,15
 7 4 7 4 4 4 c 1,8,9
20 4 m 1,16,17
 20 5 20 5 20 8 c 1,18,19
 21 8 21 8 24 8 c 1,20,21
 24 7 24 7 24 4 c 1,22,23
 23 4 23 4 20 4 c 1,16,17
0 8 m 1,24,25
 0 9 0 9 0 12 c 1,26,27
 1 12 1 12 4 12 c 1,28,29
 4 11 4 11 4 8 c 1,30,31
 3 8 3 8 0 8 c 1,24,25
24 8 m 1,32,33
 24 12 24 12 24 24 c 1,34,35
 25 24 25 24 28 24 c 1,36,37
 28 20 28 20 28 8 c 1,38,39
 27 8 27 8 24 8 c 1,32,33
20 24 m 1,40,41
 20 25 20 25 20 28 c 1,42,43
 21 28 21 28 24 28 c 1,44,45
 24 27 24 27 24 24 c 1,46,47
 23 24 23 24 20 24 c 1,40,41
0 28 m 1,48,49
 0 34 0 34 0 52 c 1,50,51
 7 52 7 52 28 52 c 1,52,53
 28 51 28 51 28 48 c 1,54,55
 22 48 22 48 4 48 c 1,56,57
 4 44 4 44 4 32 c 1,58,59
 8 32 8 32 20 32 c 1,60,61
 20 31 20 31 20 28 c 1,62,63
 17 28 17 28 8 28 c 0,64,65
 6 28 6 28 0 28 c 1,48,49
EndSplineSet
EndChar

StartChar: six
Encoding: 54 54 25
Width: 36
GlyphClass: 2
Flags: W
LayerCount: 2
Fore
SplineSet
8 0 m 1,0,1
 8 1 8 1 8 4 c 1,2,3
 11 4 11 4 20 4 c 1,4,5
 20 3 20 3 20 0 c 1,6,7
 17 0 17 0 8 0 c 1,0,1
4 4 m 1,8,9
 4 5 4 5 4 8 c 1,10,11
 5 8 5 8 8 8 c 1,12,13
 8 7 8 7 8 4 c 1,14,15
 7 4 7 4 4 4 c 1,8,9
20 4 m 1,16,17
 20 5 20 5 20 8 c 1,18,19
 21 8 21 8 24 8 c 1,20,21
 24 7 24 7 24 4 c 1,22,23
 23 4 23 4 20 4 c 1,16,17
24 8 m 1,24,25
 24 12 24 12 24 24 c 1,26,27
 25 24 25 24 28 24 c 1,28,29
 28 20 28 20 28 8 c 1,30,31
 27 8 27 8 24 8 c 1,24,25
20 24 m 1,32,33
 20 25 20 25 20 28 c 1,34,35
 21 28 21 28 24 28 c 1,36,37
 24 27 24 27 24 24 c 1,38,39
 23 24 23 24 20 24 c 1,32,33
8 28 m 1,40,41
 8 29 8 29 8 32 c 1,42,43
 11 32 11 32 20 32 c 1,44,45
 20 31 20 31 20 28 c 1,46,47
 17 28 17 28 8 28 c 1,40,41
0 8 m 1,48,49
 0 17 0 17 0 44 c 1,50,51
 1 44 1 44 4 44 c 1,52,53
 4 40 4 40 4 28 c 1,54,55
 5 28 5 28 8 28 c 1,56,57
 8 27 8 27 8 24 c 1,58,59
 7 24 7 24 4 24 c 1,60,61
 4 20 4 20 4 8 c 1,62,63
 3 8 3 8 0 8 c 1,48,49
24 40 m 1,64,65
 24 41 24 41 24 44 c 1,66,67
 25 44 25 44 28 44 c 1,68,69
 28 43 28 43 28 40 c 1,70,71
 27 40 27 40 24 40 c 1,64,65
4 44 m 1,72,73
 4 45 4 45 4 48 c 1,74,75
 5 48 5 48 8 48 c 1,76,77
 8 47 8 47 8 44 c 1,78,79
 7 44 7 44 4 44 c 1,72,73
20 44 m 1,80,81
 20 45 20 45 20 48 c 1,82,83
 21 48 21 48 24 48 c 1,84,85
 24 47 24 47 24 44 c 1,86,87
 23 44 23 44 20 44 c 1,80,81
8 48 m 1,88,89
 8 49 8 49 8 52 c 1,90,91
 11 52 11 52 20 52 c 1,92,93
 20 51 20 51 20 48 c 1,94,95
 17 48 17 48 8 48 c 1,88,89
EndSplineSet
EndChar

StartChar: seven
Encoding: 55 55 26
Width: 36
GlyphClass: 2
Flags: W
LayerCount: 2
Fore
SplineSet
8 0 m 1,0,1
 8 5 8 5 8 20 c 1,2,3
 9 20 9 20 12 20 c 1,4,5
 12 15 12 15 12 0 c 1,6,7
 11 0 11 0 8 0 c 1,0,1
12 20 m 1,8,9
 12 22 12 22 12 28 c 1,10,11
 13 28 13 28 16 28 c 1,12,13
 16 26 16 26 16 20 c 1,14,15
 15 20 15 20 12 20 c 1,8,9
16 28 m 1,16,17
 16 30 16 30 16 36 c 1,18,19
 17 36 17 36 20 36 c 1,20,21
 20 34 20 34 20 28 c 1,22,23
 19 28 19 28 16 28 c 1,16,17
20 36 m 1,24,25
 20 38 20 38 20 44 c 1,26,27
 21 44 21 44 24 44 c 1,28,29
 24 42 24 42 24 36 c 1,30,31
 23 36 23 36 20 36 c 1,24,25
24 44 m 1,32,33
 24 45 24 45 24 48 c 1,34,35
 18 48 18 48 0 48 c 1,36,37
 0 49 0 49 0 52 c 1,38,39
 7 52 7 52 28 52 c 1,40,41
 28 50 28 50 28 44 c 1,42,43
 27 44 27 44 24 44 c 1,32,33
EndSplineSet
EndChar

StartChar: eight
Encoding: 56 56 27
Width: 36
GlyphClass: 2
Flags: W
LayerCount: 2
Fore
SplineSet
8 0 m 1,0,1
 8 1 8 1 8 4 c 1,2,3
 11 4 11 4 20 4 c 1,4,5
 20 3 20 3 20 0 c 1,6,7
 17 0 17 0 8 0 c 1,0,1
4 4 m 1,8,9
 4 5 4 5 4 8 c 1,10,11
 5 8 5 8 8 8 c 1,12,13
 8 7 8 7 8 4 c 1,14,15
 7 4 7 4 4 4 c 1,8,9
20 4 m 1,16,17
 20 5 20 5 20 8 c 1,18,19
 21 8 21 8 24 8 c 1,20,21
 24 7 24 7 24 4 c 1,22,23
 23 4 23 4 20 4 c 1,16,17
0 8 m 1,24,25
 0 11 0 11 0 20 c 1,26,27
 1 20 1 20 4 20 c 1,28,29
 4 17 4 17 4 8 c 1,30,31
 3 8 3 8 0 8 c 1,24,25
24 8 m 1,32,33
 24 11 24 11 24 20 c 1,34,35
 25 20 25 20 28 20 c 1,36,37
 28 17 28 17 28 8 c 1,38,39
 27 8 27 8 24 8 c 1,32,33
4 20 m 1,40,41
 4 21 4 21 4 24 c 1,42,43
 5 24 5 24 8 24 c 1,44,45
 8 23 8 23 8 20 c 1,46,47
 7 20 7 20 4 20 c 1,40,41
20 20 m 1,48,49
 20 21 20 21 20 24 c 1,50,51
 21 24 21 24 24 24 c 1,52,53
 24 23 24 23 24 20 c 1,54,55
 23 20 23 20 20 20 c 1,48,49
8 24 m 1,56,57
 8 25 8 25 8 28 c 1,58,59
 11 28 11 28 20 28 c 1,60,61
 20 27 20 27 20 24 c 1,62,63
 17 24 17 24 8 24 c 1,56,57
4 28 m 1,64,65
 4 29 4 29 4 32 c 1,66,67
 5 32 5 32 8 32 c 1,68,69
 8 31 8 31 8 28 c 1,70,71
 7 28 7 28 4 28 c 1,64,65
20 28 m 1,72,73
 20 29 20 29 20 32 c 1,74,75
 21 32 21 32 24 32 c 1,76,77
 24 31 24 31 24 28 c 1,78,79
 23 28 23 28 20 28 c 1,72,73
0 32 m 1,80,81
 0 35 0 35 0 44 c 1,82,83
 1 44 1 44 4 44 c 1,84,85
 4 41 4 41 4 32 c 1,86,87
 3 32 3 32 0 32 c 1,80,81
24 32 m 1,88,89
 24 35 24 35 24 44 c 1,90,91
 25 44 25 44 28 44 c 1,92,93
 28 41 28 41 28 32 c 1,94,95
 27 32 27 32 24 32 c 1,88,89
4 44 m 1,96,97
 4 45 4 45 4 48 c 1,98,99
 5 48 5 48 8 48 c 1,100,101
 8 47 8 47 8 44 c 1,102,103
 7 44 7 44 4 44 c 1,96,97
20 44 m 1,104,105
 20 45 20 45 20 48 c 1,106,107
 21 48 21 48 24 48 c 1,108,109
 24 47 24 47 24 44 c 1,110,111
 23 44 23 44 20 44 c 1,104,105
8 48 m 1,112,113
 8 49 8 49 8 52 c 1,114,115
 11 52 11 52 20 52 c 1,116,117
 20 51 20 51 20 48 c 1,118,119
 17 48 17 48 8 48 c 1,112,113
EndSplineSet
EndChar

StartChar: nine
Encoding: 57 57 28
Width: 36
GlyphClass: 2
Flags: W
LayerCount: 2
Fore
SplineSet
8 0 m 1,0,1
 8 1 8 1 8 4 c 1,2,3
 11 4 11 4 20 4 c 1,4,5
 20 3 20 3 20 0 c 1,6,7
 17 0 17 0 8 0 c 1,0,1
4 4 m 1,8,9
 4 5 4 5 4 8 c 1,10,11
 5 8 5 8 8 8 c 1,12,13
 8 7 8 7 8 4 c 1,14,15
 7 4 7 4 4 4 c 1,8,9
20 4 m 1,16,17
 20 5 20 5 20 8 c 1,18,19
 21 8 21 8 24 8 c 1,20,21
 24 7 24 7 24 4 c 1,22,23
 23 4 23 4 20 4 c 1,16,17
0 8 m 1,24,25
 0 9 0 9 0 12 c 1,26,27
 1 12 1 12 4 12 c 1,28,29
 4 11 4 11 4 8 c 1,30,31
 3 8 3 8 0 8 c 1,24,25
8 24 m 1,32,33
 8 25 8 25 8 28 c 1,34,35
 11 28 11 28 20 28 c 1,36,37
 20 27 20 27 20 24 c 1,38,39
 17 24 17 24 8 24 c 1,32,33
4 28 m 1,40,41
 4 29 4 29 4 32 c 1,42,43
 5 32 5 32 8 32 c 1,44,45
 8 31 8 31 8 28 c 1,46,47
 7 28 7 28 4 28 c 1,40,41
0 32 m 1,48,49
 0 35 0 35 0 44 c 1,50,51
 1 44 1 44 4 44 c 1,52,53
 4 41 4 41 4 32 c 1,54,55
 3 32 3 32 0 32 c 1,48,49
24 8 m 1,56,57
 24 13 24 13 24 28 c 1,58,59
 23 28 23 28 20 28 c 1,60,61
 20 29 20 29 20 32 c 1,62,63
 21 32 21 32 24 32 c 1,64,65
 24 35 24 35 24 44 c 1,66,67
 25 44 25 44 28 44 c 1,68,69
 28 35 28 35 28 8 c 1,70,71
 27 8 27 8 24 8 c 1,56,57
4 44 m 1,72,73
 4 45 4 45 4 48 c 1,74,75
 5 48 5 48 8 48 c 1,76,77
 8 47 8 47 8 44 c 1,78,79
 7 44 7 44 4 44 c 1,72,73
20 44 m 1,80,81
 20 45 20 45 20 48 c 1,82,83
 21 48 21 48 24 48 c 1,84,85
 24 47 24 47 24 44 c 1,86,87
 23 44 23 44 20 44 c 1,80,81
8 48 m 1,88,89
 8 49 8 49 8 52 c 1,90,91
 11 52 11 52 20 52 c 1,92,93
 20 51 20 51 20 48 c 1,94,95
 17 48 17 48 8 48 c 1,88,89
EndSplineSet
EndChar

StartChar: colon
Encoding: 58 58 29
Width: 12
GlyphClass: 2
Flags: W
LayerCount: 2
Fore
SplineSet
0 8 m 1,0,1
 0 9 0 9 0 12 c 1,2,3
 1 12 1 12 4 12 c 1,4,5
 4 11 4 11 4 8 c 1,6,7
 3 8 3 8 0 8 c 1,0,1
0 36 m 1,8,9
 0 37 0 37 0 40 c 1,10,11
 1 40 1 40 4 40 c 1,12,13
 4 39 4 39 4 36 c 1,14,15
 3 36 3 36 0 36 c 1,8,9
EndSplineSet
EndChar

StartChar: semicolon
Encoding: 59 59 30
Width: 16
GlyphClass: 2
Flags: W
LayerCount: 2
Fore
SplineSet
0 0 m 1,0,1
 0 1 0 1 0 4 c 1,2,3
 1 4 1 4 4 4 c 1,4,5
 4 3 4 3 4 0 c 1,6,7
 3 0 3 0 0 0 c 1,0,1
4 4 m 1,8,9
 4 5 4 5 4 8 c 1,10,11
 3 8 3 8 0 8 c 1,12,13
 0 9 0 9 0 12 c 1,14,15
 2 12 2 12 8 12 c 1,16,17
 8 10 8 10 8 4 c 1,18,19
 7 4 7 4 4 4 c 1,8,9
0 36 m 1,20,21
 0 37 0 37 0 40 c 1,22,23
 1 40 1 40 4 40 c 1,24,25
 4 39 4 39 4 36 c 1,26,27
 3 36 3 36 0 36 c 1,20,21
EndSplineSet
EndChar

StartChar: less
Encoding: 60 60 31
Width: 24
GlyphClass: 2
Flags: W
LayerCount: 2
Fore
SplineSet
12 12 m 1,0,1
 12 13 12 13 12 16 c 1,2,3
 13 16 13 16 16 16 c 1,4,5
 16 15 16 15 16 12 c 1,6,7
 15 12 15 12 12 12 c 1,0,1
8 16 m 1,8,9
 8 17 8 17 8 20 c 1,10,11
 9 20 9 20 12 20 c 1,12,13
 12 19 12 19 12 16 c 1,14,15
 11 16 11 16 8 16 c 1,8,9
4 20 m 1,16,17
 4 21 4 21 4 24 c 1,18,19
 5 24 5 24 8 24 c 1,20,21
 8 23 8 23 8 20 c 1,22,23
 7 20 7 20 4 20 c 1,16,17
0 24 m 1,24,25
 0 25 0 25 0 28 c 1,26,27
 1 28 1 28 4 28 c 1,28,29
 4 27 4 27 4 24 c 1,30,31
 3 24 3 24 0 24 c 1,24,25
4 28 m 1,32,33
 4 29 4 29 4 32 c 1,34,35
 5 32 5 32 8 32 c 1,36,37
 8 31 8 31 8 28 c 1,38,39
 7 28 7 28 4 28 c 1,32,33
8 32 m 1,40,41
 8 33 8 33 8 36 c 1,42,43
 9 36 9 36 12 36 c 1,44,45
 12 35 12 35 12 32 c 1,46,47
 11 32 11 32 8 32 c 1,40,41
12 36 m 1,48,49
 12 37 12 37 12 40 c 1,50,51
 13 40 13 40 16 40 c 1,52,53
 16 39 16 39 16 36 c 1,54,55
 15 36 15 36 12 36 c 1,48,49
EndSplineSet
EndChar

StartChar: equal
Encoding: 61 61 32
Width: 32
GlyphClass: 2
Flags: W
LayerCount: 2
Fore
SplineSet
0 16 m 1,0,1
 0 17 0 17 0 20 c 1,2,3
 6 20 6 20 24 20 c 1,4,5
 24 19 24 19 24 16 c 1,6,7
 18 16 18 16 0 16 c 1,0,1
0 32 m 1,8,9
 0 33 0 33 0 36 c 1,10,11
 6 36 6 36 24 36 c 1,12,13
 24 35 24 35 24 32 c 1,14,15
 18 32 18 32 0 32 c 1,8,9
EndSplineSet
EndChar

StartChar: greater
Encoding: 62 62 33
Width: 24
GlyphClass: 2
Flags: W
LayerCount: 2
Fore
SplineSet
0 12 m 1,0,1
 0 13 0 13 0 16 c 1,2,3
 1 16 1 16 4 16 c 1,4,5
 4 15 4 15 4 12 c 1,6,7
 3 12 3 12 0 12 c 1,0,1
4 16 m 1,8,9
 4 17 4 17 4 20 c 1,10,11
 5 20 5 20 8 20 c 1,12,13
 8 19 8 19 8 16 c 1,14,15
 7 16 7 16 4 16 c 1,8,9
8 20 m 1,16,17
 8 21 8 21 8 24 c 1,18,19
 9 24 9 24 12 24 c 1,20,21
 12 23 12 23 12 20 c 1,22,23
 11 20 11 20 8 20 c 1,16,17
12 24 m 1,24,25
 12 25 12 25 12 28 c 1,26,27
 13 28 13 28 16 28 c 1,28,29
 16 27 16 27 16 24 c 1,30,31
 15 24 15 24 12 24 c 1,24,25
8 28 m 1,32,33
 8 29 8 29 8 32 c 1,34,35
 9 32 9 32 12 32 c 1,36,37
 12 31 12 31 12 28 c 1,38,39
 11 28 11 28 8 28 c 1,32,33
4 32 m 1,40,41
 4 33 4 33 4 36 c 1,42,43
 5 36 5 36 8 36 c 1,44,45
 8 35 8 35 8 32 c 1,46,47
 7 32 7 32 4 32 c 1,40,41
0 36 m 1,48,49
 0 37 0 37 0 40 c 1,50,51
 1 40 1 40 4 40 c 1,52,53
 4 39 4 39 4 36 c 1,54,55
 3 36 3 36 0 36 c 1,48,49
EndSplineSet
EndChar

StartChar: question
Encoding: 63 63 34
Width: 36
GlyphClass: 2
Flags: W
LayerCount: 2
Fore
SplineSet
12 0 m 1,0,1
 12 2 12 2 12 8 c 1,2,3
 13 8 13 8 16 8 c 1,4,5
 16 6 16 6 16 0 c 1,6,7
 15 0 15 0 12 0 c 1,0,1
12 16 m 1,8,9
 12 18 12 18 12 24 c 1,10,11
 13 24 13 24 16 24 c 1,12,13
 16 22 16 22 16 16 c 1,14,15
 15 16 15 16 12 16 c 1,8,9
16 24 m 1,16,17
 16 25 16 25 16 28 c 1,18,19
 17 28 17 28 20 28 c 1,20,21
 20 27 20 27 20 24 c 1,22,23
 19 24 19 24 16 24 c 1,16,17
20 28 m 1,24,25
 20 29 20 29 20 32 c 1,26,27
 21 32 21 32 24 32 c 1,28,29
 24 31 24 31 24 28 c 1,30,31
 23 28 23 28 20 28 c 1,24,25
0 40 m 1,32,33
 0 41 0 41 0 44 c 1,34,35
 1 44 1 44 4 44 c 1,36,37
 4 43 4 43 4 40 c 1,38,39
 3 40 3 40 0 40 c 1,32,33
24 32 m 1,40,41
 24 35 24 35 24 44 c 1,42,43
 25 44 25 44 28 44 c 1,44,45
 28 41 28 41 28 32 c 1,46,47
 27 32 27 32 24 32 c 1,40,41
4 44 m 1,48,49
 4 45 4 45 4 48 c 1,50,51
 5 48 5 48 8 48 c 1,52,53
 8 47 8 47 8 44 c 1,54,55
 7 44 7 44 4 44 c 1,48,49
20 44 m 1,56,57
 20 45 20 45 20 48 c 1,58,59
 21 48 21 48 24 48 c 1,60,61
 24 47 24 47 24 44 c 1,62,63
 23 44 23 44 20 44 c 1,56,57
8 48 m 1,64,65
 8 49 8 49 8 52 c 1,66,67
 11 52 11 52 20 52 c 1,68,69
 20 51 20 51 20 48 c 1,70,71
 18 48 18 48 12 48 c 0,72,73
 11 48 11 48 8 48 c 1,64,65
EndSplineSet
EndChar

StartChar: at
Encoding: 64 64 35
Width: 44
GlyphClass: 2
Flags: W
LayerCount: 2
Fore
SplineSet
8 0 m 1,0,1
 8 1 8 1 8 4 c 1,2,3
 14 4 14 4 32 4 c 1,4,5
 32 3 32 3 32 0 c 1,6,7
 26 0 26 0 8 0 c 1,0,1
4 4 m 1,8,9
 4 5 4 5 4 8 c 1,10,11
 5 8 5 8 8 8 c 1,12,13
 8 7 8 7 8 4 c 1,14,15
 7 4 7 4 4 4 c 1,8,9
32 4 m 1,16,17
 32 5 32 5 32 8 c 1,18,19
 33 8 33 8 36 8 c 1,20,21
 36 7 36 7 36 4 c 1,22,23
 35 4 35 4 32 4 c 1,16,17
12 12 m 1,24,25
 12 13 12 13 12 16 c 1,26,27
 15 16 15 16 24 16 c 1,28,29
 24 15 24 15 24 12 c 1,30,31
 21 12 21 12 12 12 c 1,24,25
28 12 m 1,32,33
 28 13 28 13 28 16 c 1,34,35
 29 16 29 16 32 16 c 1,36,37
 32 15 32 15 32 12 c 1,38,39
 31 12 31 12 28 12 c 1,32,33
8 16 m 1,40,41
 8 21 8 21 8 36 c 1,42,43
 9 36 9 36 12 36 c 1,44,45
 12 31 12 31 12 16 c 1,46,47
 11 16 11 16 8 16 c 1,40,41
24 16 m 1,48,49
 24 21 24 21 24 36 c 1,50,51
 25 36 25 36 28 36 c 1,52,53
 28 31 28 31 28 16 c 1,54,55
 27 16 27 16 24 16 c 1,48,49
12 36 m 1,56,57
 12 37 12 37 12 40 c 1,58,59
 15 40 15 40 24 40 c 1,60,61
 24 39 24 39 24 36 c 1,62,63
 21 36 21 36 12 36 c 1,56,57
0 8 m 1,64,65
 0 17 0 17 0 44 c 1,66,67
 1 44 1 44 4 44 c 1,68,69
 4 35 4 35 4 8 c 1,70,71
 3 8 3 8 0 8 c 1,64,65
32 16 m 1,72,73
 32 23 32 23 32 44 c 1,74,75
 33 44 33 44 36 44 c 1,76,77
 36 37 36 37 36 16 c 1,78,79
 35 16 35 16 32 16 c 1,72,73
4 44 m 1,80,81
 4 45 4 45 4 48 c 1,82,83
 5 48 5 48 8 48 c 1,84,85
 8 47 8 47 8 44 c 1,86,87
 7 44 7 44 4 44 c 1,80,81
28 44 m 1,88,89
 28 45 28 45 28 48 c 1,90,91
 29 48 29 48 32 48 c 1,92,93
 32 47 32 47 32 44 c 1,94,95
 31 44 31 44 28 44 c 1,88,89
8 48 m 1,96,97
 8 49 8 49 8 52 c 1,98,99
 13 52 13 52 28 52 c 1,100,101
 28 51 28 51 28 48 c 1,102,103
 23 48 23 48 8 48 c 1,96,97
EndSplineSet
EndChar

StartChar: A
Encoding: 65 65 36
Width: 36
GlyphClass: 2
Flags: W
LayerCount: 2
Fore
SplineSet
0 0 m 1,0,1
 0 10 0 10 0 40 c 1,2,3
 1 40 1 40 4 40 c 1,4,5
 4 36 4 36 4 24 c 1,6,7
 9 24 9 24 24 24 c 1,8,9
 24 28 24 28 24 40 c 1,10,11
 25 40 25 40 28 40 c 1,12,13
 28 30 28 30 28 0 c 1,14,15
 27 0 27 0 24 0 c 1,16,17
 24 5 24 5 24 20 c 1,18,19
 19 20 19 20 4 20 c 1,20,21
 4 15 4 15 4 0 c 1,22,23
 3 0 3 0 0 0 c 1,0,1
4 40 m 1,24,25
 4 42 4 42 4 48 c 1,26,27
 5 48 5 48 8 48 c 1,28,29
 8 46 8 46 8 40 c 1,30,31
 7 40 7 40 4 40 c 1,24,25
20 40 m 1,32,33
 20 42 20 42 20 48 c 1,34,35
 21 48 21 48 24 48 c 1,36,37
 24 46 24 46 24 40 c 1,38,39
 23 40 23 40 20 40 c 1,32,33
8 48 m 1,40,41
 8 49 8 49 8 52 c 1,42,43
 11 52 11 52 20 52 c 1,44,45
 20 51 20 51 20 48 c 1,46,47
 17 48 17 48 8 48 c 1,40,41
EndSplineSet
EndChar

StartChar: B
Encoding: 66 66 37
Width: 36
GlyphClass: 2
Flags: W
LayerCount: 2
Fore
SplineSet
20 4 m 1,0,1
 20 5 20 5 20 8 c 1,2,3
 21 8 21 8 24 8 c 1,4,5
 24 7 24 7 24 4 c 1,6,7
 23 4 23 4 20 4 c 1,0,1
24 8 m 1,8,9
 24 11 24 11 24 20 c 1,10,11
 25 20 25 20 28 20 c 1,12,13
 28 17 28 17 28 8 c 1,14,15
 27 8 27 8 24 8 c 1,8,9
20 20 m 1,16,17
 20 21 20 21 20 24 c 1,18,19
 21 24 21 24 24 24 c 1,20,21
 24 23 24 23 24 20 c 1,22,23
 23 20 23 20 20 20 c 1,16,17
20 28 m 1,24,25
 20 29 20 29 20 32 c 1,26,27
 21 32 21 32 24 32 c 1,28,29
 24 31 24 31 24 28 c 1,30,31
 23 28 23 28 20 28 c 1,24,25
24 32 m 1,32,33
 24 35 24 35 24 44 c 1,34,35
 25 44 25 44 28 44 c 1,36,37
 28 41 28 41 28 32 c 1,38,39
 27 32 27 32 24 32 c 1,32,33
20 44 m 1,40,41
 20 45 20 45 20 48 c 1,42,43
 21 48 21 48 24 48 c 1,44,45
 24 47 24 47 24 44 c 1,46,47
 23 44 23 44 20 44 c 1,40,41
0 0 m 1,48,49
 0 13 0 13 0 52 c 1,50,51
 5 52 5 52 20 52 c 1,52,53
 20 51 20 51 20 48 c 1,54,55
 16 48 16 48 4 48 c 1,56,57
 4 43 4 43 4 28 c 1,58,59
 8 28 8 28 20 28 c 1,60,61
 20 27 20 27 20 24 c 1,62,63
 16 24 16 24 4 24 c 1,64,65
 4 19 4 19 4 4 c 1,66,67
 8 4 8 4 20 4 c 1,68,69
 20 3 20 3 20 0 c 1,70,71
 15 0 15 0 0 0 c 1,48,49
EndSplineSet
EndChar

StartChar: C
Encoding: 67 67 38
Width: 36
GlyphClass: 2
Flags: W
LayerCount: 2
Fore
SplineSet
8 0 m 1,0,1
 8 1 8 1 8 4 c 1,2,3
 11 4 11 4 20 4 c 1,4,5
 20 3 20 3 20 0 c 1,6,7
 17 0 17 0 8 0 c 1,0,1
4 4 m 1,8,9
 4 5 4 5 4 8 c 1,10,11
 5 8 5 8 8 8 c 1,12,13
 8 7 8 7 8 4 c 1,14,15
 7 4 7 4 4 4 c 1,8,9
20 4 m 1,16,17
 20 5 20 5 20 8 c 1,18,19
 21 8 21 8 24 8 c 1,20,21
 24 7 24 7 24 4 c 1,22,23
 23 4 23 4 20 4 c 1,16,17
24 8 m 1,24,25
 24 9 24 9 24 12 c 1,26,27
 25 12 25 12 28 12 c 1,28,29
 28 11 28 11 28 8 c 1,30,31
 27 8 27 8 24 8 c 1,24,25
0 8 m 1,32,33
 0 17 0 17 0 44 c 1,34,35
 1 44 1 44 4 44 c 1,36,37
 4 35 4 35 4 8 c 1,38,39
 3 8 3 8 0 8 c 1,32,33
24 40 m 1,40,41
 24 41 24 41 24 44 c 1,42,43
 25 44 25 44 28 44 c 1,44,45
 28 43 28 43 28 40 c 1,46,47
 27 40 27 40 24 40 c 1,40,41
4 44 m 1,48,49
 4 45 4 45 4 48 c 1,50,51
 5 48 5 48 8 48 c 1,52,53
 8 47 8 47 8 44 c 1,54,55
 7 44 7 44 4 44 c 1,48,49
20 44 m 1,56,57
 20 45 20 45 20 48 c 1,58,59
 21 48 21 48 24 48 c 1,60,61
 24 47 24 47 24 44 c 1,62,63
 23 44 23 44 20 44 c 1,56,57
8 48 m 1,64,65
 8 49 8 49 8 52 c 1,66,67
 11 52 11 52 20 52 c 1,68,69
 20 51 20 51 20 48 c 1,70,71
 17 48 17 48 8 48 c 1,64,65
EndSplineSet
EndChar

StartChar: D
Encoding: 68 68 39
Width: 36
GlyphClass: 2
Flags: W
LayerCount: 2
Fore
SplineSet
20 4 m 1,0,1
 20 5 20 5 20 8 c 1,2,3
 21 8 21 8 24 8 c 1,4,5
 24 7 24 7 24 4 c 1,6,7
 23 4 23 4 20 4 c 1,0,1
24 8 m 1,8,9
 24 17 24 17 24 44 c 1,10,11
 25 44 25 44 28 44 c 1,12,13
 28 35 28 35 28 8 c 1,14,15
 27 8 27 8 24 8 c 1,8,9
20 44 m 1,16,17
 20 45 20 45 20 48 c 1,18,19
 21 48 21 48 24 48 c 1,20,21
 24 47 24 47 24 44 c 1,22,23
 23 44 23 44 20 44 c 1,16,17
0 0 m 1,24,25
 0 13 0 13 0 52 c 1,26,27
 5 52 5 52 20 52 c 1,28,29
 20 51 20 51 20 48 c 1,30,31
 16 48 16 48 4 48 c 1,32,33
 4 37 4 37 4 4 c 1,34,35
 8 4 8 4 20 4 c 1,36,37
 20 3 20 3 20 0 c 1,38,39
 15 0 15 0 0 0 c 1,24,25
EndSplineSet
EndChar

StartChar: E
Encoding: 69 69 40
Width: 36
GlyphClass: 2
Flags: W
LayerCount: 2
Fore
SplineSet
0 0 m 1,0,1
 0 13 0 13 0 52 c 1,2,3
 7 52 7 52 28 52 c 1,4,5
 28 51 28 51 28 48 c 1,6,7
 22 48 22 48 4 48 c 1,8,9
 4 43 4 43 4 28 c 1,10,11
 8 28 8 28 20 28 c 1,12,13
 20 27 20 27 20 24 c 1,14,15
 16 24 16 24 4 24 c 1,16,17
 4 19 4 19 4 4 c 1,18,19
 10 4 10 4 28 4 c 1,20,21
 28 3 28 3 28 0 c 1,22,23
 21 0 21 0 0 0 c 1,0,1
EndSplineSet
EndChar

StartChar: F
Encoding: 70 70 41
Width: 36
GlyphClass: 2
Flags: W
LayerCount: 2
Fore
SplineSet
0 0 m 1,0,1
 0 13 0 13 0 52 c 1,2,3
 7 52 7 52 28 52 c 1,4,5
 28 51 28 51 28 48 c 1,6,7
 22 48 22 48 4 48 c 1,8,9
 4 43 4 43 4 28 c 1,10,11
 8 28 8 28 20 28 c 1,12,13
 20 27 20 27 20 24 c 1,14,15
 16 24 16 24 4 24 c 1,16,17
 4 18 4 18 4 0 c 1,18,19
 3 0 3 0 0 0 c 1,0,1
EndSplineSet
EndChar

StartChar: G
Encoding: 71 71 42
Width: 36
GlyphClass: 2
Flags: W
LayerCount: 2
Fore
SplineSet
4 4 m 1,0,1
 4 5 4 5 4 8 c 1,2,3
 5 8 5 8 8 8 c 1,4,5
 8 7 8 7 8 4 c 1,6,7
 7 4 7 4 4 4 c 1,0,1
8 0 m 1,8,9
 8 1 8 1 8 4 c 1,10,11
 12 4 12 4 24 4 c 1,12,13
 24 9 24 9 24 24 c 1,14,15
 22 24 22 24 16 24 c 1,16,17
 16 25 16 25 16 28 c 1,18,19
 19 28 19 28 28 28 c 1,20,21
 28 21 28 21 28 0 c 1,22,23
 23 0 23 0 8 0 c 1,8,9
0 8 m 1,24,25
 0 17 0 17 0 44 c 1,26,27
 1 44 1 44 4 44 c 1,28,29
 4 35 4 35 4 8 c 1,30,31
 3 8 3 8 0 8 c 1,24,25
4 44 m 1,32,33
 4 45 4 45 4 48 c 1,34,35
 5 48 5 48 8 48 c 1,36,37
 8 47 8 47 8 44 c 1,38,39
 7 44 7 44 4 44 c 1,32,33
24 44 m 1,40,41
 24 45 24 45 24 48 c 1,42,43
 25 48 25 48 28 48 c 1,44,45
 28 47 28 47 28 44 c 1,46,47
 27 44 27 44 24 44 c 1,40,41
8 48 m 1,48,49
 8 49 8 49 8 52 c 1,50,51
 12 52 12 52 24 52 c 1,52,53
 24 51 24 51 24 48 c 1,54,55
 20 48 20 48 8 48 c 1,48,49
EndSplineSet
EndChar

StartChar: H
Encoding: 72 72 43
Width: 36
GlyphClass: 2
Flags: W
LayerCount: 2
Fore
SplineSet
0 0 m 1,0,1
 0 13 0 13 0 52 c 1,2,3
 1 52 1 52 4 52 c 1,4,5
 4 46 4 46 4 28 c 1,6,7
 9 28 9 28 24 28 c 1,8,9
 24 34 24 34 24 52 c 1,10,11
 25 52 25 52 28 52 c 1,12,13
 28 39 28 39 28 0 c 1,14,15
 27 0 27 0 24 0 c 1,16,17
 24 6 24 6 24 24 c 1,18,19
 19 24 19 24 4 24 c 1,20,21
 4 18 4 18 4 0 c 1,22,23
 3 0 3 0 0 0 c 1,0,1
EndSplineSet
EndChar

StartChar: I
Encoding: 73 73 44
Width: 12
GlyphClass: 2
Flags: W
LayerCount: 2
Fore
SplineSet
0 0 m 1,0,1
 0 13 0 13 0 52 c 1,2,3
 1 52 1 52 4 52 c 1,4,5
 4 39 4 39 4 0 c 1,6,7
 3 0 3 0 0 0 c 1,0,1
EndSplineSet
EndChar

StartChar: J
Encoding: 74 74 45
Width: 36
GlyphClass: 2
Flags: W
LayerCount: 2
Fore
SplineSet
8 0 m 1,0,1
 8 1 8 1 8 4 c 1,2,3
 11 4 11 4 20 4 c 1,4,5
 20 3 20 3 20 0 c 1,6,7
 17 0 17 0 8 0 c 1,0,1
4 4 m 1,8,9
 4 5 4 5 4 8 c 1,10,11
 5 8 5 8 8 8 c 1,12,13
 8 7 8 7 8 4 c 1,14,15
 7 4 7 4 4 4 c 1,8,9
20 4 m 1,16,17
 20 5 20 5 20 8 c 1,18,19
 21 8 21 8 24 8 c 1,20,21
 24 7 24 7 24 4 c 1,22,23
 23 4 23 4 20 4 c 1,16,17
0 8 m 1,24,25
 0 9 0 9 0 12 c 1,26,27
 1 12 1 12 4 12 c 1,28,29
 4 11 4 11 4 8 c 1,30,31
 3 8 3 8 0 8 c 1,24,25
24 8 m 1,32,33
 24 19 24 19 24 52 c 1,34,35
 25 52 25 52 28 52 c 1,36,37
 28 41 28 41 28 8 c 1,38,39
 27 8 27 8 24 8 c 1,32,33
EndSplineSet
EndChar

StartChar: K
Encoding: 75 75 46
Width: 36
GlyphClass: 2
Flags: W
LayerCount: 2
Fore
SplineSet
24 0 m 1,0,1
 24 3 24 3 24 12 c 1,2,3
 25 12 25 12 28 12 c 1,4,5
 28 9 28 9 28 0 c 1,6,7
 27 0 27 0 24 0 c 1,0,1
20 12 m 1,8,9
 20 13 20 13 20 16 c 1,10,11
 21 16 21 16 24 16 c 1,12,13
 24 15 24 15 24 12 c 1,14,15
 23 12 23 12 20 12 c 1,8,9
16 16 m 1,16,17
 16 17 16 17 16 20 c 1,18,19
 17 20 17 20 20 20 c 1,20,21
 20 19 20 19 20 16 c 1,22,23
 19 16 19 16 16 16 c 1,16,17
12 20 m 1,24,25
 12 21 12 21 12 24 c 1,26,27
 13 24 13 24 16 24 c 1,28,29
 16 23 16 23 16 20 c 1,30,31
 15 20 15 20 12 20 c 1,24,25
12 28 m 1,32,33
 12 29 12 29 12 32 c 1,34,35
 13 32 13 32 16 32 c 1,36,37
 16 31 16 31 16 28 c 1,38,39
 15 28 15 28 12 28 c 1,32,33
16 32 m 1,40,41
 16 33 16 33 16 36 c 1,42,43
 17 36 17 36 20 36 c 1,44,45
 20 35 20 35 20 32 c 1,46,47
 19 32 19 32 16 32 c 1,40,41
20 36 m 1,48,49
 20 37 20 37 20 40 c 1,50,51
 21 40 21 40 24 40 c 1,52,53
 24 39 24 39 24 36 c 1,54,55
 23 36 23 36 20 36 c 1,48,49
0 0 m 1,56,57
 0 13 0 13 0 52 c 1,58,59
 1 52 1 52 4 52 c 1,60,61
 4 46 4 46 4 28 c 1,62,63
 6 28 6 28 12 28 c 1,64,65
 12 27 12 27 12 24 c 1,66,67
 10 24 10 24 4 24 c 1,68,69
 4 18 4 18 4 0 c 1,70,71
 3 0 3 0 0 0 c 1,56,57
24 40 m 1,72,73
 24 43 24 43 24 52 c 1,74,75
 25 52 25 52 28 52 c 1,76,77
 28 49 28 49 28 40 c 1,78,79
 27 40 27 40 24 40 c 1,72,73
EndSplineSet
EndChar

StartChar: L
Encoding: 76 76 47
Width: 36
GlyphClass: 2
Flags: W
LayerCount: 2
Fore
SplineSet
0 0 m 1,0,1
 0 13 0 13 0 52 c 1,2,3
 1 52 1 52 4 52 c 1,4,5
 4 40 4 40 4 4 c 1,6,7
 10 4 10 4 28 4 c 1,8,9
 28 3 28 3 28 0 c 1,10,11
 21 0 21 0 0 0 c 1,0,1
EndSplineSet
EndChar

StartChar: M
Encoding: 77 77 48
Width: 52
GlyphClass: 2
Flags: W
LayerCount: 2
Fore
SplineSet
20 24 m 1,0,1
 20 25 20 25 20 28 c 1,2,3
 21 28 21 28 24 28 c 1,4,5
 24 27 24 27 24 24 c 1,6,7
 23 24 23 24 20 24 c 1,0,1
16 28 m 1,8,9
 16 29 16 29 16 32 c 1,10,11
 17 32 17 32 20 32 c 1,12,13
 20 31 20 31 20 28 c 1,14,15
 19 28 19 28 16 28 c 1,8,9
24 28 m 1,16,17
 24 29 24 29 24 32 c 1,18,19
 25 32 25 32 28 32 c 1,20,21
 28 31 28 31 28 28 c 1,22,23
 27 28 27 28 24 28 c 1,16,17
12 32 m 1,24,25
 12 33 12 33 12 36 c 1,26,27
 13 36 13 36 16 36 c 1,28,29
 16 35 16 35 16 32 c 1,30,31
 15 32 15 32 12 32 c 1,24,25
28 32 m 1,32,33
 28 33 28 33 28 36 c 1,34,35
 29 36 29 36 32 36 c 1,36,37
 32 35 32 35 32 32 c 1,38,39
 31 32 31 32 28 32 c 1,32,33
8 36 m 1,40,41
 8 37 8 37 8 40 c 1,42,43
 9 40 9 40 12 40 c 1,44,45
 12 39 12 39 12 36 c 1,46,47
 11 36 11 36 8 36 c 1,40,41
32 36 m 1,48,49
 32 37 32 37 32 40 c 1,50,51
 33 40 33 40 36 40 c 1,52,53
 36 39 36 39 36 36 c 1,54,55
 35 36 35 36 32 36 c 1,48,49
0 0 m 1,56,57
 0 13 0 13 0 52 c 1,58,59
 1 52 1 52 4 52 c 1,60,61
 4 50 4 50 4 44 c 1,62,63
 5 44 5 44 8 44 c 1,64,65
 8 43 8 43 8 40 c 1,66,67
 7 40 7 40 4 40 c 1,68,69
 4 30 4 30 4 0 c 1,70,71
 3 0 3 0 0 0 c 1,56,57
40 0 m 1,72,73
 40 10 40 10 40 40 c 1,74,75
 39 40 39 40 36 40 c 1,76,77
 36 41 36 41 36 44 c 1,78,79
 37 44 37 44 40 44 c 1,80,81
 40 46 40 46 40 52 c 1,82,83
 41 52 41 52 44 52 c 1,84,85
 44 39 44 39 44 0 c 1,86,87
 43 0 43 0 40 0 c 1,72,73
EndSplineSet
EndChar

StartChar: N
Encoding: 78 78 49
Width: 36
GlyphClass: 2
Flags: W
LayerCount: 2
Fore
SplineSet
16 24 m 1,0,1
 16 25 16 25 16 28 c 1,2,3
 17 28 17 28 20 28 c 1,4,5
 20 27 20 27 20 24 c 1,6,7
 19 24 19 24 16 24 c 1,0,1
12 28 m 1,8,9
 12 29 12 29 12 32 c 1,10,11
 13 32 13 32 16 32 c 1,12,13
 16 31 16 31 16 28 c 1,14,15
 15 28 15 28 12 28 c 1,8,9
8 32 m 1,16,17
 8 33 8 33 8 36 c 1,18,19
 9 36 9 36 12 36 c 1,20,21
 12 35 12 35 12 32 c 1,22,23
 11 32 11 32 8 32 c 1,16,17
0 0 m 1,24,25
 0 13 0 13 0 52 c 1,26,27
 1 52 1 52 4 52 c 1,28,29
 4 49 4 49 4 40 c 1,30,31
 5 40 5 40 8 40 c 1,32,33
 8 39 8 39 8 36 c 1,34,35
 7 36 7 36 4 36 c 1,36,37
 4 27 4 27 4 0 c 1,38,39
 3 0 3 0 0 0 c 1,24,25
24 0 m 1,40,41
 24 5 24 5 24 20 c 1,42,43
 23 20 23 20 20 20 c 1,44,45
 20 21 20 21 20 24 c 1,46,47
 21 24 21 24 24 24 c 1,48,49
 24 31 24 31 24 52 c 1,50,51
 25 52 25 52 28 52 c 1,52,53
 28 39 28 39 28 0 c 1,54,55
 27 0 27 0 24 0 c 1,40,41
EndSplineSet
EndChar

StartChar: O
Encoding: 79 79 50
Width: 36
GlyphClass: 2
Flags: W
LayerCount: 2
Fore
SplineSet
8 0 m 1,0,1
 8 1 8 1 8 4 c 1,2,3
 11 4 11 4 20 4 c 1,4,5
 20 3 20 3 20 0 c 1,6,7
 17 0 17 0 8 0 c 1,0,1
4 4 m 1,8,9
 4 5 4 5 4 8 c 1,10,11
 5 8 5 8 8 8 c 1,12,13
 8 7 8 7 8 4 c 1,14,15
 7 4 7 4 4 4 c 1,8,9
20 4 m 1,16,17
 20 5 20 5 20 8 c 1,18,19
 21 8 21 8 24 8 c 1,20,21
 24 7 24 7 24 4 c 1,22,23
 23 4 23 4 20 4 c 1,16,17
0 8 m 1,24,25
 0 17 0 17 0 44 c 1,26,27
 1 44 1 44 4 44 c 1,28,29
 4 35 4 35 4 8 c 1,30,31
 3 8 3 8 0 8 c 1,24,25
24 8 m 1,32,33
 24 17 24 17 24 44 c 1,34,35
 25 44 25 44 28 44 c 1,36,37
 28 35 28 35 28 8 c 1,38,39
 27 8 27 8 24 8 c 1,32,33
4 44 m 1,40,41
 4 45 4 45 4 48 c 1,42,43
 5 48 5 48 8 48 c 1,44,45
 8 47 8 47 8 44 c 1,46,47
 7 44 7 44 4 44 c 1,40,41
20 44 m 1,48,49
 20 45 20 45 20 48 c 1,50,51
 21 48 21 48 24 48 c 1,52,53
 24 47 24 47 24 44 c 1,54,55
 23 44 23 44 20 44 c 1,48,49
8 48 m 1,56,57
 8 49 8 49 8 52 c 1,58,59
 11 52 11 52 20 52 c 1,60,61
 20 51 20 51 20 48 c 1,62,63
 17 48 17 48 8 48 c 1,56,57
EndSplineSet
EndChar

StartChar: P
Encoding: 80 80 51
Width: 36
GlyphClass: 2
Flags: W
LayerCount: 2
Fore
SplineSet
20 28 m 1,0,1
 20 29 20 29 20 32 c 1,2,3
 21 32 21 32 24 32 c 1,4,5
 24 31 24 31 24 28 c 1,6,7
 23 28 23 28 20 28 c 1,0,1
24 32 m 1,8,9
 24 35 24 35 24 44 c 1,10,11
 25 44 25 44 28 44 c 1,12,13
 28 41 28 41 28 32 c 1,14,15
 27 32 27 32 24 32 c 1,8,9
20 44 m 1,16,17
 20 45 20 45 20 48 c 1,18,19
 21 48 21 48 24 48 c 1,20,21
 24 47 24 47 24 44 c 1,22,23
 23 44 23 44 20 44 c 1,16,17
0 0 m 1,24,25
 0 13 0 13 0 52 c 1,26,27
 5 52 5 52 20 52 c 1,28,29
 20 51 20 51 20 48 c 1,30,31
 16 48 16 48 4 48 c 1,32,33
 4 43 4 43 4 28 c 1,34,35
 8 28 8 28 20 28 c 1,36,37
 20 27 20 27 20 24 c 1,38,39
 16 24 16 24 4 24 c 1,40,41
 4 18 4 18 4 0 c 1,42,43
 3 0 3 0 0 0 c 1,24,25
EndSplineSet
EndChar

StartChar: Q
Encoding: 81 81 52
Width: 36
GlyphClass: 2
Flags: W
LayerCount: 2
Fore
SplineSet
8 0 m 1,0,1
 8 1 8 1 8 4 c 1,2,3
 11 4 11 4 20 4 c 1,4,5
 20 3 20 3 20 0 c 1,6,7
 17 0 17 0 8 0 c 1,0,1
24 0 m 1,8,9
 24 1 24 1 24 4 c 1,10,11
 25 4 25 4 28 4 c 1,12,13
 28 3 28 3 28 0 c 1,14,15
 27 0 27 0 24 0 c 1,8,9
4 4 m 1,16,17
 4 5 4 5 4 8 c 1,18,19
 5 8 5 8 8 8 c 1,20,21
 8 7 8 7 8 4 c 1,22,23
 7 4 7 4 4 4 c 1,16,17
16 12 m 1,24,25
 16 13 16 13 16 16 c 1,26,27
 17 16 17 16 20 16 c 1,28,29
 20 15 20 15 20 12 c 1,30,31
 19 12 19 12 16 12 c 1,24,25
0 8 m 1,32,33
 0 17 0 17 0 44 c 1,34,35
 1 44 1 44 4 44 c 1,36,37
 4 35 4 35 4 8 c 1,38,39
 3 8 3 8 0 8 c 1,32,33
20 4 m 1,40,41
 20 6 20 6 20 12 c 1,42,43
 21 12 21 12 24 12 c 1,44,45
 24 20 24 20 24 44 c 1,46,47
 25 44 25 44 28 44 c 1,48,49
 28 35 28 35 28 8 c 1,50,51
 27 8 27 8 24 8 c 1,52,53
 24 7 24 7 24 4 c 1,54,55
 23 4 23 4 20 4 c 1,40,41
4 44 m 1,56,57
 4 45 4 45 4 48 c 1,58,59
 5 48 5 48 8 48 c 1,60,61
 8 47 8 47 8 44 c 1,62,63
 7 44 7 44 4 44 c 1,56,57
20 44 m 1,64,65
 20 45 20 45 20 48 c 1,66,67
 21 48 21 48 24 48 c 1,68,69
 24 47 24 47 24 44 c 1,70,71
 23 44 23 44 20 44 c 1,64,65
8 48 m 1,72,73
 8 49 8 49 8 52 c 1,74,75
 11 52 11 52 20 52 c 1,76,77
 20 51 20 51 20 48 c 1,78,79
 17 48 17 48 8 48 c 1,72,73
EndSplineSet
EndChar

StartChar: R
Encoding: 82 82 53
Width: 36
GlyphClass: 2
Flags: W
LayerCount: 2
Fore
SplineSet
24 0 m 1,0,1
 24 2 24 2 24 8 c 1,2,3
 25 8 25 8 28 8 c 1,4,5
 28 6 28 6 28 0 c 1,6,7
 27 0 27 0 24 0 c 1,0,1
20 8 m 1,8,9
 20 10 20 10 20 16 c 1,10,11
 21 16 21 16 24 16 c 1,12,13
 24 14 24 14 24 8 c 1,14,15
 23 8 23 8 20 8 c 1,8,9
16 16 m 1,16,17
 16 17 16 17 16 20 c 1,18,19
 17 20 17 20 20 20 c 1,20,21
 20 19 20 19 20 16 c 1,22,23
 19 16 19 16 16 16 c 1,16,17
20 28 m 1,24,25
 20 29 20 29 20 32 c 1,26,27
 21 32 21 32 24 32 c 1,28,29
 24 31 24 31 24 28 c 1,30,31
 23 28 23 28 20 28 c 1,24,25
24 32 m 1,32,33
 24 35 24 35 24 44 c 1,34,35
 25 44 25 44 28 44 c 1,36,37
 28 41 28 41 28 32 c 1,38,39
 27 32 27 32 24 32 c 1,32,33
20 44 m 1,40,41
 20 45 20 45 20 48 c 1,42,43
 21 48 21 48 24 48 c 1,44,45
 24 47 24 47 24 44 c 1,46,47
 23 44 23 44 20 44 c 1,40,41
0 0 m 1,48,49
 0 13 0 13 0 52 c 1,50,51
 5 52 5 52 20 52 c 1,52,53
 20 51 20 51 20 48 c 1,54,55
 16 48 16 48 4 48 c 1,56,57
 4 43 4 43 4 28 c 1,58,59
 8 28 8 28 20 28 c 1,60,61
 20 27 20 27 20 24 c 1,62,63
 19 24 19 24 16 24 c 1,64,65
 16 23 16 23 16 20 c 1,66,67
 15 20 15 20 12 20 c 1,68,69
 12 21 12 21 12 24 c 1,70,71
 10 24 10 24 4 24 c 1,72,73
 4 18 4 18 4 0 c 1,74,75
 3 0 3 0 0 0 c 1,48,49
EndSplineSet
EndChar

StartChar: S
Encoding: 83 83 54
Width: 36
GlyphClass: 2
Flags: W
LayerCount: 2
Fore
SplineSet
8 0 m 1,0,1
 8 1 8 1 8 4 c 1,2,3
 11 4 11 4 20 4 c 1,4,5
 20 3 20 3 20 0 c 1,6,7
 17 0 17 0 8 0 c 1,0,1
4 4 m 1,8,9
 4 5 4 5 4 8 c 1,10,11
 5 8 5 8 8 8 c 1,12,13
 8 7 8 7 8 4 c 1,14,15
 7 4 7 4 4 4 c 1,8,9
20 4 m 1,16,17
 20 5 20 5 20 8 c 1,18,19
 21 8 21 8 24 8 c 1,20,21
 24 7 24 7 24 4 c 1,22,23
 23 4 23 4 20 4 c 1,16,17
0 8 m 1,24,25
 0 9 0 9 0 12 c 1,26,27
 1 12 1 12 4 12 c 1,28,29
 4 11 4 11 4 8 c 1,30,31
 3 8 3 8 0 8 c 1,24,25
24 8 m 1,32,33
 24 11 24 11 24 20 c 1,34,35
 25 20 25 20 28 20 c 1,36,37
 28 17 28 17 28 8 c 1,38,39
 27 8 27 8 24 8 c 1,32,33
20 20 m 1,40,41
 20 21 20 21 20 24 c 1,42,43
 21 24 21 24 24 24 c 1,44,45
 24 23 24 23 24 20 c 1,46,47
 23 20 23 20 20 20 c 1,40,41
12 24 m 1,48,49
 12 25 12 25 12 28 c 1,50,51
 14 28 14 28 20 28 c 1,52,53
 20 27 20 27 20 24 c 1,54,55
 18 24 18 24 12 24 c 1,48,49
4 28 m 1,56,57
 4 29 4 29 4 32 c 1,58,59
 6 32 6 32 12 32 c 1,60,61
 12 31 12 31 12 28 c 1,62,63
 10 28 10 28 4 28 c 1,56,57
0 32 m 1,64,65
 0 35 0 35 0 44 c 1,66,67
 1 44 1 44 4 44 c 1,68,69
 4 41 4 41 4 32 c 1,70,71
 3 32 3 32 0 32 c 1,64,65
4 44 m 1,72,73
 4 45 4 45 4 48 c 1,74,75
 5 48 5 48 8 48 c 1,76,77
 8 47 8 47 8 44 c 1,78,79
 7 44 7 44 4 44 c 1,72,73
24 44 m 1,80,81
 24 45 24 45 24 48 c 1,82,83
 25 48 25 48 28 48 c 1,84,85
 28 47 28 47 28 44 c 1,86,87
 27 44 27 44 24 44 c 1,80,81
8 48 m 1,88,89
 8 49 8 49 8 52 c 1,90,91
 12 52 12 52 24 52 c 1,92,93
 24 51 24 51 24 48 c 1,94,95
 20 48 20 48 8 48 c 1,88,89
EndSplineSet
EndChar

StartChar: T
Encoding: 84 84 55
Width: 36
GlyphClass: 2
Flags: W
LayerCount: 2
Fore
SplineSet
12 0 m 1,0,1
 12 12 12 12 12 48 c 1,2,3
 9 48 9 48 0 48 c 1,4,5
 0 49 0 49 0 52 c 1,6,7
 7 52 7 52 28 52 c 1,8,9
 28 51 28 51 28 48 c 1,10,11
 25 48 25 48 16 48 c 1,12,13
 16 36 16 36 16 0 c 1,14,15
 15 0 15 0 12 0 c 1,0,1
EndSplineSet
EndChar

StartChar: U
Encoding: 85 85 56
Width: 36
GlyphClass: 2
Flags: W
LayerCount: 2
Fore
SplineSet
8 0 m 1,0,1
 8 1 8 1 8 4 c 1,2,3
 11 4 11 4 20 4 c 1,4,5
 20 3 20 3 20 0 c 1,6,7
 17 0 17 0 8 0 c 1,0,1
4 4 m 1,8,9
 4 5 4 5 4 8 c 1,10,11
 5 8 5 8 8 8 c 1,12,13
 8 7 8 7 8 4 c 1,14,15
 7 4 7 4 4 4 c 1,8,9
20 4 m 1,16,17
 20 5 20 5 20 8 c 1,18,19
 21 8 21 8 24 8 c 1,20,21
 24 7 24 7 24 4 c 1,22,23
 23 4 23 4 20 4 c 1,16,17
0 8 m 1,24,25
 0 19 0 19 0 52 c 1,26,27
 1 52 1 52 4 52 c 1,28,29
 4 41 4 41 4 8 c 1,30,31
 3 8 3 8 0 8 c 1,24,25
24 8 m 1,32,33
 24 19 24 19 24 52 c 1,34,35
 25 52 25 52 28 52 c 1,36,37
 28 41 28 41 28 8 c 1,38,39
 27 8 27 8 24 8 c 1,32,33
EndSplineSet
EndChar

StartChar: V
Encoding: 86 86 57
Width: 36
GlyphClass: 2
Flags: W
LayerCount: 2
Fore
SplineSet
12 0 m 1,0,1
 12 1 12 1 12 4 c 1,2,3
 13 4 13 4 16 4 c 1,4,5
 16 3 16 3 16 0 c 1,6,7
 15 0 15 0 12 0 c 1,0,1
8 4 m 1,8,9
 8 6 8 6 8 12 c 1,10,11
 9 12 9 12 12 12 c 1,12,13
 12 10 12 10 12 4 c 1,14,15
 11 4 11 4 8 4 c 1,8,9
16 4 m 1,16,17
 16 6 16 6 16 12 c 1,18,19
 17 12 17 12 20 12 c 1,20,21
 20 10 20 10 20 4 c 1,22,23
 19 4 19 4 16 4 c 1,16,17
4 12 m 1,24,25
 4 14 4 14 4 20 c 1,26,27
 5 20 5 20 8 20 c 1,28,29
 8 18 8 18 8 12 c 1,30,31
 7 12 7 12 4 12 c 1,24,25
20 12 m 1,32,33
 20 14 20 14 20 20 c 1,34,35
 21 20 21 20 24 20 c 1,36,37
 24 18 24 18 24 12 c 1,38,39
 23 12 23 12 20 12 c 1,32,33
0 20 m 1,40,41
 0 28 0 28 0 52 c 1,42,43
 1 52 1 52 4 52 c 1,44,45
 4 44 4 44 4 20 c 1,46,47
 3 20 3 20 0 20 c 1,40,41
24 20 m 1,48,49
 24 28 24 28 24 52 c 1,50,51
 25 52 25 52 28 52 c 1,52,53
 28 44 28 44 28 20 c 1,54,55
 27 20 27 20 24 20 c 1,48,49
EndSplineSet
EndChar

StartChar: W
Encoding: 87 87 58
Width: 52
GlyphClass: 2
Flags: W
LayerCount: 2
Fore
SplineSet
8 0 m 1,0,1
 8 1 8 1 8 4 c 1,2,3
 10 4 10 4 16 4 c 1,4,5
 16 3 16 3 16 0 c 1,6,7
 14 0 14 0 8 0 c 1,0,1
28 0 m 1,8,9
 28 1 28 1 28 4 c 1,10,11
 30 4 30 4 36 4 c 1,12,13
 36 3 36 3 36 0 c 1,14,15
 34 0 34 0 28 0 c 1,8,9
4 4 m 1,16,17
 4 6 4 6 4 12 c 1,18,19
 5 12 5 12 8 12 c 1,20,21
 8 10 8 10 8 4 c 1,22,23
 7 4 7 4 4 4 c 1,16,17
16 4 m 1,24,25
 16 6 16 6 16 12 c 1,26,27
 17 12 17 12 20 12 c 1,28,29
 20 10 20 10 20 4 c 1,30,31
 19 4 19 4 16 4 c 1,24,25
24 4 m 1,32,33
 24 6 24 6 24 12 c 1,34,35
 25 12 25 12 28 12 c 1,36,37
 28 10 28 10 28 4 c 1,38,39
 27 4 27 4 24 4 c 1,32,33
36 4 m 1,40,41
 36 6 36 6 36 12 c 1,42,43
 37 12 37 12 40 12 c 1,44,45
 40 10 40 10 40 4 c 1,46,47
 39 4 39 4 36 4 c 1,40,41
20 12 m 1,48,49
 20 20 20 20 20 44 c 1,50,51
 21 44 21 44 24 44 c 1,52,53
 24 36 24 36 24 12 c 1,54,55
 23 12 23 12 20 12 c 1,48,49
0 12 m 1,56,57
 0 22 0 22 0 52 c 1,58,59
 1 52 1 52 4 52 c 1,60,61
 4 42 4 42 4 12 c 1,62,63
 3 12 3 12 0 12 c 1,56,57
40 12 m 1,64,65
 40 22 40 22 40 52 c 1,66,67
 41 52 41 52 44 52 c 1,68,69
 44 42 44 42 44 12 c 1,70,71
 43 12 43 12 40 12 c 1,64,65
EndSplineSet
EndChar

StartChar: X
Encoding: 88 88 59
Width: 36
GlyphClass: 2
Flags: W
LayerCount: 2
Fore
SplineSet
0 0 m 1,0,1
 0 3 0 3 0 12 c 1,2,3
 1 12 1 12 4 12 c 1,4,5
 4 9 4 9 4 0 c 1,6,7
 3 0 3 0 0 0 c 1,0,1
24 0 m 1,8,9
 24 3 24 3 24 12 c 1,10,11
 25 12 25 12 28 12 c 1,12,13
 28 9 28 9 28 0 c 1,14,15
 27 0 27 0 24 0 c 1,8,9
4 12 m 1,16,17
 4 14 4 14 4 20 c 1,18,19
 5 20 5 20 8 20 c 1,20,21
 8 18 8 18 8 12 c 1,22,23
 7 12 7 12 4 12 c 1,16,17
20 12 m 1,24,25
 20 14 20 14 20 20 c 1,26,27
 21 20 21 20 24 20 c 1,28,29
 24 18 24 18 24 12 c 1,30,31
 23 12 23 12 20 12 c 1,24,25
8 20 m 1,32,33
 8 21 8 21 8 24 c 1,34,35
 9 24 9 24 12 24 c 1,36,37
 12 23 12 23 12 20 c 1,38,39
 11 20 11 20 8 20 c 1,32,33
16 20 m 1,40,41
 16 21 16 21 16 24 c 1,42,43
 17 24 17 24 20 24 c 1,44,45
 20 23 20 23 20 20 c 1,46,47
 19 20 19 20 16 20 c 1,40,41
12 24 m 1,48,49
 12 25 12 25 12 28 c 1,50,51
 13 28 13 28 16 28 c 1,52,53
 16 27 16 27 16 24 c 1,54,55
 15 24 15 24 12 24 c 1,48,49
8 28 m 1,56,57
 8 29 8 29 8 32 c 1,58,59
 9 32 9 32 12 32 c 1,60,61
 12 31 12 31 12 28 c 1,62,63
 11 28 11 28 8 28 c 1,56,57
16 28 m 1,64,65
 16 29 16 29 16 32 c 1,66,67
 17 32 17 32 20 32 c 1,68,69
 20 31 20 31 20 28 c 1,70,71
 19 28 19 28 16 28 c 1,64,65
4 32 m 1,72,73
 4 34 4 34 4 40 c 1,74,75
 5 40 5 40 8 40 c 1,76,77
 8 38 8 38 8 32 c 1,78,79
 7 32 7 32 4 32 c 1,72,73
20 32 m 1,80,81
 20 34 20 34 20 40 c 1,82,83
 21 40 21 40 24 40 c 1,84,85
 24 38 24 38 24 32 c 1,86,87
 23 32 23 32 20 32 c 1,80,81
0 40 m 1,88,89
 0 43 0 43 0 52 c 1,90,91
 1 52 1 52 4 52 c 1,92,93
 4 49 4 49 4 40 c 1,94,95
 3 40 3 40 0 40 c 1,88,89
24 40 m 1,96,97
 24 43 24 43 24 52 c 1,98,99
 25 52 25 52 28 52 c 1,100,101
 28 49 28 49 28 40 c 1,102,103
 27 40 27 40 24 40 c 1,96,97
EndSplineSet
EndChar

StartChar: Y
Encoding: 89 89 60
Width: 36
GlyphClass: 2
Flags: W
LayerCount: 2
Fore
SplineSet
12 0 m 1,0,1
 12 6 12 6 12 24 c 1,2,3
 13 24 13 24 16 24 c 1,4,5
 16 18 16 18 16 0 c 1,6,7
 15 0 15 0 12 0 c 1,0,1
8 24 m 1,8,9
 8 25 8 25 8 28 c 1,10,11
 9 28 9 28 12 28 c 1,12,13
 12 27 12 27 12 24 c 1,14,15
 11 24 11 24 8 24 c 1,8,9
16 24 m 1,16,17
 16 25 16 25 16 28 c 1,18,19
 17 28 17 28 20 28 c 1,20,21
 20 27 20 27 20 24 c 1,22,23
 19 24 19 24 16 24 c 1,16,17
4 28 m 1,24,25
 4 30 4 30 4 36 c 1,26,27
 5 36 5 36 8 36 c 1,28,29
 8 34 8 34 8 28 c 1,30,31
 7 28 7 28 4 28 c 1,24,25
20 28 m 1,32,33
 20 30 20 30 20 36 c 1,34,35
 21 36 21 36 24 36 c 1,36,37
 24 34 24 34 24 28 c 1,38,39
 23 28 23 28 20 28 c 1,32,33
0 36 m 1,40,41
 0 40 0 40 0 52 c 1,42,43
 1 52 1 52 4 52 c 1,44,45
 4 48 4 48 4 36 c 1,46,47
 3 36 3 36 0 36 c 1,40,41
24 36 m 1,48,49
 24 40 24 40 24 52 c 1,50,51
 25 52 25 52 28 52 c 1,52,53
 28 48 28 48 28 36 c 1,54,55
 27 36 27 36 24 36 c 1,48,49
EndSplineSet
EndChar

StartChar: Z
Encoding: 90 90 61
Width: 36
GlyphClass: 2
Flags: W
LayerCount: 2
Fore
SplineSet
0 0 m 1,0,1
 0 4 0 4 0 16 c 1,2,3
 1 16 1 16 4 16 c 1,4,5
 4 13 4 13 4 4 c 1,6,7
 10 4 10 4 28 4 c 1,8,9
 28 3 28 3 28 0 c 1,10,11
 21 0 21 0 0 0 c 1,0,1
4 16 m 1,12,13
 4 17 4 17 4 20 c 1,14,15
 5 20 5 20 8 20 c 1,16,17
 8 19 8 19 8 16 c 1,18,19
 7 16 7 16 4 16 c 1,12,13
8 20 m 1,20,21
 8 21 8 21 8 24 c 1,22,23
 9 24 9 24 12 24 c 1,24,25
 12 23 12 23 12 20 c 1,26,27
 11 20 11 20 8 20 c 1,20,21
12 24 m 1,28,29
 12 25 12 25 12 28 c 1,30,31
 13 28 13 28 16 28 c 1,32,33
 16 27 16 27 16 24 c 1,34,35
 15 24 15 24 12 24 c 1,28,29
16 28 m 1,36,37
 16 29 16 29 16 32 c 1,38,39
 17 32 17 32 20 32 c 1,40,41
 20 31 20 31 20 28 c 1,42,43
 19 28 19 28 16 28 c 1,36,37
20 32 m 1,44,45
 20 33 20 33 20 36 c 1,46,47
 21 36 21 36 24 36 c 1,48,49
 24 35 24 35 24 32 c 1,50,51
 23 32 23 32 20 32 c 1,44,45
24 36 m 1,52,53
 24 39 24 39 24 48 c 1,54,55
 18 48 18 48 0 48 c 1,56,57
 0 49 0 49 0 52 c 1,58,59
 7 52 7 52 28 52 c 1,60,61
 28 48 28 48 28 36 c 1,62,63
 27 36 27 36 24 36 c 1,52,53
EndSplineSet
EndChar

StartChar: bracketleft
Encoding: 91 91 62
Width: 24
GlyphClass: 2
Flags: W
LayerCount: 2
Fore
SplineSet
0 0 m 1,0,1
 0 13 0 13 0 52 c 1,2,3
 4 52 4 52 16 52 c 1,4,5
 16 51 16 51 16 48 c 1,6,7
 13 48 13 48 4 48 c 1,8,9
 4 37 4 37 4 4 c 1,10,11
 7 4 7 4 16 4 c 1,12,13
 16 3 16 3 16 0 c 1,14,15
 12 0 12 0 0 0 c 1,0,1
EndSplineSet
EndChar

StartChar: backslash
Encoding: 92 92 63
Width: 36
GlyphClass: 2
Flags: W
LayerCount: 2
Fore
SplineSet
24 0 m 1,0,1
 24 1 24 1 24 4 c 1,2,3
 25 4 25 4 28 4 c 1,4,5
 28 3 28 3 28 0 c 1,6,7
 27 0 27 0 24 0 c 1,0,1
20 4 m 1,8,9
 20 6 20 6 20 12 c 1,10,11
 21 12 21 12 24 12 c 1,12,13
 24 10 24 10 24 4 c 1,14,15
 23 4 23 4 20 4 c 1,8,9
16 12 m 1,16,17
 16 14 16 14 16 20 c 1,18,19
 17 20 17 20 20 20 c 1,20,21
 20 18 20 18 20 12 c 1,22,23
 19 12 19 12 16 12 c 1,16,17
12 20 m 1,24,25
 12 22 12 22 12 28 c 1,26,27
 13 28 13 28 16 28 c 1,28,29
 16 26 16 26 16 20 c 1,30,31
 15 20 15 20 12 20 c 1,24,25
8 28 m 1,32,33
 8 30 8 30 8 36 c 1,34,35
 9 36 9 36 12 36 c 1,36,37
 12 34 12 34 12 28 c 1,38,39
 11 28 11 28 8 28 c 1,32,33
4 36 m 1,40,41
 4 38 4 38 4 44 c 1,42,43
 5 44 5 44 8 44 c 1,44,45
 8 42 8 42 8 36 c 1,46,47
 7 36 7 36 4 36 c 1,40,41
0 44 m 1,48,49
 0 46 0 46 0 52 c 1,50,51
 1 52 1 52 4 52 c 1,52,53
 4 50 4 50 4 44 c 1,54,55
 3 44 3 44 0 44 c 1,48,49
EndSplineSet
EndChar

StartChar: bracketright
Encoding: 93 93 64
Width: 24
GlyphClass: 2
Flags: W
LayerCount: 2
Fore
SplineSet
0 0 m 1,0,1
 0 1 0 1 0 4 c 1,2,3
 3 4 3 4 12 4 c 1,4,5
 12 15 12 15 12 48 c 1,6,7
 9 48 9 48 0 48 c 1,8,9
 0 49 0 49 0 52 c 1,10,11
 4 52 4 52 16 52 c 1,12,13
 16 39 16 39 16 0 c 1,14,15
 12 0 12 0 0 0 c 1,0,1
EndSplineSet
EndChar

StartChar: asciicircum
Encoding: 94 94 65
Width: 36
GlyphClass: 2
Flags: W
LayerCount: 2
Fore
SplineSet
0 36 m 1,0,1
 0 37 0 37 0 40 c 1,2,3
 1 40 1 40 4 40 c 1,4,5
 4 39 4 39 4 36 c 1,6,7
 3 36 3 36 0 36 c 1,0,1
24 36 m 1,8,9
 24 37 24 37 24 40 c 1,10,11
 25 40 25 40 28 40 c 1,12,13
 28 39 28 39 28 36 c 1,14,15
 27 36 27 36 24 36 c 1,8,9
4 40 m 1,16,17
 4 41 4 41 4 44 c 1,18,19
 5 44 5 44 8 44 c 1,20,21
 8 43 8 43 8 40 c 1,22,23
 7 40 7 40 4 40 c 1,16,17
20 40 m 1,24,25
 20 41 20 41 20 44 c 1,26,27
 21 44 21 44 24 44 c 1,28,29
 24 43 24 43 24 40 c 1,30,31
 23 40 23 40 20 40 c 1,24,25
8 44 m 1,32,33
 8 45 8 45 8 48 c 1,34,35
 9 48 9 48 12 48 c 1,36,37
 12 47 12 47 12 44 c 1,38,39
 11 44 11 44 8 44 c 1,32,33
16 44 m 1,40,41
 16 45 16 45 16 48 c 1,42,43
 17 48 17 48 20 48 c 1,44,45
 20 47 20 47 20 44 c 1,46,47
 19 44 19 44 16 44 c 1,40,41
12 48 m 1,48,49
 12 49 12 49 12 52 c 1,50,51
 13 52 13 52 16 52 c 1,52,53
 16 51 16 51 16 48 c 1,54,55
 15 48 15 48 12 48 c 1,48,49
EndSplineSet
EndChar

StartChar: underscore
Encoding: 95 95 66
Width: 36
GlyphClass: 2
Flags: W
LayerCount: 2
Fore
SplineSet
0 0 m 1,0,1
 0 1 0 1 0 4 c 1,2,3
 9 4 9 4 36 4 c 1,4,5
 36 3 36 3 36 0 c 1,6,7
 27 0 27 0 0 0 c 1,0,1
EndSplineSet
EndChar

StartChar: grave
Encoding: 96 96 67
Width: 20
GlyphClass: 2
Flags: W
LayerCount: 2
Fore
SplineSet
8 40 m 1,0,1
 8 41 8 41 8 44 c 1,2,3
 9 44 9 44 12 44 c 1,4,5
 12 43 12 43 12 40 c 1,6,7
 11 40 11 40 8 40 c 1,0,1
4 44 m 1,8,9
 4 45 4 45 4 48 c 1,10,11
 5 48 5 48 8 48 c 1,12,13
 8 47 8 47 8 44 c 1,14,15
 7 44 7 44 4 44 c 1,8,9
0 48 m 1,16,17
 0 49 0 49 0 52 c 1,18,19
 1 52 1 52 4 52 c 1,20,21
 4 51 4 51 4 48 c 1,22,23
 3 48 3 48 0 48 c 1,16,17
EndSplineSet
EndChar

StartChar: a
Encoding: 97 97 68
Width: 35
GlyphClass: 2
Flags: W
LayerCount: 2
Fore
SplineSet
4 0 m 1,0,1
 4 1 4 1 4 4 c 1,2,3
 5 4 5 4 8 4 c 256,4,5
 11 4 11 4 20 4 c 1,6,7
 20 3 20 3 20 0 c 1,8,9
 16 0 16 0 4 0 c 1,0,1
0 4 m 1,10,11
 0 7 0 7 0 16 c 1,12,13
 1 16 1 16 4 16 c 1,14,15
 4 13 4 13 4 4 c 1,16,17
 3 4 3 4 0 4 c 1,10,11
4 16 m 1,18,19
 4 17 4 17 4 20 c 1,20,21
 5 20 5 20 8 20 c 1,22,23
 8 19 8 19 8 16 c 1,24,25
 7 16 7 16 4 16 c 1,18,19
0 28 m 1,26,27
 0 29 0 29 0 32 c 1,28,29
 1 32 1 32 4 32 c 1,30,31
 4 31 4 31 4 28 c 1,32,33
 3 28 3 28 0 28 c 1,26,27
4 32 m 1,34,35
 4 33 4 33 4 36 c 1,36,37
 5 36 5 36 8 36 c 1,38,39
 8 35 8 35 8 32 c 1,40,41
 7 32 7 32 4 32 c 1,34,35
24 0 m 1,42,43
 24 1 24 1 24 4 c 1,44,45
 23 4 23 4 20 4 c 1,46,47
 20 5 20 5 20 8 c 1,48,49
 21 8 21 8 24 8 c 1,50,51
 24 11 24 11 24 20 c 1,52,53
 20 20 20 20 8 20 c 1,54,55
 8 21 8 21 8 24 c 1,56,57
 12 24 12 24 24 24 c 1,58,59
 24 27 24 27 24 36 c 1,60,61
 25 36 25 36 28 36 c 1,62,63
 28 27 28 27 28 0 c 1,64,65
 27 0 27 0 24 0 c 1,42,43
8 36 m 1,66,67
 8 37 8 37 8 40 c 1,68,69
 12 40 12 40 24 40 c 1,70,71
 24 39 24 39 24 36 c 1,72,73
 20 36 20 36 8 36 c 1,66,67
EndSplineSet
EndChar

StartChar: b
Encoding: 98 98 69
Width: 36
GlyphClass: 2
Flags: W
LayerCount: 2
Fore
SplineSet
8 0 m 1,0,1
 8 1 8 1 8 4 c 1,2,3
 11 4 11 4 20 4 c 1,4,5
 20 3 20 3 20 0 c 1,6,7
 17 0 17 0 8 0 c 1,0,1
20 4 m 1,8,9
 20 5 20 5 20 8 c 1,10,11
 21 8 21 8 24 8 c 1,12,13
 24 7 24 7 24 4 c 1,14,15
 23 4 23 4 20 4 c 1,8,9
24 8 m 1,16,17
 24 14 24 14 24 32 c 1,18,19
 25 32 25 32 28 32 c 1,20,21
 28 26 28 26 28 8 c 1,22,23
 27 8 27 8 24 8 c 1,16,17
20 32 m 1,24,25
 20 33 20 33 20 36 c 1,26,27
 21 36 21 36 24 36 c 1,28,29
 24 35 24 35 24 32 c 1,30,31
 23 32 23 32 20 32 c 1,24,25
8 36 m 1,32,33
 8 37 8 37 8 40 c 1,34,35
 11 40 11 40 20 40 c 1,36,37
 20 39 20 39 20 36 c 1,38,39
 17 36 17 36 8 36 c 1,32,33
0 0 m 1,40,41
 0 13 0 13 0 52 c 1,42,43
 1 52 1 52 4 52 c 1,44,45
 4 48 4 48 4 36 c 1,46,47
 5 36 5 36 8 36 c 1,48,49
 8 35 8 35 8 32 c 1,50,51
 7 32 7 32 4 32 c 1,52,53
 4 26 4 26 4 8 c 1,54,55
 5 8 5 8 8 8 c 1,56,57
 8 7 8 7 8 4 c 1,58,59
 7 4 7 4 4 4 c 1,60,61
 4 3 4 3 4 0 c 1,62,63
 3 0 3 0 0 0 c 1,40,41
EndSplineSet
EndChar

StartChar: c
Encoding: 99 99 70
Width: 36
GlyphClass: 2
Flags: W
LayerCount: 2
Fore
SplineSet
8 0 m 1,0,1
 8 1 8 1 8 4 c 1,2,3
 11 4 11 4 20 4 c 1,4,5
 20 3 20 3 20 0 c 1,6,7
 17 0 17 0 8 0 c 1,0,1
4 4 m 1,8,9
 4 5 4 5 4 8 c 1,10,11
 5 8 5 8 8 8 c 1,12,13
 8 7 8 7 8 4 c 1,14,15
 7 4 7 4 4 4 c 1,8,9
20 4 m 1,16,17
 20 5 20 5 20 8 c 1,18,19
 21 8 21 8 24 8 c 1,20,21
 24 7 24 7 24 4 c 1,22,23
 23 4 23 4 20 4 c 1,16,17
24 8 m 1,24,25
 24 9 24 9 24 12 c 1,26,27
 25 12 25 12 28 12 c 1,28,29
 28 11 28 11 28 8 c 1,30,31
 27 8 27 8 24 8 c 1,24,25
0 8 m 1,32,33
 0 14 0 14 0 32 c 1,34,35
 1 32 1 32 4 32 c 1,36,37
 4 26 4 26 4 8 c 1,38,39
 3 8 3 8 0 8 c 1,32,33
24 28 m 1,40,41
 24 29 24 29 24 32 c 1,42,43
 25 32 25 32 28 32 c 1,44,45
 28 31 28 31 28 28 c 1,46,47
 27 28 27 28 24 28 c 1,40,41
4 32 m 1,48,49
 4 33 4 33 4 36 c 1,50,51
 5 36 5 36 8 36 c 1,52,53
 8 35 8 35 8 32 c 1,54,55
 7 32 7 32 4 32 c 1,48,49
20 32 m 1,56,57
 20 33 20 33 20 36 c 1,58,59
 21 36 21 36 24 36 c 1,60,61
 24 35 24 35 24 32 c 1,62,63
 23 32 23 32 20 32 c 1,56,57
8 36 m 1,64,65
 8 37 8 37 8 40 c 1,66,67
 11 40 11 40 20 40 c 1,68,69
 20 39 20 39 20 36 c 1,70,71
 17 36 17 36 8 36 c 1,64,65
EndSplineSet
EndChar

StartChar: d
Encoding: 100 100 71
Width: 36
GlyphClass: 2
Flags: W
LayerCount: 2
Fore
SplineSet
8 0 m 1,0,1
 8 1 8 1 8 4 c 1,2,3
 11 4 11 4 20 4 c 1,4,5
 20 3 20 3 20 0 c 1,6,7
 17 0 17 0 8 0 c 1,0,1
4 4 m 1,8,9
 4 5 4 5 4 8 c 1,10,11
 5 8 5 8 8 8 c 1,12,13
 8 7 8 7 8 4 c 1,14,15
 7 4 7 4 4 4 c 1,8,9
0 8 m 1,16,17
 0 14 0 14 0 32 c 1,18,19
 1 32 1 32 4 32 c 1,20,21
 4 26 4 26 4 8 c 1,22,23
 3 8 3 8 0 8 c 1,16,17
4 32 m 1,24,25
 4 33 4 33 4 36 c 1,26,27
 5 36 5 36 8 36 c 1,28,29
 8 35 8 35 8 32 c 1,30,31
 7 32 7 32 4 32 c 1,24,25
8 36 m 1,32,33
 8 37 8 37 8 40 c 1,34,35
 11 40 11 40 20 40 c 1,36,37
 20 39 20 39 20 36 c 1,38,39
 17 36 17 36 8 36 c 1,32,33
24 0 m 1,40,41
 24 1 24 1 24 4 c 1,42,43
 23 4 23 4 20 4 c 1,44,45
 20 5 20 5 20 8 c 1,46,47
 21 8 21 8 24 8 c 1,48,49
 24 14 24 14 24 32 c 1,50,51
 23 32 23 32 20 32 c 1,52,53
 20 33 20 33 20 36 c 1,54,55
 21 36 21 36 24 36 c 1,56,57
 24 40 24 40 24 52 c 1,58,59
 25 52 25 52 28 52 c 1,60,61
 28 39 28 39 28 0 c 1,62,63
 27 0 27 0 24 0 c 1,40,41
EndSplineSet
EndChar

StartChar: e
Encoding: 101 101 72
Width: 36
GlyphClass: 2
Flags: W
LayerCount: 2
Fore
SplineSet
8 0 m 1,0,1
 8 1 8 1 8 4 c 1,2,3
 11 4 11 4 20 4 c 1,4,5
 20 3 20 3 20 0 c 1,6,7
 17 0 17 0 8 0 c 1,0,1
4 4 m 1,8,9
 4 5 4 5 4 8 c 1,10,11
 5 8 5 8 8 8 c 1,12,13
 8 7 8 7 8 4 c 1,14,15
 7 4 7 4 4 4 c 1,8,9
20 4 m 1,16,17
 20 5 20 5 20 8 c 1,18,19
 21 8 21 8 24 8 c 1,20,21
 24 7 24 7 24 4 c 1,22,23
 23 4 23 4 20 4 c 1,16,17
24 8 m 1,24,25
 24 9 24 9 24 12 c 1,26,27
 25 12 25 12 28 12 c 1,28,29
 28 11 28 11 28 8 c 1,30,31
 27 8 27 8 24 8 c 1,24,25
0 8 m 1,32,33
 0 14 0 14 0 32 c 1,34,35
 1 32 1 32 4 32 c 1,36,37
 4 30 4 30 4 24 c 1,38,39
 9 24 9 24 24 24 c 1,40,41
 24 26 24 26 24 32 c 1,42,43
 25 32 25 32 28 32 c 1,44,45
 28 29 28 29 28 20 c 1,46,47
 22 20 22 20 4 20 c 1,48,49
 4 17 4 17 4 8 c 1,50,51
 3 8 3 8 0 8 c 1,32,33
4 32 m 1,52,53
 4 33 4 33 4 36 c 1,54,55
 5 36 5 36 8 36 c 1,56,57
 8 35 8 35 8 32 c 1,58,59
 7 32 7 32 4 32 c 1,52,53
20 32 m 1,60,61
 20 33 20 33 20 36 c 1,62,63
 21 36 21 36 24 36 c 1,64,65
 24 35 24 35 24 32 c 1,66,67
 23 32 23 32 20 32 c 1,60,61
8 36 m 1,68,69
 8 37 8 37 8 40 c 1,70,71
 11 40 11 40 20 40 c 1,72,73
 20 39 20 39 20 36 c 1,74,75
 17 36 17 36 8 36 c 1,68,69
EndSplineSet
EndChar

StartChar: f
Encoding: 102 102 73
Width: 32
GlyphClass: 2
Flags: W
LayerCount: 2
Fore
SplineSet
8 0 m 1,0,1
 8 7 8 7 8 28 c 1,2,3
 6 28 6 28 0 28 c 1,4,5
 0 29 0 29 0 32 c 1,6,7
 2 32 2 32 8 32 c 1,8,9
 8 36 8 36 8 48 c 1,10,11
 9 48 9 48 12 48 c 1,12,13
 12 44 12 44 12 32 c 1,14,15
 15 32 15 32 24 32 c 1,16,17
 24 31 24 31 24 28 c 1,18,19
 21 28 21 28 12 28 c 1,20,21
 12 21 12 21 12 0 c 1,22,23
 11 0 11 0 8 0 c 1,0,1
12 48 m 1,24,25
 12 49 12 49 12 52 c 1,26,27
 15 52 15 52 24 52 c 1,28,29
 24 51 24 51 24 48 c 1,30,31
 21 48 21 48 12 48 c 1,24,25
EndSplineSet
EndChar

StartChar: g
Encoding: 103 103 74
Width: 36
GlyphClass: 2
Flags: W
LayerCount: 2
Fore
SplineSet
8 -12 m 1,0,1
 8 -11 8 -11 8 -8 c 1,2,3
 11 -8 11 -8 20 -8 c 1,4,5
 20 -9 20 -9 20 -12 c 1,6,7
 17 -12 17 -12 8 -12 c 1,0,1
4 -8 m 1,8,9
 4 -7 4 -7 4 -4 c 1,10,11
 5 -4 5 -4 8 -4 c 1,12,13
 8 -5 8 -5 8 -8 c 1,14,15
 7 -8 7 -8 4 -8 c 1,8,9
20 -8 m 1,16,17
 20 -7 20 -7 20 -4 c 1,18,19
 21 -4 21 -4 24 -4 c 1,20,21
 24 -5 24 -5 24 -8 c 1,22,23
 23 -8 23 -8 20 -8 c 1,16,17
0 -4 m 1,24,25
 0 -3 0 -3 0 0 c 1,26,27
 1 0 1 0 4 0 c 1,28,29
 4 -1 4 -1 4 -4 c 1,30,31
 3 -4 3 -4 0 -4 c 1,24,25
8 8 m 1,32,33
 8 9 8 9 8 12 c 1,34,35
 11 12 11 12 20 12 c 1,36,37
 20 11 20 11 20 8 c 1,38,39
 17 8 17 8 8 8 c 1,32,33
4 12 m 1,40,41
 4 13 4 13 4 16 c 1,42,43
 5 16 5 16 8 16 c 1,44,45
 8 15 8 15 8 12 c 1,46,47
 7 12 7 12 4 12 c 1,40,41
0 16 m 1,48,49
 0 20 0 20 0 32 c 1,50,51
 1 32 1 32 4 32 c 1,52,53
 4 28 4 28 4 16 c 1,54,55
 3 16 3 16 0 16 c 1,48,49
4 32 m 1,56,57
 4 33 4 33 4 36 c 1,58,59
 5 36 5 36 8 36 c 1,60,61
 8 35 8 35 8 32 c 1,62,63
 7 32 7 32 4 32 c 1,56,57
8 36 m 1,64,65
 8 37 8 37 8 40 c 1,66,67
 11 40 11 40 20 40 c 1,68,69
 20 39 20 39 20 36 c 1,70,71
 17 36 17 36 8 36 c 1,64,65
24 -4 m 1,72,73
 24 0 24 0 24 12 c 1,74,75
 23 12 23 12 20 12 c 1,76,77
 20 13 20 13 20 16 c 1,78,79
 21 16 21 16 24 16 c 1,80,81
 24 20 24 20 24 32 c 1,82,83
 23 32 23 32 20 32 c 1,84,85
 20 33 20 33 20 36 c 1,86,87
 21 36 21 36 24 36 c 1,88,89
 24 37 24 37 24 40 c 1,90,91
 25 40 25 40 28 40 c 1,92,93
 28 29 28 29 28 -4 c 1,94,95
 27 -4 27 -4 24 -4 c 1,72,73
EndSplineSet
EndChar

StartChar: h
Encoding: 104 104 75
Width: 36
GlyphClass: 2
Flags: W
LayerCount: 2
Fore
SplineSet
24 0 m 1,0,1
 24 8 24 8 24 32 c 1,2,3
 25 32 25 32 28 32 c 1,4,5
 28 24 28 24 28 0 c 1,6,7
 27 0 27 0 24 0 c 1,0,1
20 32 m 1,8,9
 20 33 20 33 20 36 c 1,10,11
 21 36 21 36 24 36 c 1,12,13
 24 35 24 35 24 32 c 1,14,15
 23 32 23 32 20 32 c 1,8,9
8 36 m 1,16,17
 8 37 8 37 8 40 c 1,18,19
 11 40 11 40 20 40 c 1,20,21
 20 39 20 39 20 36 c 1,22,23
 17 36 17 36 8 36 c 1,16,17
0 0 m 1,24,25
 0 13 0 13 0 52 c 1,26,27
 1 52 1 52 4 52 c 1,28,29
 4 48 4 48 4 36 c 1,30,31
 5 36 5 36 8 36 c 1,32,33
 8 35 8 35 8 32 c 1,34,35
 7 32 7 32 4 32 c 1,36,37
 4 24 4 24 4 0 c 1,38,39
 3 0 3 0 0 0 c 1,24,25
EndSplineSet
EndChar

StartChar: i
Encoding: 105 105 76
Width: 12
GlyphClass: 2
Flags: W
LayerCount: 2
Fore
SplineSet
0 0 m 1,0,1
 0 10 0 10 0 40 c 1,2,3
 1 40 1 40 4 40 c 1,4,5
 4 30 4 30 4 0 c 1,6,7
 3 0 3 0 0 0 c 1,0,1
0 48 m 1,8,9
 0 49 0 49 0 52 c 1,10,11
 1 52 1 52 4 52 c 1,12,13
 4 51 4 51 4 48 c 1,14,15
 3 48 3 48 0 48 c 1,8,9
EndSplineSet
EndChar

StartChar: j
Encoding: 106 106 77
Width: 16
GlyphClass: 2
Flags: W
LayerCount: 2
Fore
SplineSet
-4 -12 m 1,0,1
 -4 -11 -4 -11 -4 -8 c 1,2,3
 -2 -8 -2 -8 4 -8 c 1,4,5
 4 -9 4 -9 4 -12 c 1,6,7
 2 -12 2 -12 -4 -12 c 1,0,1
-8 -8 m 1,8,9
 -8 -7 -8 -7 -8 -4 c 1,10,11
 -7 -4 -7 -4 -4 -4 c 1,12,13
 -4 -5 -4 -5 -4 -8 c 1,14,15
 -5 -8 -5 -8 -8 -8 c 1,8,9
4 -8 m 1,16,17
 4 4 4 4 4 40 c 1,18,19
 5 40 5 40 8 40 c 1,20,21
 8 28 8 28 8 -8 c 1,22,23
 7 -8 7 -8 4 -8 c 1,16,17
4 48 m 1,24,25
 4 49 4 49 4 52 c 1,26,27
 5 52 5 52 8 52 c 1,28,29
 8 51 8 51 8 48 c 1,30,31
 7 48 7 48 4 48 c 1,24,25
EndSplineSet
EndChar

StartChar: k
Encoding: 107 107 78
Width: 36
GlyphClass: 2
Flags: W
LayerCount: 2
Fore
SplineSet
24 0 m 1,0,1
 24 2 24 2 24 8 c 1,2,3
 25 8 25 8 28 8 c 1,4,5
 28 6 28 6 28 0 c 1,6,7
 27 0 27 0 24 0 c 1,0,1
20 8 m 1,8,9
 20 9 20 9 20 12 c 1,10,11
 21 12 21 12 24 12 c 1,12,13
 24 11 24 11 24 8 c 1,14,15
 23 8 23 8 20 8 c 1,8,9
16 12 m 1,16,17
 16 13 16 13 16 16 c 1,18,19
 17 16 17 16 20 16 c 1,20,21
 20 15 20 15 20 12 c 1,22,23
 19 12 19 12 16 12 c 1,16,17
12 16 m 1,24,25
 12 17 12 17 12 20 c 1,26,27
 13 20 13 20 16 20 c 1,28,29
 16 19 16 19 16 16 c 1,30,31
 15 16 15 16 12 16 c 1,24,25
12 24 m 1,32,33
 12 25 12 25 12 28 c 1,34,35
 13 28 13 28 16 28 c 1,36,37
 16 27 16 27 16 24 c 1,38,39
 15 24 15 24 12 24 c 1,32,33
16 28 m 1,40,41
 16 29 16 29 16 32 c 1,42,43
 17 32 17 32 20 32 c 1,44,45
 20 31 20 31 20 28 c 1,46,47
 19 28 19 28 16 28 c 1,40,41
20 32 m 1,48,49
 20 33 20 33 20 36 c 1,50,51
 21 36 21 36 24 36 c 1,52,53
 24 35 24 35 24 32 c 1,54,55
 23 32 23 32 20 32 c 1,48,49
24 36 m 1,56,57
 24 37 24 37 24 40 c 1,58,59
 25 40 25 40 28 40 c 1,60,61
 28 39 28 39 28 36 c 1,62,63
 27 36 27 36 24 36 c 1,56,57
0 0 m 1,64,65
 0 13 0 13 0 52 c 1,66,67
 1 52 1 52 4 52 c 1,68,69
 4 45 4 45 4 24 c 1,70,71
 6 24 6 24 12 24 c 1,72,73
 12 23 12 23 12 20 c 1,74,75
 10 20 10 20 4 20 c 1,76,77
 4 15 4 15 4 0 c 1,78,79
 3 0 3 0 0 0 c 1,64,65
EndSplineSet
EndChar

StartChar: l
Encoding: 108 108 79
Width: 20
GlyphClass: 2
Flags: W
LayerCount: 2
Fore
SplineSet
4 0 m 1,0,1
 4 1 4 1 4 4 c 1,2,3
 6 4 6 4 12 4 c 1,4,5
 12 3 12 3 12 0 c 1,6,7
 10 0 10 0 4 0 c 1,0,1
0 4 m 1,8,9
 0 12 0 12 0 23 c 256,10,11
 0 34 0 34 0 52 c 1,12,13
 2 52 2 52 2 52 c 257,14,15
 2 52 2 52 4 52 c 1,16,17
 4 36 4 36 4 4 c 1,18,19
 3 4 3 4 0 4 c 1,8,9
EndSplineSet
EndChar

StartChar: m
Encoding: 109 109 80
Width: 52
GlyphClass: 2
Flags: W
LayerCount: 2
Fore
SplineSet
20 12 m 1,0,1
 20 17 20 17 20 32 c 1,2,3
 21 32 21 32 24 32 c 1,4,5
 24 27 24 27 24 12 c 1,6,7
 23 12 23 12 20 12 c 1,0,1
40 0 m 1,8,9
 40 8 40 8 40 32 c 1,10,11
 41 32 41 32 44 32 c 1,12,13
 44 24 44 24 44 0 c 1,14,15
 43 0 43 0 40 0 c 1,8,9
16 32 m 1,16,17
 16 33 16 33 16 36 c 1,18,19
 17 36 17 36 20 36 c 1,20,21
 20 35 20 35 20 32 c 1,22,23
 19 32 19 32 16 32 c 1,16,17
24 32 m 1,24,25
 24 33 24 33 24 36 c 1,26,27
 25 36 25 36 28 36 c 1,28,29
 28 35 28 35 28 32 c 1,30,31
 27 32 27 32 24 32 c 1,24,25
36 32 m 1,32,33
 36 33 36 33 36 36 c 1,34,35
 37 36 37 36 40 36 c 1,36,37
 40 35 40 35 40 32 c 1,38,39
 39 32 39 32 36 32 c 1,32,33
0 0 m 1,40,41
 0 10 0 10 0 40 c 1,42,43
 1 40 1 40 4 40 c 1,44,45
 4 39 4 39 4 36 c 1,46,47
 5 36 5 36 8 36 c 1,48,49
 8 35 8 35 8 32 c 1,50,51
 7 32 7 32 4 32 c 1,52,53
 4 24 4 24 4 0 c 1,54,55
 3 0 3 0 0 0 c 1,40,41
8 36 m 1,56,57
 8 37 8 37 8 40 c 1,58,59
 10 40 10 40 16 40 c 1,60,61
 16 39 16 39 16 36 c 1,62,63
 14 36 14 36 8 36 c 1,56,57
28 36 m 1,64,65
 28 37 28 37 28 40 c 1,66,67
 30 40 30 40 36 40 c 1,68,69
 36 39 36 39 36 36 c 1,70,71
 34 36 34 36 28 36 c 1,64,65
EndSplineSet
EndChar

StartChar: n
Encoding: 110 110 81
Width: 36
GlyphClass: 2
Flags: W
LayerCount: 2
Fore
SplineSet
24 0 m 1,0,1
 24 8 24 8 24 32 c 1,2,3
 25 32 25 32 28 32 c 1,4,5
 28 24 28 24 28 0 c 1,6,7
 27 0 27 0 24 0 c 1,0,1
20 32 m 1,8,9
 20 33 20 33 20 36 c 1,10,11
 21 36 21 36 24 36 c 1,12,13
 24 35 24 35 24 32 c 1,14,15
 23 32 23 32 20 32 c 1,8,9
0 0 m 1,16,17
 0 10 0 10 0 40 c 1,18,19
 1 40 1 40 4 40 c 1,20,21
 4 39 4 39 4 36 c 1,22,23
 5 36 5 36 8 36 c 1,24,25
 8 35 8 35 8 32 c 1,26,27
 7 32 7 32 4 32 c 1,28,29
 4 24 4 24 4 0 c 1,30,31
 3 0 3 0 0 0 c 1,16,17
8 36 m 1,32,33
 8 37 8 37 8 40 c 1,34,35
 11 40 11 40 20 40 c 1,36,37
 20 39 20 39 20 36 c 1,38,39
 17 36 17 36 8 36 c 1,32,33
EndSplineSet
EndChar

StartChar: o
Encoding: 111 111 82
Width: 36
GlyphClass: 2
Flags: W
LayerCount: 2
Fore
SplineSet
8 0 m 1,0,1
 8 1 8 1 8 4 c 1,2,3
 11 4 11 4 20 4 c 1,4,5
 20 3 20 3 20 0 c 1,6,7
 17 0 17 0 8 0 c 1,0,1
4 4 m 1,8,9
 4 5 4 5 4 8 c 1,10,11
 5 8 5 8 8 8 c 1,12,13
 8 7 8 7 8 4 c 1,14,15
 7 4 7 4 4 4 c 1,8,9
20 4 m 1,16,17
 20 5 20 5 20 8 c 1,18,19
 21 8 21 8 24 8 c 1,20,21
 24 7 24 7 24 4 c 1,22,23
 23 4 23 4 20 4 c 1,16,17
0 8 m 1,24,25
 0 14 0 14 0 32 c 1,26,27
 1 32 1 32 4 32 c 1,28,29
 4 26 4 26 4 8 c 1,30,31
 3 8 3 8 0 8 c 1,24,25
24 8 m 1,32,33
 24 14 24 14 24 32 c 1,34,35
 25 32 25 32 28 32 c 1,36,37
 28 26 28 26 28 8 c 1,38,39
 27 8 27 8 24 8 c 1,32,33
4 32 m 1,40,41
 4 33 4 33 4 36 c 1,42,43
 5 36 5 36 8 36 c 1,44,45
 8 35 8 35 8 32 c 1,46,47
 7 32 7 32 4 32 c 1,40,41
20 32 m 1,48,49
 20 33 20 33 20 36 c 1,50,51
 21 36 21 36 24 36 c 1,52,53
 24 35 24 35 24 32 c 1,54,55
 23 32 23 32 20 32 c 1,48,49
8 36 m 1,56,57
 8 37 8 37 8 40 c 1,58,59
 11 40 11 40 20 40 c 1,60,61
 20 39 20 39 20 36 c 1,62,63
 17 36 17 36 8 36 c 1,56,57
EndSplineSet
EndChar

StartChar: p
Encoding: 112 112 83
Width: 36
GlyphClass: 2
Flags: W
LayerCount: 2
Fore
SplineSet
8 0 m 1,0,1
 8 1 8 1 8 4 c 1,2,3
 11 4 11 4 20 4 c 1,4,5
 20 3 20 3 20 0 c 1,6,7
 17 0 17 0 8 0 c 1,0,1
20 4 m 1,8,9
 20 5 20 5 20 8 c 1,10,11
 21 8 21 8 24 8 c 1,12,13
 24 7 24 7 24 4 c 1,14,15
 23 4 23 4 20 4 c 1,8,9
24 8 m 1,16,17
 24 14 24 14 24 32 c 1,18,19
 25 32 25 32 28 32 c 1,20,21
 28 26 28 26 28 8 c 1,22,23
 27 8 27 8 24 8 c 1,16,17
20 32 m 1,24,25
 20 33 20 33 20 36 c 1,26,27
 21 36 21 36 24 36 c 1,28,29
 24 35 24 35 24 32 c 1,30,31
 23 32 23 32 20 32 c 1,24,25
0 -12 m 1,32,33
 0 1 0 1 0 40 c 1,34,35
 1 40 1 40 4 40 c 1,36,37
 4 39 4 39 4 36 c 1,38,39
 5 36 5 36 8 36 c 1,40,41
 8 35 8 35 8 32 c 1,42,43
 7 32 7 32 4 32 c 1,44,45
 4 26 4 26 4 8 c 1,46,47
 5 8 5 8 8 8 c 1,48,49
 8 7 8 7 8 4 c 1,50,51
 7 4 7 4 4 4 c 1,52,53
 4 0 4 0 4 -12 c 1,54,55
 3 -12 3 -12 0 -12 c 1,32,33
8 36 m 1,56,57
 8 37 8 37 8 40 c 1,58,59
 11 40 11 40 20 40 c 1,60,61
 20 39 20 39 20 36 c 1,62,63
 17 36 17 36 8 36 c 1,56,57
EndSplineSet
EndChar

StartChar: q
Encoding: 113 113 84
Width: 36
GlyphClass: 2
Flags: W
LayerCount: 2
Fore
SplineSet
8 0 m 1,0,1
 8 1 8 1 8 4 c 1,2,3
 11 4 11 4 20 4 c 1,4,5
 20 3 20 3 20 0 c 1,6,7
 17 0 17 0 8 0 c 1,0,1
4 4 m 1,8,9
 4 5 4 5 4 8 c 1,10,11
 5 8 5 8 8 8 c 1,12,13
 8 7 8 7 8 4 c 1,14,15
 7 4 7 4 4 4 c 1,8,9
0 8 m 1,16,17
 0 14 0 14 0 32 c 1,18,19
 1 32 1 32 4 32 c 1,20,21
 4 26 4 26 4 8 c 1,22,23
 3 8 3 8 0 8 c 1,16,17
4 32 m 1,24,25
 4 33 4 33 4 36 c 1,26,27
 5 36 5 36 8 36 c 1,28,29
 8 35 8 35 8 32 c 1,30,31
 7 32 7 32 4 32 c 1,24,25
8 36 m 1,32,33
 8 37 8 37 8 40 c 1,34,35
 11 40 11 40 20 40 c 1,36,37
 20 39 20 39 20 36 c 1,38,39
 17 36 17 36 8 36 c 1,32,33
24 -12 m 1,40,41
 24 -8 24 -8 24 4 c 1,42,43
 23 4 23 4 20 4 c 1,44,45
 20 5 20 5 20 8 c 1,46,47
 21 8 21 8 24 8 c 1,48,49
 24 14 24 14 24 32 c 1,50,51
 23 32 23 32 20 32 c 1,52,53
 20 33 20 33 20 36 c 1,54,55
 21 36 21 36 24 36 c 1,56,57
 24 37 24 37 24 40 c 1,58,59
 25 40 25 40 28 40 c 1,60,61
 28 27 28 27 28 -12 c 1,62,63
 27 -12 27 -12 24 -12 c 1,40,41
EndSplineSet
EndChar

StartChar: r
Encoding: 114 114 85
Width: 28
GlyphClass: 2
Flags: W
LayerCount: 2
Fore
SplineSet
8 32 m 1,0,1
 8 33 8 33 8 36 c 1,2,3
 9 36 9 36 12 36 c 1,4,5
 12 35 12 35 12 32 c 1,6,7
 11 32 11 32 8 32 c 1,0,1
0 0 m 1,8,9
 0 10 0 10 0 40 c 1,10,11
 1 40 1 40 4 40 c 1,12,13
 4 38 4 38 4 32 c 1,14,15
 5 32 5 32 8 32 c 1,16,17
 8 31 8 31 8 28 c 1,18,19
 7 28 7 28 4 28 c 1,20,21
 4 21 4 21 4 0 c 1,22,23
 3 0 3 0 0 0 c 1,8,9
12 36 m 1,24,25
 12 37 12 37 12 40 c 1,26,27
 14 40 14 40 20 40 c 1,28,29
 20 39 20 39 20 36 c 1,30,31
 18 36 18 36 12 36 c 1,24,25
EndSplineSet
EndChar

StartChar: s
Encoding: 115 115 86
Width: 36
GlyphClass: 2
Flags: W
LayerCount: 2
Fore
SplineSet
8 0 m 1,0,1
 8 1 8 1 8 4 c 1,2,3
 11 4 11 4 20 4 c 1,4,5
 20 3 20 3 20 0 c 1,6,7
 17 0 17 0 8 0 c 1,0,1
4 4 m 1,8,9
 4 5 4 5 4 8 c 1,10,11
 5 8 5 8 8 8 c 1,12,13
 8 7 8 7 8 4 c 1,14,15
 7 4 7 4 4 4 c 1,8,9
20 4 m 1,16,17
 20 5 20 5 20 8 c 1,18,19
 21 8 21 8 24 8 c 1,20,21
 24 7 24 7 24 4 c 1,22,23
 23 4 23 4 20 4 c 1,16,17
0 8 m 1,24,25
 0 9 0 9 0 12 c 1,26,27
 1 12 1 12 4 12 c 1,28,29
 4 11 4 11 4 8 c 1,30,31
 3 8 3 8 0 8 c 1,24,25
24 8 m 1,32,33
 24 10 24 10 24 16 c 1,34,35
 25 16 25 16 28 16 c 1,36,37
 28 14 28 14 28 8 c 1,38,39
 27 8 27 8 24 8 c 1,32,33
20 16 m 1,40,41
 20 17 20 17 20 20 c 1,42,43
 21 20 21 20 24 20 c 1,44,45
 24 19 24 19 24 16 c 1,46,47
 23 16 23 16 20 16 c 1,40,41
8 20 m 1,48,49
 8 21 8 21 8 24 c 1,50,51
 11 24 11 24 20 24 c 1,52,53
 20 23 20 23 20 20 c 1,54,55
 17 20 17 20 8 20 c 1,48,49
4 24 m 1,56,57
 4 25 4 25 4 28 c 1,58,59
 5 28 5 28 8 28 c 1,60,61
 8 27 8 27 8 24 c 1,62,63
 7 24 7 24 4 24 c 1,56,57
0 28 m 1,64,65
 0 29 0 29 0 32 c 1,66,67
 1 32 1 32 4 32 c 1,68,69
 4 31 4 31 4 28 c 1,70,71
 3 28 3 28 0 28 c 1,64,65
24 28 m 1,72,73
 24 29 24 29 24 32 c 1,74,75
 25 32 25 32 28 32 c 1,76,77
 28 31 28 31 28 28 c 1,78,79
 27 28 27 28 24 28 c 1,72,73
4 32 m 1,80,81
 4 33 4 33 4 36 c 1,82,83
 5 36 5 36 8 36 c 1,84,85
 8 35 8 35 8 32 c 1,86,87
 7 32 7 32 4 32 c 1,80,81
20 32 m 1,88,89
 20 33 20 33 20 36 c 1,90,91
 21 36 21 36 24 36 c 1,92,93
 24 35 24 35 24 32 c 1,94,95
 23 32 23 32 20 32 c 1,88,89
8 36 m 1,96,97
 8 37 8 37 8 40 c 1,98,99
 11 40 11 40 20 40 c 1,100,101
 20 39 20 39 20 36 c 1,102,103
 17 36 17 36 8 36 c 1,96,97
EndSplineSet
EndChar

StartChar: t
Encoding: 116 116 87
Width: 32
GlyphClass: 2
Flags: W
LayerCount: 2
Fore
SplineSet
8 0 m 1,0,1
 8 1 8 1 8 4 c 1,2,3
 12 4 12 4 24 4 c 1,4,5
 24 3 24 3 24 0 c 1,6,7
 20 0 20 0 8 0 c 1,0,1
4 4 m 1,8,9
 4 12 4 12 4 36 c 1,10,11
 2 36 2 36 -4 36 c 1,12,13
 -4 37 -4 37 -4 40 c 1,14,15
 -2 40 -2 40 4 40 c 1,16,17
 4 43 4 43 4 52 c 1,18,19
 5 52 5 52 8 52 c 1,20,21
 8 49 8 49 8 40 c 1,22,23
 12 40 12 40 24 40 c 1,24,25
 24 39 24 39 24 36 c 1,26,27
 20 36 20 36 8 36 c 1,28,29
 8 28 8 28 8 4 c 1,30,31
 7 4 7 4 4 4 c 1,8,9
EndSplineSet
EndChar

StartChar: u
Encoding: 117 117 88
Width: 36
GlyphClass: 2
Flags: W
LayerCount: 2
Fore
SplineSet
8 0 m 1,0,1
 8 1 8 1 8 4 c 1,2,3
 11 4 11 4 20 4 c 1,4,5
 20 3 20 3 20 0 c 1,6,7
 17 0 17 0 8 0 c 1,0,1
4 4 m 1,8,9
 4 5 4 5 4 8 c 1,10,11
 5 8 5 8 8 8 c 1,12,13
 8 7 8 7 8 4 c 1,14,15
 7 4 7 4 4 4 c 1,8,9
20 4 m 1,16,17
 20 5 20 5 20 8 c 1,18,19
 21 8 21 8 24 8 c 1,20,21
 24 7 24 7 24 4 c 1,22,23
 23 4 23 4 20 4 c 1,16,17
0 8 m 1,24,25
 0 16 0 16 0 40 c 1,26,27
 1 40 1 40 4 40 c 1,28,29
 4 32 4 32 4 8 c 1,30,31
 3 8 3 8 0 8 c 1,24,25
24 8 m 1,32,33
 24 16 24 16 24 40 c 1,34,35
 25 40 25 40 28 40 c 1,36,37
 28 32 28 32 28 8 c 1,38,39
 27 8 27 8 24 8 c 1,32,33
EndSplineSet
EndChar

StartChar: v
Encoding: 118 118 89
Width: 36
GlyphClass: 2
Flags: W
LayerCount: 2
Fore
SplineSet
12 0 m 1,0,1
 12 1 12 1 12 4 c 1,2,3
 13 4 13 4 16 4 c 1,4,5
 16 3 16 3 16 0 c 1,6,7
 15 0 15 0 12 0 c 1,0,1
8 4 m 1,8,9
 8 6 8 6 8 12 c 1,10,11
 9 12 9 12 12 12 c 1,12,13
 12 10 12 10 12 4 c 1,14,15
 11 4 11 4 8 4 c 1,8,9
16 4 m 1,16,17
 16 6 16 6 16 12 c 1,18,19
 17 12 17 12 20 12 c 1,20,21
 20 10 20 10 20 4 c 1,22,23
 19 4 19 4 16 4 c 1,16,17
4 12 m 1,24,25
 4 14 4 14 4 20 c 1,26,27
 5 20 5 20 8 20 c 1,28,29
 8 18 8 18 8 12 c 1,30,31
 7 12 7 12 4 12 c 1,24,25
20 12 m 1,32,33
 20 14 20 14 20 20 c 1,34,35
 21 20 21 20 24 20 c 1,36,37
 24 18 24 18 24 12 c 1,38,39
 23 12 23 12 20 12 c 1,32,33
0 20 m 1,40,41
 0 25 0 25 0 40 c 1,42,43
 1 40 1 40 4 40 c 1,44,45
 4 35 4 35 4 20 c 1,46,47
 3 20 3 20 0 20 c 1,40,41
24 20 m 1,48,49
 24 25 24 25 24 40 c 1,50,51
 25 40 25 40 28 40 c 1,52,53
 28 35 28 35 28 20 c 1,54,55
 27 20 27 20 24 20 c 1,48,49
EndSplineSet
EndChar

StartChar: w
Encoding: 119 119 90
Width: 52
GlyphClass: 2
Flags: W
LayerCount: 2
Fore
SplineSet
8 0 m 1,0,1
 8 1 8 1 8 4 c 1,2,3
 10 4 10 4 16 4 c 1,4,5
 16 3 16 3 16 0 c 1,6,7
 14 0 14 0 8 0 c 1,0,1
28 0 m 1,8,9
 28 1 28 1 28 4 c 1,10,11
 30 4 30 4 36 4 c 1,12,13
 36 3 36 3 36 0 c 1,14,15
 34 0 34 0 28 0 c 1,8,9
4 4 m 1,16,17
 4 6 4 6 4 12 c 1,18,19
 5 12 5 12 8 12 c 1,20,21
 8 10 8 10 8 4 c 1,22,23
 7 4 7 4 4 4 c 1,16,17
16 4 m 1,24,25
 16 6 16 6 16 12 c 1,26,27
 17 12 17 12 20 12 c 1,28,29
 20 10 20 10 20 4 c 1,30,31
 19 4 19 4 16 4 c 1,24,25
24 4 m 1,32,33
 24 6 24 6 24 12 c 1,34,35
 25 12 25 12 28 12 c 1,36,37
 28 10 28 10 28 4 c 1,38,39
 27 4 27 4 24 4 c 1,32,33
36 4 m 1,40,41
 36 6 36 6 36 12 c 1,42,43
 37 12 37 12 40 12 c 1,44,45
 40 10 40 10 40 4 c 1,46,47
 39 4 39 4 36 4 c 1,40,41
20 12 m 1,48,49
 20 17 20 17 20 32 c 1,50,51
 21 32 21 32 24 32 c 1,52,53
 24 27 24 27 24 12 c 1,54,55
 23 12 23 12 20 12 c 1,48,49
0 12 m 1,56,57
 0 19 0 19 0 40 c 1,58,59
 1 40 1 40 4 40 c 1,60,61
 4 33 4 33 4 12 c 1,62,63
 3 12 3 12 0 12 c 1,56,57
40 12 m 1,64,65
 40 19 40 19 40 40 c 1,66,67
 41 40 41 40 44 40 c 1,68,69
 44 33 44 33 44 12 c 1,70,71
 43 12 43 12 40 12 c 1,64,65
EndSplineSet
EndChar

StartChar: x
Encoding: 120 120 91
Width: 36
GlyphClass: 2
Flags: W
LayerCount: 2
Fore
SplineSet
0 0 m 1,0,1
 0 2 0 2 0 8 c 1,2,3
 1 8 1 8 4 8 c 1,4,5
 4 6 4 6 4 0 c 1,6,7
 3 0 3 0 0 0 c 1,0,1
24 0 m 1,8,9
 24 2 24 2 24 8 c 1,10,11
 25 8 25 8 28 8 c 1,12,13
 28 6 28 6 28 0 c 1,14,15
 27 0 27 0 24 0 c 1,8,9
4 8 m 1,16,17
 4 10 4 10 4 16 c 1,18,19
 5 16 5 16 8 16 c 1,20,21
 8 14 8 14 8 8 c 1,22,23
 7 8 7 8 4 8 c 1,16,17
20 8 m 1,24,25
 20 10 20 10 20 16 c 1,26,27
 21 16 21 16 24 16 c 1,28,29
 24 14 24 14 24 8 c 1,30,31
 23 8 23 8 20 8 c 1,24,25
8 16 m 1,32,33
 8 17 8 17 8 20 c 1,34,35
 9 20 9 20 12 20 c 1,36,37
 12 19 12 19 12 16 c 1,38,39
 11 16 11 16 8 16 c 1,32,33
16 16 m 1,40,41
 16 17 16 17 16 20 c 1,42,43
 17 20 17 20 20 20 c 1,44,45
 20 19 20 19 20 16 c 1,46,47
 19 16 19 16 16 16 c 1,40,41
12 20 m 1,48,49
 12 21 12 21 12 24 c 1,50,51
 13 24 13 24 16 24 c 1,52,53
 16 23 16 23 16 20 c 1,54,55
 15 20 15 20 12 20 c 1,48,49
8 24 m 1,56,57
 8 25 8 25 8 28 c 1,58,59
 9 28 9 28 12 28 c 1,60,61
 12 27 12 27 12 24 c 1,62,63
 11 24 11 24 8 24 c 1,56,57
16 24 m 1,64,65
 16 25 16 25 16 28 c 1,66,67
 17 28 17 28 20 28 c 1,68,69
 20 27 20 27 20 24 c 1,70,71
 19 24 19 24 16 24 c 1,64,65
4 28 m 1,72,73
 4 29 4 29 4 32 c 1,74,75
 5 32 5 32 8 32 c 1,76,77
 8 31 8 31 8 28 c 1,78,79
 7 28 7 28 4 28 c 1,72,73
20 28 m 1,80,81
 20 29 20 29 20 32 c 1,82,83
 21 32 21 32 24 32 c 1,84,85
 24 31 24 31 24 28 c 1,86,87
 23 28 23 28 20 28 c 1,80,81
0 32 m 1,88,89
 0 34 0 34 0 40 c 1,90,91
 1 40 1 40 4 40 c 1,92,93
 4 38 4 38 4 32 c 1,94,95
 3 32 3 32 0 32 c 1,88,89
24 32 m 1,96,97
 24 34 24 34 24 40 c 1,98,99
 25 40 25 40 28 40 c 1,100,101
 28 38 28 38 28 32 c 1,102,103
 27 32 27 32 24 32 c 1,96,97
EndSplineSet
EndChar

StartChar: y
Encoding: 121 121 92
Width: 36
GlyphClass: 2
Flags: W
LayerCount: 2
Fore
SplineSet
8 -12 m 1,0,1
 8 -11 8 -11 8 -8 c 1,2,3
 11 -8 11 -8 20 -8 c 1,4,5
 20 -9 20 -9 20 -12 c 1,6,7
 17 -12 17 -12 8 -12 c 1,0,1
4 -8 m 1,8,9
 4 -7 4 -7 4 -4 c 1,10,11
 5 -4 5 -4 8 -4 c 1,12,13
 8 -5 8 -5 8 -8 c 1,14,15
 7 -8 7 -8 4 -8 c 1,8,9
20 -8 m 1,16,17
 20 -7 20 -7 20 -4 c 1,18,19
 21 -4 21 -4 24 -4 c 1,20,21
 24 -5 24 -5 24 -8 c 1,22,23
 23 -8 23 -8 20 -8 c 1,16,17
0 -4 m 1,24,25
 0 -3 0 -3 0 0 c 1,26,27
 1 0 1 0 4 0 c 1,28,29
 4 -1 4 -1 4 -4 c 1,30,31
 3 -4 3 -4 0 -4 c 1,24,25
8 8 m 1,32,33
 8 9 8 9 8 12 c 1,34,35
 11 12 11 12 20 12 c 1,36,37
 20 11 20 11 20 8 c 1,38,39
 17 8 17 8 8 8 c 1,32,33
4 12 m 1,40,41
 4 13 4 13 4 16 c 1,42,43
 5 16 5 16 8 16 c 1,44,45
 8 15 8 15 8 12 c 1,46,47
 7 12 7 12 4 12 c 1,40,41
0 16 m 1,48,49
 0 22 0 22 0 40 c 1,50,51
 1 40 1 40 4 40 c 1,52,53
 4 34 4 34 4 16 c 1,54,55
 3 16 3 16 0 16 c 1,48,49
24 -4 m 1,56,57
 24 0 24 0 24 12 c 1,58,59
 23 12 23 12 20 12 c 1,60,61
 20 13 20 13 20 16 c 1,62,63
 21 16 21 16 24 16 c 1,64,65
 24 22 24 22 24 40 c 1,66,67
 25 40 25 40 28 40 c 1,68,69
 28 29 28 29 28 -4 c 1,70,71
 27 -4 27 -4 24 -4 c 1,56,57
EndSplineSet
EndChar

StartChar: z
Encoding: 122 122 93
Width: 36
GlyphClass: 2
Flags: W
LayerCount: 2
Fore
SplineSet
0 0 m 1,0,1
 0 3 0 3 0 12 c 1,2,3
 1 12 1 12 4 12 c 1,4,5
 4 10 4 10 4 4 c 1,6,7
 10 4 10 4 28 4 c 1,8,9
 28 3 28 3 28 0 c 1,10,11
 21 0 21 0 0 0 c 1,0,1
4 12 m 1,12,13
 4 13 4 13 4 16 c 1,14,15
 5 16 5 16 8 16 c 1,16,17
 8 15 8 15 8 12 c 1,18,19
 7 12 7 12 4 12 c 1,12,13
8 16 m 1,20,21
 8 17 8 17 8 20 c 1,22,23
 9 20 9 20 12 20 c 1,24,25
 12 19 12 19 12 16 c 1,26,27
 11 16 11 16 8 16 c 1,20,21
12 20 m 1,28,29
 12 21 12 21 12 24 c 1,30,31
 13 24 13 24 16 24 c 1,32,33
 16 23 16 23 16 20 c 1,34,35
 15 20 15 20 12 20 c 1,28,29
16 24 m 1,36,37
 16 25 16 25 16 28 c 1,38,39
 17 28 17 28 20 28 c 1,40,41
 20 27 20 27 20 24 c 1,42,43
 19 24 19 24 16 24 c 1,36,37
20 28 m 1,44,45
 20 29 20 29 20 32 c 1,46,47
 21 32 21 32 24 32 c 1,48,49
 24 31 24 31 24 28 c 1,50,51
 23 28 23 28 20 28 c 1,44,45
24 32 m 1,52,53
 24 33 24 33 24 36 c 1,54,55
 18 36 18 36 0 36 c 1,56,57
 0 37 0 37 0 40 c 1,58,59
 7 40 7 40 28 40 c 1,60,61
 28 38 28 38 28 32 c 1,62,63
 27 32 27 32 24 32 c 1,52,53
EndSplineSet
EndChar

StartChar: braceleft
Encoding: 123 123 94
Width: 24
GlyphClass: 2
Flags: W
LayerCount: 2
Fore
SplineSet
8 0 m 1,0,1
 8 1 8 1 8 4 c 1,2,3
 10 4 10 4 16 4 c 1,4,5
 16 3 16 3 16 0 c 1,6,7
 14 0 14 0 8 0 c 1,0,1
4 4 m 1,8,9
 4 9 4 9 4 24 c 1,10,11
 5 24 5 24 8 24 c 1,12,13
 8 19 8 19 8 4 c 1,14,15
 7 4 7 4 4 4 c 1,8,9
0 24 m 1,16,17
 0 25 0 25 0 28 c 1,18,19
 1 28 1 28 4 28 c 1,20,21
 4 27 4 27 4 24 c 1,22,23
 3 24 3 24 0 24 c 1,16,17
4 28 m 1,24,25
 4 33 4 33 4 48 c 1,26,27
 5 48 5 48 8 48 c 1,28,29
 8 43 8 43 8 28 c 1,30,31
 7 28 7 28 4 28 c 1,24,25
8 48 m 1,32,33
 8 49 8 49 8 52 c 1,34,35
 10 52 10 52 16 52 c 1,36,37
 16 51 16 51 16 48 c 1,38,39
 14 48 14 48 8 48 c 1,32,33
EndSplineSet
EndChar

StartChar: bar
Encoding: 124 124 95
Width: 12
GlyphClass: 2
Flags: W
LayerCount: 2
Fore
SplineSet
0 0 m 1,0,1
 0 13 0 13 0 52 c 1,2,3
 1 52 1 52 4 52 c 1,4,5
 4 39 4 39 4 0 c 1,6,7
 3 0 3 0 0 0 c 1,0,1
EndSplineSet
EndChar

StartChar: braceright
Encoding: 125 125 96
Width: 24
GlyphClass: 2
Flags: W
LayerCount: 2
Fore
SplineSet
0 0 m 1,0,1
 0 1 0 1 0 4 c 1,2,3
 2 4 2 4 8 4 c 1,4,5
 8 3 8 3 8 0 c 1,6,7
 6 0 6 0 0 0 c 1,0,1
8 4 m 1,8,9
 8 9 8 9 8 24 c 1,10,11
 9 24 9 24 12 24 c 1,12,13
 12 19 12 19 12 4 c 1,14,15
 11 4 11 4 8 4 c 1,8,9
12 24 m 1,16,17
 12 25 12 25 12 28 c 1,18,19
 13 28 13 28 16 28 c 1,20,21
 16 27 16 27 16 24 c 1,22,23
 15 24 15 24 12 24 c 1,16,17
8 28 m 1,24,25
 8 33 8 33 8 48 c 1,26,27
 9 48 9 48 12 48 c 1,28,29
 12 43 12 43 12 28 c 1,30,31
 11 28 11 28 8 28 c 1,24,25
0 48 m 1,32,33
 0 49 0 49 0 52 c 1,34,35
 2 52 2 52 8 52 c 1,36,37
 8 51 8 51 8 48 c 1,38,39
 6 48 6 48 0 48 c 1,32,33
EndSplineSet
EndChar

StartChar: asciitilde
Encoding: 126 126 97
Width: 40
GlyphClass: 2
Flags: W
LayerCount: 2
Fore
SplineSet
0 20 m 1,0,1
 0 21 0 21 0 24 c 1,2,3
 1 24 1 24 4 24 c 1,4,5
 4 23 4 23 4 20 c 1,6,7
 3 20 3 20 0 20 c 1,0,1
20 20 m 1,8,9
 20 21 20 21 20 24 c 1,10,11
 22 24 22 24 28 24 c 1,12,13
 28 23 28 23 28 20 c 1,14,15
 26 20 26 20 20 20 c 1,8,9
4 24 m 1,16,17
 4 25 4 25 4 28 c 1,18,19
 5 28 5 28 8 28 c 1,20,21
 8 27 8 27 8 24 c 1,22,23
 7 24 7 24 4 24 c 1,16,17
16 24 m 1,24,25
 16 25 16 25 16 28 c 1,26,27
 17 28 17 28 20 28 c 1,28,29
 20 27 20 27 20 24 c 1,30,31
 19 24 19 24 16 24 c 1,24,25
8 28 m 1,32,33
 8 29 8 29 8 32 c 1,34,35
 10 32 10 32 16 32 c 1,36,37
 16 31 16 31 16 28 c 1,38,39
 14 28 14 28 8 28 c 1,32,33
28 24 m 1,40,41
 28 26 28 26 28 32 c 1,42,43
 29 32 29 32 32 32 c 1,44,45
 32 30 32 30 32 24 c 1,46,47
 31 24 31 24 28 24 c 1,40,41
EndSplineSet
EndChar

StartChar: exclamdown
Encoding: 161 161 98
Width: 12
GlyphClass: 2
Flags: W
LayerCount: 2
Fore
SplineSet
0 -12 m 1,0,1
 0 -3 0 -3 0 24 c 1,2,3
 1 24 1 24 4 24 c 1,4,5
 4 15 4 15 4 -12 c 1,6,7
 3 -12 3 -12 0 -12 c 1,0,1
0 32 m 1,8,9
 0 34 0 34 0 40 c 1,10,11
 1 40 1 40 4 40 c 1,12,13
 4 38 4 38 4 32 c 1,14,15
 3 32 3 32 0 32 c 1,8,9
EndSplineSet
EndChar

StartChar: cent
Encoding: 162 162 99
Width: 36
GlyphClass: 2
Flags: W
LayerCount: 2
Fore
SplineSet
4 12 m 1,0,1
 4 13 4 13 4 16 c 1,2,3
 5 16 5 16 8 16 c 1,4,5
 8 15 8 15 8 12 c 1,6,7
 7 12 7 12 4 12 c 1,0,1
20 12 m 1,8,9
 20 13 20 13 20 16 c 1,10,11
 21 16 21 16 24 16 c 1,12,13
 24 15 24 15 24 12 c 1,14,15
 23 12 23 12 20 12 c 1,8,9
24 16 m 1,16,17
 24 17 24 17 24 20 c 1,18,19
 25 20 25 20 28 20 c 1,20,21
 28 19 28 19 28 16 c 1,22,23
 27 16 27 16 24 16 c 1,16,17
0 16 m 1,24,25
 0 21 0 21 0 36 c 1,26,27
 1 36 1 36 4 36 c 1,28,29
 4 31 4 31 4 16 c 1,30,31
 3 16 3 16 0 16 c 1,24,25
24 32 m 1,32,33
 24 33 24 33 24 36 c 1,34,35
 25 36 25 36 28 36 c 1,36,37
 28 35 28 35 28 32 c 1,38,39
 27 32 27 32 24 32 c 1,32,33
4 36 m 1,40,41
 4 37 4 37 4 40 c 1,42,43
 5 40 5 40 8 40 c 1,44,45
 8 39 8 39 8 36 c 1,46,47
 7 36 7 36 4 36 c 1,40,41
20 36 m 1,48,49
 20 37 20 37 20 40 c 1,50,51
 21 40 21 40 24 40 c 1,52,53
 24 39 24 39 24 36 c 1,54,55
 23 36 23 36 20 36 c 1,48,49
12 0 m 1,56,57
 12 2 12 2 12 8 c 1,58,59
 11 8 11 8 8 8 c 1,60,61
 8 9 8 9 8 12 c 1,62,63
 9 12 9 12 12 12 c 1,64,65
 12 19 12 19 12 40 c 1,66,67
 11 40 11 40 8 40 c 1,68,69
 8 41 8 41 8 44 c 1,70,71
 9 44 9 44 12 44 c 1,72,73
 12 46 12 46 12 52 c 1,74,75
 13 52 13 52 16 52 c 1,76,77
 16 50 16 50 16 44 c 1,78,79
 17 44 17 44 20 44 c 1,80,81
 20 43 20 43 20 40 c 1,82,83
 19 40 19 40 16 40 c 1,84,85
 16 33 16 33 16 12 c 1,86,87
 17 12 17 12 20 12 c 1,88,89
 20 11 20 11 20 8 c 1,90,91
 19 8 19 8 16 8 c 1,92,93
 16 6 16 6 16 0 c 1,94,95
 15 0 15 0 12 0 c 1,56,57
EndSplineSet
EndChar

StartChar: sterling
Encoding: 163 163 100
Width: 36
GlyphClass: 2
Flags: W
LayerCount: 2
Fore
SplineSet
0 0 m 1,0,1
 0 1 0 1 0 4 c 1,2,3
 1 4 1 4 4 4 c 1,4,5
 4 3 4 3 4 0 c 1,6,7
 3 0 3 0 0 0 c 1,0,1
16 0 m 1,8,9
 16 1 16 1 16 4 c 1,10,11
 18 4 18 4 24 4 c 1,12,13
 24 3 24 3 24 0 c 1,14,15
 22 0 22 0 16 0 c 1,8,9
24 4 m 1,16,17
 24 5 24 5 24 8 c 1,18,19
 25 8 25 8 28 8 c 1,20,21
 28 7 28 7 28 4 c 1,22,23
 27 4 27 4 24 4 c 1,16,17
4 4 m 1,24,25
 4 8 4 8 4 20 c 1,26,27
 3 20 3 20 0 20 c 1,28,29
 0 21 0 21 0 24 c 1,30,31
 1 24 1 24 4 24 c 1,32,33
 4 28 4 28 4 40 c 1,34,35
 5 40 5 40 8 40 c 1,36,37
 8 36 8 36 8 24 c 1,38,39
 11 24 11 24 20 24 c 1,40,41
 20 23 20 23 20 20 c 1,42,43
 17 20 17 20 8 20 c 1,44,45
 8 17 8 17 8 8 c 1,46,47
 10 8 10 8 16 8 c 1,48,49
 16 7 16 7 16 4 c 1,50,51
 13 4 13 4 4 4 c 1,24,25
24 32 m 1,52,53
 24 34 24 34 24 40 c 1,54,55
 25 40 25 40 28 40 c 1,56,57
 28 38 28 38 28 32 c 1,58,59
 27 32 27 32 24 32 c 1,52,53
8 40 m 1,60,61
 8 41 8 41 8 44 c 1,62,63
 9 44 9 44 12 44 c 1,64,65
 12 43 12 43 12 40 c 1,66,67
 11 40 11 40 8 40 c 1,60,61
20 40 m 1,68,69
 20 41 20 41 20 44 c 1,70,71
 21 44 21 44 24 44 c 1,72,73
 24 43 24 43 24 40 c 1,74,75
 23 40 23 40 20 40 c 1,68,69
12 44 m 1,76,77
 12 45 12 45 12 48 c 1,78,79
 14 48 14 48 20 48 c 1,80,81
 20 47 20 47 20 44 c 1,82,83
 18 44 18 44 12 44 c 1,76,77
EndSplineSet
EndChar

StartChar: yen
Encoding: 165 165 101
Width: 36
GlyphClass: 2
Flags: W
LayerCount: 2
Fore
SplineSet
12 0 m 1,0,1
 12 2 12 2 12 8 c 1,2,3
 10 8 10 8 4 8 c 1,4,5
 4 9 4 9 4 12 c 1,6,7
 6 12 6 12 12 12 c 1,8,9
 12 13 12 13 12 16 c 1,10,11
 10 16 10 16 4 16 c 1,12,13
 4 17 4 17 4 20 c 1,14,15
 5 20 5 20 8 20 c 1,16,17
 8 22 8 22 8 28 c 1,18,19
 9 28 9 28 12 28 c 1,20,21
 12 27 12 27 12 24 c 1,22,23
 13 24 13 24 16 24 c 1,24,25
 16 25 16 25 16 28 c 1,26,27
 17 28 17 28 20 28 c 1,28,29
 20 26 20 26 20 20 c 1,30,31
 21 20 21 20 24 20 c 1,32,33
 24 19 24 19 24 16 c 1,34,35
 22 16 22 16 16 16 c 1,36,37
 16 15 16 15 16 12 c 1,38,39
 18 12 18 12 24 12 c 1,40,41
 24 11 24 11 24 8 c 1,42,43
 22 8 22 8 16 8 c 1,44,45
 16 6 16 6 16 0 c 1,46,47
 15 0 15 0 12 0 c 1,0,1
4 28 m 1,48,49
 4 30 4 30 4 36 c 1,50,51
 5 36 5 36 8 36 c 1,52,53
 8 34 8 34 8 28 c 1,54,55
 7 28 7 28 4 28 c 1,48,49
20 28 m 1,56,57
 20 30 20 30 20 36 c 1,58,59
 21 36 21 36 24 36 c 1,60,61
 24 34 24 34 24 28 c 1,62,63
 23 28 23 28 20 28 c 1,56,57
0 36 m 1,64,65
 0 38 0 38 0 44 c 1,66,67
 1 44 1 44 4 44 c 1,68,69
 4 42 4 42 4 36 c 1,70,71
 3 36 3 36 0 36 c 1,64,65
24 36 m 1,72,73
 24 38 24 38 24 44 c 1,74,75
 25 44 25 44 28 44 c 1,76,77
 28 42 28 42 28 36 c 1,78,79
 27 36 27 36 24 36 c 1,72,73
EndSplineSet
EndChar

StartChar: brokenbar
Encoding: 166 166 102
Width: 12
GlyphClass: 2
Flags: W
LayerCount: 2
Fore
SplineSet
0 0 m 1,0,1
 0 6 0 6 0 24 c 1,2,3
 1 24 1 24 4 24 c 1,4,5
 4 18 4 18 4 0 c 1,6,7
 3 0 3 0 0 0 c 1,0,1
0 32 m 1,8,9
 0 37 0 37 0 52 c 1,10,11
 1 52 1 52 4 52 c 1,12,13
 4 47 4 47 4 32 c 1,14,15
 3 32 3 32 0 32 c 1,8,9
EndSplineSet
EndChar

StartChar: dieresis
Encoding: 168 168 103
Width: 32
GlyphClass: 2
Flags: W
LayerCount: 2
Fore
SplineSet
4 48 m 1,0,1
 4 49 4 49 4 52 c 1,2,3
 5 52 5 52 8 52 c 1,4,5
 8 51 8 51 8 48 c 1,6,7
 7 48 7 48 4 48 c 1,0,1
20 48 m 1,8,9
 20 49 20 49 20 52 c 1,10,11
 21 52 21 52 24 52 c 1,12,13
 24 51 24 51 24 48 c 1,14,15
 23 48 23 48 20 48 c 1,8,9
EndSplineSet
EndChar

StartChar: copyright
Encoding: 169 169 104
Width: 40
GlyphClass: 2
Flags: W
LayerCount: 2
Fore
SplineSet
8 0 m 1,0,1
 8 1 8 1 8 4 c 1,2,3
 12 4 12 4 24 4 c 1,4,5
 24 3 24 3 24 0 c 1,6,7
 20 0 20 0 8 0 c 1,0,1
4 4 m 1,8,9
 4 5 4 5 4 8 c 1,10,11
 5 8 5 8 8 8 c 1,12,13
 8 7 8 7 8 4 c 1,14,15
 7 4 7 4 4 4 c 1,8,9
24 4 m 1,16,17
 24 5 24 5 24 8 c 1,18,19
 25 8 25 8 28 8 c 1,20,21
 28 7 28 7 28 4 c 1,22,23
 27 4 27 4 24 4 c 1,16,17
12 8 m 1,24,25
 12 9 12 9 12 12 c 1,26,27
 14 12 14 12 20 12 c 1,28,29
 20 11 20 11 20 8 c 1,30,31
 18 8 18 8 12 8 c 1,24,25
20 12 m 1,32,33
 20 13 20 13 20 16 c 1,34,35
 21 16 21 16 24 16 c 1,36,37
 24 15 24 15 24 12 c 1,38,39
 23 12 23 12 20 12 c 1,32,33
8 12 m 1,40,41
 8 16 8 16 8 28 c 1,42,43
 9 28 9 28 12 28 c 1,44,45
 12 24 12 24 12 12 c 1,46,47
 11 12 11 12 8 12 c 1,40,41
20 24 m 1,48,49
 20 25 20 25 20 28 c 1,50,51
 21 28 21 28 24 28 c 1,52,53
 24 27 24 27 24 24 c 1,54,55
 23 24 23 24 20 24 c 1,48,49
0 8 m 1,56,57
 0 14 0 14 0 32 c 1,58,59
 1 32 1 32 4 32 c 1,60,61
 4 26 4 26 4 8 c 1,62,63
 3 8 3 8 0 8 c 1,56,57
12 28 m 1,64,65
 12 29 12 29 12 32 c 1,66,67
 14 32 14 32 20 32 c 1,68,69
 20 31 20 31 20 28 c 1,70,71
 18 28 18 28 12 28 c 1,64,65
28 8 m 1,72,73
 28 14 28 14 28 32 c 1,74,75
 29 32 29 32 32 32 c 1,76,77
 32 26 32 26 32 8 c 1,78,79
 31 8 31 8 28 8 c 1,72,73
4 32 m 1,80,81
 4 33 4 33 4 36 c 1,82,83
 5 36 5 36 8 36 c 1,84,85
 8 35 8 35 8 32 c 1,86,87
 7 32 7 32 4 32 c 1,80,81
24 32 m 1,88,89
 24 33 24 33 24 36 c 1,90,91
 25 36 25 36 28 36 c 1,92,93
 28 35 28 35 28 32 c 1,94,95
 27 32 27 32 24 32 c 1,88,89
8 36 m 1,96,97
 8 37 8 37 8 40 c 1,98,99
 12 40 12 40 24 40 c 1,100,101
 24 39 24 39 24 36 c 1,102,103
 20 36 20 36 8 36 c 1,96,97
EndSplineSet
EndChar

StartChar: guillemotleft
Encoding: 171 171 105
Width: 36
GlyphClass: 2
Flags: W
LayerCount: 2
Fore
SplineSet
8 16 m 1,0,1
 8 17 8 17 8 20 c 1,2,3
 9 20 9 20 12 20 c 1,4,5
 12 19 12 19 12 16 c 1,6,7
 11 16 11 16 8 16 c 1,0,1
24 16 m 1,8,9
 24 17 24 17 24 20 c 1,10,11
 25 20 25 20 28 20 c 1,12,13
 28 19 28 19 28 16 c 1,14,15
 27 16 27 16 24 16 c 1,8,9
4 20 m 1,16,17
 4 21 4 21 4 24 c 1,18,19
 5 24 5 24 8 24 c 1,20,21
 8 23 8 23 8 20 c 1,22,23
 7 20 7 20 4 20 c 1,16,17
20 20 m 1,24,25
 20 21 20 21 20 24 c 1,26,27
 21 24 21 24 24 24 c 1,28,29
 24 23 24 23 24 20 c 1,30,31
 23 20 23 20 20 20 c 1,24,25
0 24 m 1,32,33
 0 26 0 26 0 32 c 1,34,35
 1 32 1 32 4 32 c 1,36,37
 4 30 4 30 4 24 c 1,38,39
 3 24 3 24 0 24 c 1,32,33
16 24 m 1,40,41
 16 26 16 26 16 32 c 1,42,43
 17 32 17 32 20 32 c 1,44,45
 20 30 20 30 20 24 c 1,46,47
 19 24 19 24 16 24 c 1,40,41
4 32 m 1,48,49
 4 33 4 33 4 36 c 1,50,51
 5 36 5 36 8 36 c 1,52,53
 8 35 8 35 8 32 c 1,54,55
 7 32 7 32 4 32 c 1,48,49
20 32 m 1,56,57
 20 33 20 33 20 36 c 1,58,59
 21 36 21 36 24 36 c 1,60,61
 24 35 24 35 24 32 c 1,62,63
 23 32 23 32 20 32 c 1,56,57
8 36 m 1,64,65
 8 37 8 37 8 40 c 1,66,67
 9 40 9 40 12 40 c 1,68,69
 12 39 12 39 12 36 c 1,70,71
 11 36 11 36 8 36 c 1,64,65
24 36 m 1,72,73
 24 37 24 37 24 40 c 1,74,75
 25 40 25 40 28 40 c 1,76,77
 28 39 28 39 28 36 c 1,78,79
 27 36 27 36 24 36 c 1,72,73
EndSplineSet
EndChar

StartChar: logicalnot
Encoding: 172 172 106
Width: 28
GlyphClass: 2
Flags: W
LayerCount: 2
Fore
SplineSet
16 16 m 1,0,1
 16 18 16 18 16 24 c 1,2,3
 12 24 12 24 0 24 c 1,4,5
 0 25 0 25 0 28 c 1,6,7
 5 28 5 28 20 28 c 1,8,9
 20 25 20 25 20 16 c 1,10,11
 19 16 19 16 16 16 c 1,0,1
EndSplineSet
EndChar

StartChar: uni00ad
Encoding: 173 173 107
Width: 20
GlyphClass: 2
Flags: W
LayerCount: 2
Fore
SplineSet
0 12 m 1,0,1
 0 13 0 13 0 16 c 1,2,3
 3 16 3 16 12 16 c 1,4,5
 12 15 12 15 12 12 c 1,6,7
 9 12 9 12 0 12 c 1,0,1
EndSplineSet
EndChar

StartChar: registered
Encoding: 174 174 108
Width: 40
GlyphClass: 2
Flags: W
LayerCount: 2
Fore
SplineSet
8 0 m 1,0,1
 8 1 8 1 8 4 c 1,2,3
 12 4 12 4 24 4 c 1,4,5
 24 3 24 3 24 0 c 1,6,7
 20 0 20 0 8 0 c 1,0,1
4 4 m 1,8,9
 4 5 4 5 4 8 c 1,10,11
 5 8 5 8 8 8 c 1,12,13
 8 7 8 7 8 4 c 1,14,15
 7 4 7 4 4 4 c 1,8,9
24 4 m 1,16,17
 24 5 24 5 24 8 c 1,18,19
 25 8 25 8 28 8 c 1,20,21
 28 7 28 7 28 4 c 1,22,23
 27 4 27 4 24 4 c 1,16,17
20 12 m 1,24,25
 20 14 20 14 20 20 c 1,26,27
 21 20 21 20 24 20 c 1,28,29
 24 18 24 18 24 12 c 1,30,31
 23 12 23 12 20 12 c 1,24,25
8 12 m 1,32,33
 8 16 8 16 8 28 c 1,34,35
 9 28 9 28 12 28 c 1,36,37
 12 27 12 27 12 24 c 1,38,39
 14 24 14 24 20 24 c 1,40,41
 20 23 20 23 20 20 c 1,42,43
 18 20 18 20 12 20 c 1,44,45
 12 18 12 18 12 12 c 1,46,47
 11 12 11 12 8 12 c 1,32,33
20 24 m 1,48,49
 20 25 20 25 20 28 c 1,50,51
 21 28 21 28 24 28 c 1,52,53
 24 27 24 27 24 24 c 1,54,55
 23 24 23 24 20 24 c 1,48,49
0 8 m 1,56,57
 0 14 0 14 0 32 c 1,58,59
 1 32 1 32 4 32 c 1,60,61
 4 26 4 26 4 8 c 1,62,63
 3 8 3 8 0 8 c 1,56,57
12 28 m 1,64,65
 12 29 12 29 12 32 c 1,66,67
 14 32 14 32 20 32 c 1,68,69
 20 31 20 31 20 28 c 1,70,71
 18 28 18 28 12 28 c 1,64,65
28 8 m 1,72,73
 28 14 28 14 28 32 c 1,74,75
 29 32 29 32 32 32 c 1,76,77
 32 26 32 26 32 8 c 1,78,79
 31 8 31 8 28 8 c 1,72,73
4 32 m 1,80,81
 4 33 4 33 4 36 c 1,82,83
 5 36 5 36 8 36 c 1,84,85
 8 35 8 35 8 32 c 1,86,87
 7 32 7 32 4 32 c 1,80,81
24 32 m 1,88,89
 24 33 24 33 24 36 c 1,90,91
 25 36 25 36 28 36 c 1,92,93
 28 35 28 35 28 32 c 1,94,95
 27 32 27 32 24 32 c 1,88,89
8 36 m 1,96,97
 8 37 8 37 8 40 c 1,98,99
 12 40 12 40 24 40 c 1,100,101
 24 39 24 39 24 36 c 1,102,103
 20 36 20 36 8 36 c 1,96,97
EndSplineSet
EndChar

StartChar: degree
Encoding: 176 176 109
Width: 20
GlyphClass: 2
Flags: W
LayerCount: 2
Fore
SplineSet
4 40 m 1,0,1
 4 41 4 41 4 44 c 1,2,3
 5 44 5 44 8 44 c 1,4,5
 8 43 8 43 8 40 c 1,6,7
 7 40 7 40 4 40 c 1,0,1
0 44 m 1,8,9
 0 45 0 45 0 48 c 1,10,11
 1 48 1 48 4 48 c 1,12,13
 4 47 4 47 4 44 c 1,14,15
 3 44 3 44 0 44 c 1,8,9
8 44 m 1,16,17
 8 45 8 45 8 48 c 1,18,19
 9 48 9 48 12 48 c 1,20,21
 12 47 12 47 12 44 c 1,22,23
 11 44 11 44 8 44 c 1,16,17
4 48 m 1,24,25
 4 49 4 49 4 52 c 1,26,27
 5 52 5 52 8 52 c 1,28,29
 8 51 8 51 8 48 c 1,30,31
 7 48 7 48 4 48 c 1,24,25
EndSplineSet
EndChar

StartChar: plusminus
Encoding: 177 177 110
Width: 28
GlyphClass: 2
Flags: W
LayerCount: 2
Fore
SplineSet
0 12 m 1,0,1
 0 13 0 13 0 16 c 1,2,3
 2 16 2 16 8 16 c 0,4,5
 11 16 11 16 20 16 c 1,6,7
 20 15 20 15 20 12 c 1,8,9
 15 12 15 12 0 12 c 1,0,1
8 20 m 1,10,11
 8 22 8 22 8 28 c 1,12,13
 6 28 6 28 0 28 c 1,14,15
 0 29 0 29 0 32 c 1,16,17
 2 32 2 32 8 32 c 1,18,19
 8 34 8 34 8 40 c 1,20,21
 9 40 9 40 12 40 c 1,22,23
 12 38 12 38 12 32 c 1,24,25
 14 32 14 32 20 32 c 1,26,27
 20 31 20 31 20 28 c 1,28,29
 18 28 18 28 12 28 c 1,30,31
 12 26 12 26 12 20 c 1,32,33
 11 20 11 20 8 20 c 1,10,11
EndSplineSet
EndChar

StartChar: acute
Encoding: 180 180 111
Width: 32
GlyphClass: 2
Flags: W
LayerCount: 2
Fore
SplineSet
12 44 m 1,0,1
 12 45 12 45 12 48 c 1,2,3
 13 48 13 48 16 48 c 1,4,5
 16 47 16 47 16 44 c 1,6,7
 15 44 15 44 12 44 c 1,0,1
16 48 m 1,8,9
 16 49 16 49 16 52 c 1,10,11
 17 52 17 52 20 52 c 1,12,13
 20 51 20 51 20 48 c 1,14,15
 19 48 19 48 16 48 c 1,8,9
20 52 m 1,16,17
 20 53 20 53 20 56 c 1,18,19
 21 56 21 56 24 56 c 1,20,21
 24 55 24 55 24 52 c 1,22,23
 23 52 23 52 20 52 c 1,16,17
EndSplineSet
EndChar

StartChar: mu
Encoding: 181 181 112
Width: 40
GlyphClass: 2
Flags: W
LayerCount: 2
Fore
SplineSet
8 0 m 1,0,1
 8 1 8 1 8 4 c 1,2,3
 11 4 11 4 20 4 c 1,4,5
 20 3 20 3 20 0 c 1,6,7
 17 0 17 0 8 0 c 1,0,1
0 -12 m 1,8,9
 0 1 0 1 0 40 c 1,10,11
 1 40 1 40 4 40 c 1,12,13
 4 32 4 32 4 8 c 1,14,15
 5 8 5 8 8 8 c 1,16,17
 8 7 8 7 8 4 c 1,18,19
 7 4 7 4 4 4 c 1,20,21
 4 0 4 0 4 -12 c 1,22,23
 3 -12 3 -12 0 -12 c 1,8,9
24 0 m 1,24,25
 24 1 24 1 24 4 c 1,26,27
 23 4 23 4 20 4 c 1,28,29
 20 5 20 5 20 8 c 1,30,31
 21 8 21 8 24 8 c 1,32,33
 24 16 24 16 24 40 c 1,34,35
 25 40 25 40 28 40 c 1,36,37
 28 31 28 31 28 4 c 1,38,39
 29 4 29 4 32 4 c 1,40,41
 32 3 32 3 32 0 c 1,42,43
 30 0 30 0 24 0 c 1,24,25
EndSplineSet
EndChar

StartChar: paragraph
Encoding: 182 182 113
Width: 36
GlyphClass: 2
Flags: W
LayerCount: 2
Fore
SplineSet
16 0 m 1,0,1
 16 7 16 7 16 28 c 1,2,3
 14 28 14 28 8 28 c 1,4,5
 8 29 8 29 8 32 c 1,6,7
 7 32 7 32 4 32 c 1,8,9
 4 33 4 33 4 36 c 1,10,11
 3 36 3 36 0 36 c 1,12,13
 0 38 0 38 0 44 c 1,14,15
 1 44 1 44 4 44 c 1,16,17
 4 45 4 45 4 48 c 1,18,19
 5 48 5 48 8 48 c 1,20,21
 8 49 8 49 8 52 c 1,22,23
 13 52 13 52 28 52 c 1,24,25
 28 39 28 39 28 0 c 1,26,27
 27 0 27 0 24 0 c 1,28,29
 24 12 24 12 24 48 c 1,30,31
 23 48 23 48 20 48 c 1,32,33
 20 36 20 36 20 0 c 1,34,35
 19 0 19 0 16 0 c 1,0,1
EndSplineSet
EndChar

StartChar: periodcentered
Encoding: 183 183 114
Width: 12
GlyphClass: 2
Flags: W
LayerCount: 2
Fore
SplineSet
0 20 m 1,0,1
 0 21 0 21 0 24 c 1,2,3
 1 24 1 24 4 24 c 1,4,5
 4 23 4 23 4 20 c 1,6,7
 3 20 3 20 0 20 c 1,0,1
EndSplineSet
EndChar

StartChar: cedilla
Encoding: 184 184 115
Width: 20
GlyphClass: 2
Flags: W
LayerCount: 2
Fore
SplineSet
0 -12 m 1,0,1
 0 -11 0 -11 0 -8 c 1,2,3
 2 -8 2 -8 7 -8 c 2,4,5
 7 -8 7 -8 8 -8 c 1,6,7
 8 -9 8 -9 8 -12 c 1,8,9
 6 -12 6 -12 0 -12 c 1,0,1
8 -8 m 1,10,11
 8 -7 8 -7 8 -4 c 1,12,13
 9 -4 9 -4 12 -4 c 1,14,15
 12 -5 12 -5 12 -8 c 1,16,17
 11 -8 11 -8 8 -8 c 1,10,11
4 -4 m 1,18,19
 4 -3 4 -3 4 0 c 1,20,21
 5 0 5 0 8 0 c 1,22,23
 8 -1 8 -1 8 -4 c 1,24,25
 7 -4 7 -4 4 -4 c 1,18,19
EndSplineSet
EndChar

StartChar: guillemotright
Encoding: 187 187 116
Width: 36
GlyphClass: 2
Flags: W
LayerCount: 2
Fore
SplineSet
0 16 m 1,0,1
 0 17 0 17 0 20 c 1,2,3
 1 20 1 20 4 20 c 1,4,5
 4 19 4 19 4 16 c 1,6,7
 3 16 3 16 0 16 c 1,0,1
16 16 m 1,8,9
 16 17 16 17 16 20 c 1,10,11
 17 20 17 20 20 20 c 1,12,13
 20 19 20 19 20 16 c 1,14,15
 19 16 19 16 16 16 c 1,8,9
4 20 m 1,16,17
 4 21 4 21 4 24 c 1,18,19
 5 24 5 24 8 24 c 1,20,21
 8 23 8 23 8 20 c 1,22,23
 7 20 7 20 4 20 c 1,16,17
20 20 m 1,24,25
 20 21 20 21 20 24 c 1,26,27
 21 24 21 24 24 24 c 1,28,29
 24 23 24 23 24 20 c 1,30,31
 23 20 23 20 20 20 c 1,24,25
8 24 m 1,32,33
 8 26 8 26 8 32 c 1,34,35
 9 32 9 32 12 32 c 1,36,37
 12 30 12 30 12 24 c 1,38,39
 11 24 11 24 8 24 c 1,32,33
24 24 m 1,40,41
 24 26 24 26 24 32 c 1,42,43
 25 32 25 32 28 32 c 1,44,45
 28 30 28 30 28 24 c 1,46,47
 27 24 27 24 24 24 c 1,40,41
4 32 m 1,48,49
 4 33 4 33 4 36 c 1,50,51
 5 36 5 36 8 36 c 1,52,53
 8 35 8 35 8 32 c 1,54,55
 7 32 7 32 4 32 c 1,48,49
20 32 m 1,56,57
 20 33 20 33 20 36 c 1,58,59
 21 36 21 36 24 36 c 1,60,61
 24 35 24 35 24 32 c 1,62,63
 23 32 23 32 20 32 c 1,56,57
0 36 m 1,64,65
 0 37 0 37 0 40 c 1,66,67
 1 40 1 40 4 40 c 1,68,69
 4 39 4 39 4 36 c 1,70,71
 3 36 3 36 0 36 c 1,64,65
16 36 m 1,72,73
 16 37 16 37 16 40 c 1,74,75
 17 40 17 40 20 40 c 1,76,77
 20 39 20 39 20 36 c 1,78,79
 19 36 19 36 16 36 c 1,72,73
EndSplineSet
EndChar

StartChar: questiondown
Encoding: 191 191 117
Width: 36
GlyphClass: 2
Flags: W
LayerCount: 2
Fore
SplineSet
8 -12 m 1,0,1
 8 -11 8 -11 8 -8 c 1,2,3
 9 -8 9 -8 12 -8 c 0,4,5
 14 -8 14 -8 20 -8 c 1,6,7
 20 -9 20 -9 20 -12 c 1,8,9
 17 -12 17 -12 8 -12 c 1,0,1
4 -8 m 1,10,11
 4 -7 4 -7 4 -4 c 1,12,13
 5 -4 5 -4 8 -4 c 1,14,15
 8 -5 8 -5 8 -8 c 1,16,17
 7 -8 7 -8 4 -8 c 1,10,11
20 -8 m 1,18,19
 20 -7 20 -7 20 -4 c 1,20,21
 21 -4 21 -4 24 -4 c 1,22,23
 24 -5 24 -5 24 -8 c 1,24,25
 23 -8 23 -8 20 -8 c 1,18,19
24 -4 m 1,26,27
 24 -3 24 -3 24 0 c 1,28,29
 25 0 25 0 28 0 c 1,30,31
 28 -1 28 -1 28 -4 c 1,32,33
 27 -4 27 -4 24 -4 c 1,26,27
0 -4 m 1,34,35
 0 -1 0 -1 0 8 c 1,36,37
 1 8 1 8 4 8 c 1,38,39
 4 5 4 5 4 -4 c 1,40,41
 3 -4 3 -4 0 -4 c 1,34,35
4 8 m 1,42,43
 4 9 4 9 4 12 c 1,44,45
 5 12 5 12 8 12 c 1,46,47
 8 11 8 11 8 8 c 1,48,49
 7 8 7 8 4 8 c 1,42,43
8 12 m 1,50,51
 8 13 8 13 8 16 c 1,52,53
 9 16 9 16 12 16 c 1,54,55
 12 15 12 15 12 12 c 1,56,57
 11 12 11 12 8 12 c 1,50,51
12 16 m 1,58,59
 12 18 12 18 12 24 c 1,60,61
 13 24 13 24 16 24 c 1,62,63
 16 22 16 22 16 16 c 1,64,65
 15 16 15 16 12 16 c 1,58,59
12 32 m 1,66,67
 12 34 12 34 12 40 c 1,68,69
 13 40 13 40 16 40 c 1,70,71
 16 38 16 38 16 32 c 1,72,73
 15 32 15 32 12 32 c 1,66,67
EndSplineSet
EndChar

StartChar: Agrave
Encoding: 192 192 118
Width: 36
GlyphClass: 2
Flags: W
LayerCount: 2
Fore
SplineSet
0 0 m 1,0,1
 0 10 0 10 0 40 c 1,2,3
 1 40 1 40 4 40 c 1,4,5
 4 36 4 36 4 24 c 1,6,7
 9 24 9 24 24 24 c 1,8,9
 24 28 24 28 24 40 c 1,10,11
 25 40 25 40 28 40 c 1,12,13
 28 30 28 30 28 0 c 1,14,15
 27 0 27 0 24 0 c 1,16,17
 24 5 24 5 24 20 c 1,18,19
 19 20 19 20 4 20 c 1,20,21
 4 15 4 15 4 0 c 1,22,23
 3 0 3 0 0 0 c 1,0,1
4 40 m 1,24,25
 4 42 4 42 4 48 c 1,26,27
 5 48 5 48 8 48 c 1,28,29
 8 46 8 46 8 40 c 1,30,31
 7 40 7 40 4 40 c 1,24,25
20 40 m 1,32,33
 20 42 20 42 20 48 c 1,34,35
 21 48 21 48 24 48 c 1,36,37
 24 46 24 46 24 40 c 1,38,39
 23 40 23 40 20 40 c 1,32,33
8 48 m 1,40,41
 8 49 8 49 8 52 c 1,42,43
 11 52 11 52 20 52 c 1,44,45
 20 51 20 51 20 48 c 1,46,47
 17 48 17 48 8 48 c 1,40,41
12 56 m 1,48,49
 12 57 12 57 12 60 c 1,50,51
 13 60 13 60 16 60 c 1,52,53
 16 59 16 59 16 56 c 1,54,55
 15 56 15 56 12 56 c 1,48,49
8 60 m 1,56,57
 8 61 8 61 8 64 c 1,58,59
 9 64 9 64 12 64 c 1,60,61
 12 63 12 63 12 60 c 1,62,63
 11 60 11 60 8 60 c 1,56,57
4 64 m 1,64,65
 4 65 4 65 4 68 c 1,66,67
 5 68 5 68 8 68 c 1,68,69
 8 67 8 67 8 64 c 1,70,71
 7 64 7 64 4 64 c 1,64,65
EndSplineSet
EndChar

StartChar: Aacute
Encoding: 193 193 119
Width: 36
GlyphClass: 2
Flags: W
LayerCount: 2
Fore
SplineSet
0 0 m 1,0,1
 0 10 0 10 0 40 c 1,2,3
 1 40 1 40 4 40 c 1,4,5
 4 36 4 36 4 24 c 1,6,7
 9 24 9 24 24 24 c 1,8,9
 24 28 24 28 24 40 c 1,10,11
 25 40 25 40 28 40 c 1,12,13
 28 30 28 30 28 0 c 1,14,15
 27 0 27 0 24 0 c 1,16,17
 24 5 24 5 24 20 c 1,18,19
 19 20 19 20 4 20 c 1,20,21
 4 15 4 15 4 0 c 1,22,23
 3 0 3 0 0 0 c 1,0,1
4 40 m 1,24,25
 4 42 4 42 4 48 c 1,26,27
 5 48 5 48 8 48 c 1,28,29
 8 46 8 46 8 40 c 1,30,31
 7 40 7 40 4 40 c 1,24,25
20 40 m 1,32,33
 20 42 20 42 20 48 c 1,34,35
 21 48 21 48 24 48 c 1,36,37
 24 46 24 46 24 40 c 1,38,39
 23 40 23 40 20 40 c 1,32,33
8 48 m 1,40,41
 8 49 8 49 8 52 c 1,42,43
 11 52 11 52 20 52 c 1,44,45
 20 51 20 51 20 48 c 1,46,47
 17 48 17 48 8 48 c 1,40,41
12 56 m 1,48,49
 12 57 12 57 12 60 c 1,50,51
 13 60 13 60 16 60 c 1,52,53
 16 59 16 59 16 56 c 1,54,55
 15 56 15 56 12 56 c 1,48,49
16 60 m 1,56,57
 16 61 16 61 16 64 c 1,58,59
 17 64 17 64 20 64 c 1,60,61
 20 63 20 63 20 60 c 1,62,63
 19 60 19 60 16 60 c 1,56,57
20 64 m 1,64,65
 20 65 20 65 20 68 c 1,66,67
 21 68 21 68 24 68 c 1,68,69
 24 67 24 67 24 64 c 1,70,71
 23 64 23 64 20 64 c 1,64,65
EndSplineSet
EndChar

StartChar: Acircumflex
Encoding: 194 194 120
Width: 36
GlyphClass: 2
Flags: W
LayerCount: 2
Fore
SplineSet
0 0 m 1,0,1
 0 10 0 10 0 40 c 1,2,3
 1 40 1 40 4 40 c 1,4,5
 4 36 4 36 4 24 c 1,6,7
 9 24 9 24 24 24 c 1,8,9
 24 28 24 28 24 40 c 1,10,11
 25 40 25 40 28 40 c 1,12,13
 28 30 28 30 28 0 c 1,14,15
 27 0 27 0 24 0 c 1,16,17
 24 5 24 5 24 20 c 1,18,19
 19 20 19 20 4 20 c 1,20,21
 4 15 4 15 4 0 c 1,22,23
 3 0 3 0 0 0 c 1,0,1
4 40 m 1,24,25
 4 42 4 42 4 48 c 1,26,27
 5 48 5 48 8 48 c 1,28,29
 8 46 8 46 8 40 c 1,30,31
 7 40 7 40 4 40 c 1,24,25
20 40 m 1,32,33
 20 42 20 42 20 48 c 1,34,35
 21 48 21 48 24 48 c 1,36,37
 24 46 24 46 24 40 c 1,38,39
 23 40 23 40 20 40 c 1,32,33
8 48 m 1,40,41
 8 49 8 49 8 52 c 1,42,43
 11 52 11 52 20 52 c 1,44,45
 20 51 20 51 20 48 c 1,46,47
 17 48 17 48 8 48 c 1,40,41
4 56 m 1,48,49
 4 57 4 57 4 60 c 1,50,51
 5 60 5 60 8 60 c 1,52,53
 8 59 8 59 8 56 c 1,54,55
 7 56 7 56 4 56 c 1,48,49
20 56 m 1,56,57
 20 57 20 57 20 60 c 1,58,59
 21 60 21 60 24 60 c 1,60,61
 24 59 24 59 24 56 c 1,62,63
 23 56 23 56 20 56 c 1,56,57
8 60 m 1,64,65
 8 61 8 61 8 64 c 1,66,67
 9 64 9 64 12 64 c 1,68,69
 12 63 12 63 12 60 c 1,70,71
 11 60 11 60 8 60 c 1,64,65
16 60 m 1,72,73
 16 61 16 61 16 64 c 1,74,75
 17 64 17 64 20 64 c 1,76,77
 20 63 20 63 20 60 c 1,78,79
 19 60 19 60 16 60 c 1,72,73
12 64 m 1,80,81
 12 65 12 65 12 68 c 1,82,83
 13 68 13 68 16 68 c 1,84,85
 16 67 16 67 16 64 c 1,86,87
 15 64 15 64 12 64 c 1,80,81
EndSplineSet
EndChar

StartChar: Atilde
Encoding: 195 195 121
Width: 36
GlyphClass: 2
Flags: W
LayerCount: 2
Fore
SplineSet
0 0 m 1,0,1
 0 10 0 10 0 40 c 1,2,3
 1 40 1 40 4 40 c 1,4,5
 4 36 4 36 4 24 c 1,6,7
 9 24 9 24 24 24 c 1,8,9
 24 28 24 28 24 40 c 1,10,11
 25 40 25 40 28 40 c 1,12,13
 28 30 28 30 28 0 c 1,14,15
 27 0 27 0 24 0 c 1,16,17
 24 5 24 5 24 20 c 1,18,19
 19 20 19 20 4 20 c 1,20,21
 4 15 4 15 4 0 c 1,22,23
 3 0 3 0 0 0 c 1,0,1
4 40 m 1,24,25
 4 42 4 42 4 48 c 1,26,27
 5 48 5 48 8 48 c 1,28,29
 8 46 8 46 8 40 c 1,30,31
 7 40 7 40 4 40 c 1,24,25
20 40 m 1,32,33
 20 42 20 42 20 48 c 1,34,35
 21 48 21 48 24 48 c 1,36,37
 24 46 24 46 24 40 c 1,38,39
 23 40 23 40 20 40 c 1,32,33
8 48 m 1,40,41
 8 49 8 49 8 52 c 1,42,43
 11 52 11 52 20 52 c 1,44,45
 20 51 20 51 20 48 c 1,46,47
 17 48 17 48 8 48 c 1,40,41
0 56 m 1,48,49
 0 57 0 57 0 60 c 1,50,51
 1 60 1 60 4 60 c 1,52,53
 4 59 4 59 4 56 c 1,54,55
 3 56 3 56 0 56 c 1,48,49
20 56 m 1,56,57
 20 57 20 57 20 60 c 1,58,59
 21 60 21 60 24 60 c 1,60,61
 24 59 24 59 24 56 c 1,62,63
 23 56 23 56 20 56 c 1,56,57
4 60 m 1,64,65
 4 61 4 61 4 64 c 1,66,67
 5 64 5 64 8 64 c 1,68,69
 8 63 8 63 8 60 c 1,70,71
 7 60 7 60 4 60 c 1,64,65
16 60 m 1,72,73
 16 61 16 61 16 64 c 1,74,75
 17 64 17 64 20 64 c 1,76,77
 20 63 20 63 20 60 c 1,78,79
 19 60 19 60 16 60 c 1,72,73
8 64 m 1,80,81
 8 65 8 65 8 68 c 1,82,83
 10 68 10 68 16 68 c 1,84,85
 16 67 16 67 16 64 c 1,86,87
 14 64 14 64 8 64 c 1,80,81
24 60 m 1,88,89
 24 62 24 62 24 68 c 1,90,91
 25 68 25 68 28 68 c 1,92,93
 28 66 28 66 28 60 c 1,94,95
 27 60 27 60 24 60 c 1,88,89
EndSplineSet
EndChar

StartChar: Adieresis
Encoding: 196 196 122
Width: 36
GlyphClass: 2
Flags: W
LayerCount: 2
Fore
SplineSet
0 0 m 1,0,1
 0 10 0 10 0 40 c 1,2,3
 1 40 1 40 4 40 c 1,4,5
 4 36 4 36 4 24 c 1,6,7
 9 24 9 24 24 24 c 1,8,9
 24 28 24 28 24 40 c 1,10,11
 25 40 25 40 28 40 c 1,12,13
 28 30 28 30 28 0 c 1,14,15
 27 0 27 0 24 0 c 1,16,17
 24 5 24 5 24 20 c 1,18,19
 19 20 19 20 4 20 c 1,20,21
 4 15 4 15 4 0 c 1,22,23
 3 0 3 0 0 0 c 1,0,1
4 40 m 1,24,25
 4 42 4 42 4 48 c 1,26,27
 5 48 5 48 8 48 c 1,28,29
 8 46 8 46 8 40 c 1,30,31
 7 40 7 40 4 40 c 1,24,25
20 40 m 1,32,33
 20 42 20 42 20 48 c 1,34,35
 21 48 21 48 24 48 c 1,36,37
 24 46 24 46 24 40 c 1,38,39
 23 40 23 40 20 40 c 1,32,33
8 48 m 1,40,41
 8 49 8 49 8 52 c 1,42,43
 11 52 11 52 20 52 c 1,44,45
 20 51 20 51 20 48 c 1,46,47
 17 48 17 48 8 48 c 1,40,41
4 56 m 1,48,49
 4 57 4 57 4 60 c 1,50,51
 5 60 5 60 8 60 c 1,52,53
 8 59 8 59 8 56 c 1,54,55
 7 56 7 56 4 56 c 1,48,49
20 56 m 1,56,57
 20 57 20 57 20 60 c 1,58,59
 21 60 21 60 24 60 c 1,60,61
 24 59 24 59 24 56 c 1,62,63
 23 56 23 56 20 56 c 1,56,57
EndSplineSet
EndChar

StartChar: Aring
Encoding: 197 197 123
Width: 36
GlyphClass: 2
Flags: W
LayerCount: 2
Fore
SplineSet
0 0 m 1,0,1
 0 10 0 10 0 40 c 1,2,3
 1 40 1 40 4 40 c 1,4,5
 4 36 4 36 4 24 c 1,6,7
 9 24 9 24 24 24 c 1,8,9
 24 28 24 28 24 40 c 1,10,11
 25 40 25 40 28 40 c 1,12,13
 28 30 28 30 28 0 c 1,14,15
 27 0 27 0 24 0 c 1,16,17
 24 5 24 5 24 20 c 1,18,19
 19 20 19 20 4 20 c 1,20,21
 4 15 4 15 4 0 c 1,22,23
 3 0 3 0 0 0 c 1,0,1
4 40 m 1,24,25
 4 42 4 42 4 48 c 1,26,27
 5 48 5 48 8 48 c 1,28,29
 8 46 8 46 8 40 c 1,30,31
 7 40 7 40 4 40 c 1,24,25
20 40 m 1,32,33
 20 42 20 42 20 48 c 1,34,35
 21 48 21 48 24 48 c 1,36,37
 24 46 24 46 24 40 c 1,38,39
 23 40 23 40 20 40 c 1,32,33
8 48 m 1,40,41
 8 49 8 49 8 52 c 1,42,43
 11 52 11 52 20 52 c 1,44,45
 20 51 20 51 20 48 c 1,46,47
 17 48 17 48 8 48 c 1,40,41
12 56 m 1,48,49
 12 57 12 57 12 60 c 1,50,51
 13 60 13 60 16 60 c 1,52,53
 16 59 16 59 16 56 c 1,54,55
 15 56 15 56 12 56 c 1,48,49
8 60 m 1,56,57
 8 61 8 61 8 64 c 1,58,59
 9 64 9 64 12 64 c 1,60,61
 12 63 12 63 12 60 c 1,62,63
 11 60 11 60 8 60 c 1,56,57
16 60 m 1,64,65
 16 61 16 61 16 64 c 1,66,67
 17 64 17 64 20 64 c 1,68,69
 20 63 20 63 20 60 c 1,70,71
 19 60 19 60 16 60 c 1,64,65
12 64 m 1,72,73
 12 65 12 65 12 68 c 1,74,75
 13 68 13 68 16 68 c 1,76,77
 16 67 16 67 16 64 c 1,78,79
 15 64 15 64 12 64 c 1,72,73
EndSplineSet
EndChar

StartChar: AE
Encoding: 198 198 124
Width: 60
GlyphClass: 2
Flags: W
LayerCount: 2
Fore
SplineSet
4 40 m 1,0,1
 4 42 4 42 4 48 c 1,2,3
 5 48 5 48 8 48 c 1,4,5
 8 46 8 46 8 40 c 1,6,7
 7 40 7 40 4 40 c 1,0,1
0 0 m 1,8,9
 0 10 0 10 0 40 c 1,10,11
 1 40 1 40 4 40 c 1,12,13
 4 36 4 36 4 24 c 1,14,15
 9 24 9 24 24 24 c 1,16,17
 24 30 24 30 24 48 c 1,18,19
 20 48 20 48 8 48 c 1,20,21
 8 49 8 49 8 52 c 1,22,23
 19 52 19 52 52 52 c 1,24,25
 52 51 52 51 52 48 c 1,26,27
 46 48 46 48 28 48 c 1,28,29
 28 43 28 43 28 28 c 1,30,31
 32 28 32 28 44 28 c 1,32,33
 44 27 44 27 44 24 c 1,34,35
 40 24 40 24 28 24 c 1,36,37
 28 19 28 19 28 4 c 1,38,39
 34 4 34 4 52 4 c 1,40,41
 52 3 52 3 52 0 c 1,42,43
 45 0 45 0 24 0 c 1,44,45
 24 5 24 5 24 20 c 1,46,47
 19 20 19 20 4 20 c 1,48,49
 4 15 4 15 4 0 c 1,50,51
 3 0 3 0 0 0 c 1,8,9
EndSplineSet
EndChar

StartChar: Ccedilla
Encoding: 199 199 125
Width: 36
GlyphClass: 2
Flags: W
LayerCount: 2
Fore
SplineSet
8 -12 m 1,0,1
 8 -11 8 -11 8 -8 c 1,2,3
 10 -8 10 -8 16 -8 c 1,4,5
 16 -9 16 -9 16 -12 c 1,6,7
 14 -12 14 -12 8 -12 c 1,0,1
16 -8 m 1,8,9
 16 -7 16 -7 16 -4 c 1,10,11
 17 -4 17 -4 20 -4 c 1,12,13
 20 -5 20 -5 20 -8 c 1,14,15
 19 -8 19 -8 16 -8 c 1,8,9
12 -4 m 1,16,17
 12 -3 12 -3 12 0 c 1,18,19
 11 0 11 0 8 0 c 1,20,21
 8 1 8 1 8 4 c 1,22,23
 11 4 11 4 20 4 c 1,24,25
 20 3 20 3 20 0 c 1,26,27
 19 0 19 0 16 0 c 1,28,29
 16 -1 16 -1 16 -4 c 1,30,31
 15 -4 15 -4 12 -4 c 1,16,17
4 4 m 1,32,33
 4 5 4 5 4 8 c 1,34,35
 5 8 5 8 8 8 c 1,36,37
 8 7 8 7 8 4 c 1,38,39
 7 4 7 4 4 4 c 1,32,33
20 4 m 1,40,41
 20 5 20 5 20 8 c 1,42,43
 21 8 21 8 24 8 c 1,44,45
 24 7 24 7 24 4 c 1,46,47
 23 4 23 4 20 4 c 1,40,41
24 8 m 1,48,49
 24 9 24 9 24 12 c 1,50,51
 25 12 25 12 28 12 c 1,52,53
 28 11 28 11 28 8 c 1,54,55
 27 8 27 8 24 8 c 1,48,49
0 8 m 1,56,57
 0 17 0 17 0 44 c 1,58,59
 1 44 1 44 4 44 c 1,60,61
 4 35 4 35 4 8 c 1,62,63
 3 8 3 8 0 8 c 1,56,57
24 40 m 1,64,65
 24 41 24 41 24 44 c 1,66,67
 25 44 25 44 28 44 c 1,68,69
 28 43 28 43 28 40 c 1,70,71
 27 40 27 40 24 40 c 1,64,65
4 44 m 1,72,73
 4 45 4 45 4 48 c 1,74,75
 5 48 5 48 8 48 c 1,76,77
 8 47 8 47 8 44 c 1,78,79
 7 44 7 44 4 44 c 1,72,73
20 44 m 1,80,81
 20 45 20 45 20 48 c 1,82,83
 21 48 21 48 24 48 c 1,84,85
 24 47 24 47 24 44 c 1,86,87
 23 44 23 44 20 44 c 1,80,81
8 48 m 1,88,89
 8 49 8 49 8 52 c 1,90,91
 11 52 11 52 20 52 c 1,92,93
 20 51 20 51 20 48 c 1,94,95
 17 48 17 48 8 48 c 1,88,89
EndSplineSet
EndChar

StartChar: Egrave
Encoding: 200 200 126
Width: 36
GlyphClass: 2
Flags: W
LayerCount: 2
Fore
SplineSet
0 0 m 1,0,1
 0 13 0 13 0 52 c 1,2,3
 1 52 1 52 4 52 c 0,4,5
 10 52 10 52 28 52 c 1,6,7
 28 51 28 51 28 48 c 1,8,9
 22 48 22 48 4 48 c 1,10,11
 4 43 4 43 4 28 c 1,12,13
 7 28 7 28 16 28 c 1,14,15
 16 27 16 27 16 24 c 1,16,17
 13 24 13 24 4 24 c 1,18,19
 4 19 4 19 4 4 c 1,20,21
 10 4 10 4 28 4 c 1,22,23
 28 3 28 3 28 0 c 1,24,25
 21 0 21 0 0 0 c 1,0,1
12 56 m 1,26,27
 12 57 12 57 12 60 c 1,28,29
 13 60 13 60 16 60 c 1,30,31
 16 59 16 59 16 56 c 1,32,33
 15 56 15 56 12 56 c 1,26,27
8 60 m 1,34,35
 8 61 8 61 8 64 c 1,36,37
 9 64 9 64 12 64 c 1,38,39
 12 63 12 63 12 60 c 1,40,41
 11 60 11 60 8 60 c 1,34,35
4 64 m 1,42,43
 4 65 4 65 4 68 c 1,44,45
 5 68 5 68 8 68 c 1,46,47
 8 67 8 67 8 64 c 1,48,49
 7 64 7 64 4 64 c 1,42,43
EndSplineSet
EndChar

StartChar: Eacute
Encoding: 201 201 127
Width: 36
GlyphClass: 2
Flags: W
LayerCount: 2
Fore
SplineSet
0 0 m 1,0,1
 0 13 0 13 0 52 c 1,2,3
 5 52 5 52 20 52 c 0,4,5
 22 52 22 52 28 52 c 1,6,7
 28 51 28 51 28 48 c 1,8,9
 22 48 22 48 4 48 c 1,10,11
 4 43 4 43 4 28 c 1,12,13
 8 28 8 28 20 28 c 1,14,15
 20 27 20 27 20 24 c 1,16,17
 16 24 16 24 4 24 c 1,18,19
 4 19 4 19 4 4 c 1,20,21
 10 4 10 4 28 4 c 1,22,23
 28 3 28 3 28 0 c 1,24,25
 21 0 21 0 0 0 c 1,0,1
12 56 m 1,26,27
 12 57 12 57 12 60 c 1,28,29
 13 60 13 60 16 60 c 1,30,31
 16 59 16 59 16 56 c 1,32,33
 15 56 15 56 12 56 c 1,26,27
16 60 m 1,34,35
 16 61 16 61 16 64 c 1,36,37
 17 64 17 64 20 64 c 1,38,39
 20 63 20 63 20 60 c 1,40,41
 19 60 19 60 16 60 c 1,34,35
20 64 m 1,42,43
 20 65 20 65 20 68 c 1,44,45
 21 68 21 68 24 68 c 1,46,47
 24 67 24 67 24 64 c 1,48,49
 23 64 23 64 20 64 c 1,42,43
EndSplineSet
EndChar

StartChar: Ecircumflex
Encoding: 202 202 128
Width: 36
GlyphClass: 2
Flags: W
LayerCount: 2
Fore
SplineSet
0 0 m 1,0,1
 0 13 0 13 0 52 c 1,2,3
 3 52 3 52 12 52 c 0,4,5
 16 52 16 52 28 52 c 1,6,7
 28 51 28 51 28 48 c 1,8,9
 22 48 22 48 4 48 c 1,10,11
 4 43 4 43 4 28 c 1,12,13
 8 28 8 28 20 28 c 1,14,15
 20 27 20 27 20 24 c 1,16,17
 16 24 16 24 4 24 c 1,18,19
 4 19 4 19 4 4 c 1,20,21
 10 4 10 4 28 4 c 1,22,23
 28 3 28 3 28 0 c 1,24,25
 21 0 21 0 0 0 c 1,0,1
4 56 m 1,26,27
 4 57 4 57 4 60 c 1,28,29
 5 60 5 60 8 60 c 1,30,31
 8 59 8 59 8 56 c 1,32,33
 7 56 7 56 4 56 c 1,26,27
20 56 m 1,34,35
 20 57 20 57 20 60 c 1,36,37
 21 60 21 60 24 60 c 1,38,39
 24 59 24 59 24 56 c 1,40,41
 23 56 23 56 20 56 c 1,34,35
8 60 m 1,42,43
 8 61 8 61 8 64 c 1,44,45
 9 64 9 64 12 64 c 1,46,47
 12 63 12 63 12 60 c 1,48,49
 11 60 11 60 8 60 c 1,42,43
16 60 m 1,50,51
 16 61 16 61 16 64 c 1,52,53
 17 64 17 64 20 64 c 1,54,55
 20 63 20 63 20 60 c 1,56,57
 19 60 19 60 16 60 c 1,50,51
12 64 m 1,58,59
 12 65 12 65 12 68 c 1,60,61
 13 68 13 68 16 68 c 1,62,63
 16 67 16 67 16 64 c 1,64,65
 15 64 15 64 12 64 c 1,58,59
EndSplineSet
EndChar

StartChar: Edieresis
Encoding: 203 203 129
Width: 36
GlyphClass: 2
Flags: W
LayerCount: 2
Fore
SplineSet
0 0 m 1,0,1
 0 13 0 13 0 52 c 1,2,3
 1 52 1 52 4 52 c 0,4,5
 10 52 10 52 28 52 c 1,6,7
 28 51 28 51 28 48 c 1,8,9
 22 48 22 48 4 48 c 1,10,11
 4 43 4 43 4 28 c 1,12,13
 8 28 8 28 20 28 c 1,14,15
 20 27 20 27 20 24 c 1,16,17
 16 24 16 24 4 24 c 1,18,19
 4 19 4 19 4 4 c 1,20,21
 10 4 10 4 28 4 c 1,22,23
 28 3 28 3 28 0 c 1,24,25
 21 0 21 0 0 0 c 1,0,1
4 56 m 1,26,27
 4 57 4 57 4 60 c 1,28,29
 5 60 5 60 8 60 c 1,30,31
 8 59 8 59 8 56 c 1,32,33
 7 56 7 56 4 56 c 1,26,27
20 56 m 1,34,35
 20 57 20 57 20 60 c 1,36,37
 21 60 21 60 24 60 c 1,38,39
 24 59 24 59 24 56 c 1,40,41
 23 56 23 56 20 56 c 1,34,35
EndSplineSet
EndChar

StartChar: Igrave
Encoding: 204 204 130
Width: 12
GlyphClass: 2
Flags: W
LayerCount: 2
Fore
SplineSet
0 0 m 1,0,1
 0 13 0 13 0 52 c 1,2,3
 1 52 1 52 4 52 c 1,4,5
 4 39 4 39 4 0 c 1,6,7
 3 0 3 0 0 0 c 1,0,1
0 56 m 1,8,9
 0 57 0 57 0 60 c 1,10,11
 1 60 1 60 4 60 c 1,12,13
 4 59 4 59 4 56 c 1,14,15
 3 56 3 56 0 56 c 1,8,9
-4 60 m 1,16,17
 -4 61 -4 61 -4 64 c 1,18,19
 -3 64 -3 64 0 64 c 1,20,21
 0 63 0 63 0 60 c 1,22,23
 -1 60 -1 60 -4 60 c 1,16,17
-8 64 m 1,24,25
 -8 65 -8 65 -8 68 c 1,26,27
 -7 68 -7 68 -4 68 c 1,28,29
 -4 67 -4 67 -4 64 c 1,30,31
 -5 64 -5 64 -8 64 c 1,24,25
EndSplineSet
EndChar

StartChar: Iacute
Encoding: 205 205 131
Width: 12
GlyphClass: 2
Flags: W
LayerCount: 2
Fore
SplineSet
0 0 m 1,0,1
 0 13 0 13 0 52 c 1,2,3
 1 52 1 52 4 52 c 1,4,5
 4 39 4 39 4 0 c 1,6,7
 3 0 3 0 0 0 c 1,0,1
0 56 m 1,8,9
 0 57 0 57 0 60 c 1,10,11
 1 60 1 60 4 60 c 1,12,13
 4 59 4 59 4 56 c 1,14,15
 3 56 3 56 0 56 c 1,8,9
4 60 m 1,16,17
 4 61 4 61 4 64 c 1,18,19
 5 64 5 64 8 64 c 1,20,21
 8 63 8 63 8 60 c 1,22,23
 7 60 7 60 4 60 c 1,16,17
8 64 m 1,24,25
 8 65 8 65 8 68 c 1,26,27
 9 68 9 68 12 68 c 1,28,29
 12 67 12 67 12 64 c 1,30,31
 11 64 11 64 8 64 c 1,24,25
EndSplineSet
EndChar

StartChar: Icircumflex
Encoding: 206 206 132
Width: 12
GlyphClass: 2
Flags: W
LayerCount: 2
Fore
SplineSet
0 0 m 1,0,1
 0 13 0 13 0 52 c 1,2,3
 1 52 1 52 4 52 c 1,4,5
 4 39 4 39 4 0 c 1,6,7
 3 0 3 0 0 0 c 1,0,1
-8 56 m 1,8,9
 -8 57 -8 57 -8 60 c 1,10,11
 -7 60 -7 60 -4 60 c 1,12,13
 -4 59 -4 59 -4 56 c 1,14,15
 -5 56 -5 56 -8 56 c 1,8,9
8 56 m 1,16,17
 8 57 8 57 8 60 c 1,18,19
 9 60 9 60 12 60 c 1,20,21
 12 59 12 59 12 56 c 1,22,23
 11 56 11 56 8 56 c 1,16,17
-4 60 m 1,24,25
 -4 61 -4 61 -4 64 c 1,26,27
 -3 64 -3 64 0 64 c 1,28,29
 0 63 0 63 0 60 c 1,30,31
 -1 60 -1 60 -4 60 c 1,24,25
4 60 m 1,32,33
 4 61 4 61 4 64 c 1,34,35
 5 64 5 64 8 64 c 1,36,37
 8 63 8 63 8 60 c 1,38,39
 7 60 7 60 4 60 c 1,32,33
0 64 m 1,40,41
 0 65 0 65 0 68 c 1,42,43
 1 68 1 68 4 68 c 1,44,45
 4 67 4 67 4 64 c 1,46,47
 3 64 3 64 0 64 c 1,40,41
EndSplineSet
EndChar

StartChar: Idieresis
Encoding: 207 207 133
Width: 12
GlyphClass: 2
Flags: W
LayerCount: 2
Fore
SplineSet
0 0 m 1,0,1
 0 13 0 13 0 52 c 1,2,3
 1 52 1 52 4 52 c 1,4,5
 4 39 4 39 4 0 c 1,6,7
 3 0 3 0 0 0 c 1,0,1
-8 56 m 1,8,9
 -8 57 -8 57 -8 60 c 1,10,11
 -7 60 -7 60 -4 60 c 1,12,13
 -4 59 -4 59 -4 56 c 1,14,15
 -5 56 -5 56 -8 56 c 1,8,9
8 56 m 1,16,17
 8 57 8 57 8 60 c 1,18,19
 9 60 9 60 12 60 c 1,20,21
 12 59 12 59 12 56 c 1,22,23
 11 56 11 56 8 56 c 1,16,17
EndSplineSet
EndChar

StartChar: Eth
Encoding: 208 208 134
Width: 36
GlyphClass: 2
Flags: W
LayerCount: 2
Fore
SplineSet
20 4 m 1,0,1
 20 5 20 5 20 8 c 1,2,3
 21 8 21 8 24 8 c 1,4,5
 24 7 24 7 24 4 c 1,6,7
 23 4 23 4 20 4 c 1,0,1
24 8 m 1,8,9
 24 17 24 17 24 44 c 1,10,11
 25 44 25 44 28 44 c 1,12,13
 28 35 28 35 28 8 c 1,14,15
 27 8 27 8 24 8 c 1,8,9
20 44 m 1,16,17
 20 45 20 45 20 48 c 1,18,19
 21 48 21 48 24 48 c 1,20,21
 24 47 24 47 24 44 c 1,22,23
 23 44 23 44 20 44 c 1,16,17
0 0 m 1,24,25
 0 6 0 6 0 24 c 1,26,27
 -1 24 -1 24 -4 24 c 1,28,29
 -4 25 -4 25 -4 28 c 1,30,31
 -3 28 -3 28 0 28 c 1,32,33
 0 34 0 34 0 52 c 1,34,35
 5 52 5 52 20 52 c 1,36,37
 20 51 20 51 20 48 c 1,38,39
 16 48 16 48 4 48 c 1,40,41
 4 43 4 43 4 28 c 1,42,43
 6 28 6 28 12 28 c 1,44,45
 12 27 12 27 12 24 c 1,46,47
 10 24 10 24 4 24 c 1,48,49
 4 19 4 19 4 4 c 1,50,51
 8 4 8 4 20 4 c 1,52,53
 20 3 20 3 20 0 c 1,54,55
 15 0 15 0 0 0 c 1,24,25
EndSplineSet
EndChar

StartChar: Ntilde
Encoding: 209 209 135
Width: 36
GlyphClass: 2
Flags: W
LayerCount: 2
Fore
SplineSet
16 24 m 1,0,1
 16 25 16 25 16 28 c 1,2,3
 17 28 17 28 20 28 c 1,4,5
 20 27 20 27 20 24 c 1,6,7
 19 24 19 24 16 24 c 1,0,1
12 28 m 1,8,9
 12 29 12 29 12 32 c 1,10,11
 13 32 13 32 16 32 c 1,12,13
 16 31 16 31 16 28 c 1,14,15
 15 28 15 28 12 28 c 1,8,9
8 32 m 1,16,17
 8 33 8 33 8 36 c 1,18,19
 9 36 9 36 12 36 c 1,20,21
 12 35 12 35 12 32 c 1,22,23
 11 32 11 32 8 32 c 1,16,17
0 0 m 1,24,25
 0 13 0 13 0 52 c 1,26,27
 1 52 1 52 4 52 c 1,28,29
 4 49 4 49 4 40 c 1,30,31
 5 40 5 40 8 40 c 1,32,33
 8 39 8 39 8 36 c 1,34,35
 7 36 7 36 4 36 c 1,36,37
 4 27 4 27 4 0 c 1,38,39
 3 0 3 0 0 0 c 1,24,25
24 0 m 1,40,41
 24 5 24 5 24 20 c 1,42,43
 23 20 23 20 20 20 c 1,44,45
 20 21 20 21 20 24 c 1,46,47
 21 24 21 24 24 24 c 1,48,49
 24 31 24 31 24 52 c 1,50,51
 25 52 25 52 28 52 c 1,52,53
 28 39 28 39 28 0 c 1,54,55
 27 0 27 0 24 0 c 1,40,41
0 56 m 1,56,57
 0 57 0 57 0 60 c 1,58,59
 1 60 1 60 4 60 c 1,60,61
 4 59 4 59 4 56 c 1,62,63
 3 56 3 56 0 56 c 1,56,57
20 56 m 1,64,65
 20 57 20 57 20 60 c 1,66,67
 21 60 21 60 24 60 c 1,68,69
 24 59 24 59 24 56 c 1,70,71
 23 56 23 56 20 56 c 1,64,65
4 60 m 1,72,73
 4 61 4 61 4 64 c 1,74,75
 5 64 5 64 8 64 c 1,76,77
 8 63 8 63 8 60 c 1,78,79
 7 60 7 60 4 60 c 1,72,73
16 60 m 1,80,81
 16 61 16 61 16 64 c 1,82,83
 17 64 17 64 20 64 c 1,84,85
 20 63 20 63 20 60 c 1,86,87
 19 60 19 60 16 60 c 1,80,81
8 64 m 1,88,89
 8 65 8 65 8 68 c 1,90,91
 10 68 10 68 16 68 c 1,92,93
 16 67 16 67 16 64 c 1,94,95
 14 64 14 64 8 64 c 1,88,89
24 60 m 1,96,97
 24 62 24 62 24 68 c 1,98,99
 25 68 25 68 28 68 c 1,100,101
 28 66 28 66 28 60 c 1,102,103
 27 60 27 60 24 60 c 1,96,97
EndSplineSet
EndChar

StartChar: Ograve
Encoding: 210 210 136
Width: 36
GlyphClass: 2
Flags: W
LayerCount: 2
Fore
SplineSet
8 0 m 1,0,1
 8 1 8 1 8 4 c 1,2,3
 11 4 11 4 20 4 c 1,4,5
 20 3 20 3 20 0 c 1,6,7
 17 0 17 0 8 0 c 1,0,1
4 4 m 1,8,9
 4 5 4 5 4 8 c 1,10,11
 5 8 5 8 8 8 c 1,12,13
 8 7 8 7 8 4 c 1,14,15
 7 4 7 4 4 4 c 1,8,9
20 4 m 1,16,17
 20 5 20 5 20 8 c 1,18,19
 21 8 21 8 24 8 c 1,20,21
 24 7 24 7 24 4 c 1,22,23
 23 4 23 4 20 4 c 1,16,17
0 8 m 1,24,25
 0 17 0 17 0 44 c 1,26,27
 1 44 1 44 4 44 c 1,28,29
 4 35 4 35 4 8 c 1,30,31
 3 8 3 8 0 8 c 1,24,25
24 8 m 1,32,33
 24 17 24 17 24 44 c 1,34,35
 25 44 25 44 28 44 c 1,36,37
 28 35 28 35 28 8 c 1,38,39
 27 8 27 8 24 8 c 1,32,33
4 44 m 1,40,41
 4 45 4 45 4 48 c 1,42,43
 5 48 5 48 8 48 c 1,44,45
 8 47 8 47 8 44 c 1,46,47
 7 44 7 44 4 44 c 1,40,41
20 44 m 1,48,49
 20 45 20 45 20 48 c 1,50,51
 21 48 21 48 24 48 c 1,52,53
 24 47 24 47 24 44 c 1,54,55
 23 44 23 44 20 44 c 1,48,49
8 48 m 1,56,57
 8 49 8 49 8 52 c 1,58,59
 11 52 11 52 20 52 c 1,60,61
 20 51 20 51 20 48 c 1,62,63
 17 48 17 48 8 48 c 1,56,57
12 56 m 1,64,65
 12 57 12 57 12 60 c 1,66,67
 13 60 13 60 16 60 c 1,68,69
 16 59 16 59 16 56 c 1,70,71
 15 56 15 56 12 56 c 1,64,65
8 60 m 1,72,73
 8 61 8 61 8 64 c 1,74,75
 9 64 9 64 12 64 c 1,76,77
 12 63 12 63 12 60 c 1,78,79
 11 60 11 60 8 60 c 1,72,73
4 64 m 1,80,81
 4 65 4 65 4 68 c 1,82,83
 5 68 5 68 8 68 c 1,84,85
 8 67 8 67 8 64 c 1,86,87
 7 64 7 64 4 64 c 1,80,81
EndSplineSet
EndChar

StartChar: Oacute
Encoding: 211 211 137
Width: 36
GlyphClass: 2
Flags: W
LayerCount: 2
Fore
SplineSet
8 0 m 1,0,1
 8 1 8 1 8 4 c 1,2,3
 11 4 11 4 20 4 c 1,4,5
 20 3 20 3 20 0 c 1,6,7
 17 0 17 0 8 0 c 1,0,1
4 4 m 1,8,9
 4 5 4 5 4 8 c 1,10,11
 5 8 5 8 8 8 c 1,12,13
 8 7 8 7 8 4 c 1,14,15
 7 4 7 4 4 4 c 1,8,9
20 4 m 1,16,17
 20 5 20 5 20 8 c 1,18,19
 21 8 21 8 24 8 c 1,20,21
 24 7 24 7 24 4 c 1,22,23
 23 4 23 4 20 4 c 1,16,17
0 8 m 1,24,25
 0 17 0 17 0 44 c 1,26,27
 1 44 1 44 4 44 c 1,28,29
 4 35 4 35 4 8 c 1,30,31
 3 8 3 8 0 8 c 1,24,25
24 8 m 1,32,33
 24 17 24 17 24 44 c 1,34,35
 25 44 25 44 28 44 c 1,36,37
 28 35 28 35 28 8 c 1,38,39
 27 8 27 8 24 8 c 1,32,33
4 44 m 1,40,41
 4 45 4 45 4 48 c 1,42,43
 5 48 5 48 8 48 c 1,44,45
 8 47 8 47 8 44 c 1,46,47
 7 44 7 44 4 44 c 1,40,41
20 44 m 1,48,49
 20 45 20 45 20 48 c 1,50,51
 21 48 21 48 24 48 c 1,52,53
 24 47 24 47 24 44 c 1,54,55
 23 44 23 44 20 44 c 1,48,49
8 48 m 1,56,57
 8 49 8 49 8 52 c 1,58,59
 11 52 11 52 20 52 c 1,60,61
 20 51 20 51 20 48 c 1,62,63
 17 48 17 48 8 48 c 1,56,57
12 56 m 1,64,65
 12 57 12 57 12 60 c 1,66,67
 13 60 13 60 16 60 c 1,68,69
 16 59 16 59 16 56 c 1,70,71
 15 56 15 56 12 56 c 1,64,65
16 60 m 1,72,73
 16 61 16 61 16 64 c 1,74,75
 17 64 17 64 20 64 c 1,76,77
 20 63 20 63 20 60 c 1,78,79
 19 60 19 60 16 60 c 1,72,73
20 64 m 1,80,81
 20 65 20 65 20 68 c 1,82,83
 21 68 21 68 24 68 c 1,84,85
 24 67 24 67 24 64 c 1,86,87
 23 64 23 64 20 64 c 1,80,81
EndSplineSet
EndChar

StartChar: Ocircumflex
Encoding: 212 212 138
Width: 36
GlyphClass: 2
Flags: W
LayerCount: 2
Fore
SplineSet
8 0 m 1,0,1
 8 1 8 1 8 4 c 1,2,3
 9 4 9 4 12 4 c 0,4,5
 14 4 14 4 20 4 c 1,6,7
 20 3 20 3 20 0 c 1,8,9
 17 0 17 0 8 0 c 1,0,1
4 4 m 1,10,11
 4 5 4 5 4 8 c 1,12,13
 5 8 5 8 8 8 c 1,14,15
 8 7 8 7 8 4 c 1,16,17
 7 4 7 4 4 4 c 1,10,11
20 4 m 1,18,19
 20 5 20 5 20 8 c 1,20,21
 21 8 21 8 24 8 c 1,22,23
 24 7 24 7 24 4 c 1,24,25
 23 4 23 4 20 4 c 1,18,19
0 8 m 1,26,27
 0 17 0 17 0 44 c 1,28,29
 1 44 1 44 4 44 c 1,30,31
 4 35 4 35 4 8 c 1,32,33
 3 8 3 8 0 8 c 1,26,27
24 8 m 1,34,35
 24 17 24 17 24 44 c 1,36,37
 25 44 25 44 28 44 c 1,38,39
 28 35 28 35 28 8 c 1,40,41
 27 8 27 8 24 8 c 1,34,35
4 44 m 1,42,43
 4 45 4 45 4 48 c 1,44,45
 5 48 5 48 8 48 c 1,46,47
 8 47 8 47 8 44 c 1,48,49
 7 44 7 44 4 44 c 1,42,43
20 44 m 1,50,51
 20 45 20 45 20 48 c 1,52,53
 21 48 21 48 24 48 c 1,54,55
 24 47 24 47 24 44 c 1,56,57
 23 44 23 44 20 44 c 1,50,51
8 48 m 1,58,59
 8 49 8 49 8 52 c 1,60,61
 11 52 11 52 20 52 c 1,62,63
 20 51 20 51 20 48 c 1,64,65
 17 48 17 48 8 48 c 1,58,59
4 56 m 1,66,67
 4 57 4 57 4 60 c 1,68,69
 5 60 5 60 8 60 c 1,70,71
 8 59 8 59 8 56 c 1,72,73
 7 56 7 56 4 56 c 1,66,67
20 56 m 1,74,75
 20 57 20 57 20 60 c 1,76,77
 21 60 21 60 24 60 c 1,78,79
 24 59 24 59 24 56 c 1,80,81
 23 56 23 56 20 56 c 1,74,75
8 60 m 1,82,83
 8 61 8 61 8 64 c 1,84,85
 9 64 9 64 12 64 c 1,86,87
 12 63 12 63 12 60 c 1,88,89
 11 60 11 60 8 60 c 1,82,83
16 60 m 1,90,91
 16 61 16 61 16 64 c 1,92,93
 17 64 17 64 20 64 c 1,94,95
 20 63 20 63 20 60 c 1,96,97
 19 60 19 60 16 60 c 1,90,91
12 64 m 1,98,99
 12 65 12 65 12 68 c 1,100,101
 13 68 13 68 16 68 c 1,102,103
 16 67 16 67 16 64 c 1,104,105
 15 64 15 64 12 64 c 1,98,99
EndSplineSet
EndChar

StartChar: Otilde
Encoding: 213 213 139
Width: 36
GlyphClass: 2
Flags: W
LayerCount: 2
Fore
SplineSet
8 0 m 1,0,1
 8 1 8 1 8 4 c 1,2,3
 11 4 11 4 20 4 c 1,4,5
 20 3 20 3 20 0 c 1,6,7
 17 0 17 0 8 0 c 1,0,1
4 4 m 1,8,9
 4 5 4 5 4 8 c 1,10,11
 5 8 5 8 8 8 c 1,12,13
 8 7 8 7 8 4 c 1,14,15
 7 4 7 4 4 4 c 1,8,9
20 4 m 1,16,17
 20 5 20 5 20 8 c 1,18,19
 21 8 21 8 24 8 c 1,20,21
 24 7 24 7 24 4 c 1,22,23
 23 4 23 4 20 4 c 1,16,17
0 8 m 1,24,25
 0 17 0 17 0 44 c 1,26,27
 1 44 1 44 4 44 c 1,28,29
 4 35 4 35 4 8 c 1,30,31
 3 8 3 8 0 8 c 1,24,25
24 8 m 1,32,33
 24 17 24 17 24 44 c 1,34,35
 25 44 25 44 28 44 c 1,36,37
 28 35 28 35 28 8 c 1,38,39
 27 8 27 8 24 8 c 1,32,33
4 44 m 1,40,41
 4 45 4 45 4 48 c 1,42,43
 5 48 5 48 8 48 c 1,44,45
 8 47 8 47 8 44 c 1,46,47
 7 44 7 44 4 44 c 1,40,41
20 44 m 1,48,49
 20 45 20 45 20 48 c 1,50,51
 21 48 21 48 24 48 c 1,52,53
 24 47 24 47 24 44 c 1,54,55
 23 44 23 44 20 44 c 1,48,49
8 48 m 1,56,57
 8 49 8 49 8 52 c 1,58,59
 11 52 11 52 20 52 c 1,60,61
 20 51 20 51 20 48 c 1,62,63
 17 48 17 48 8 48 c 1,56,57
0 56 m 1,64,65
 0 57 0 57 0 60 c 1,66,67
 1 60 1 60 4 60 c 1,68,69
 4 59 4 59 4 56 c 1,70,71
 3 56 3 56 0 56 c 1,64,65
20 56 m 1,72,73
 20 57 20 57 20 60 c 1,74,75
 21 60 21 60 24 60 c 1,76,77
 24 59 24 59 24 56 c 1,78,79
 23 56 23 56 20 56 c 1,72,73
4 60 m 1,80,81
 4 61 4 61 4 64 c 1,82,83
 5 64 5 64 8 64 c 1,84,85
 8 63 8 63 8 60 c 1,86,87
 7 60 7 60 4 60 c 1,80,81
16 60 m 1,88,89
 16 61 16 61 16 64 c 1,90,91
 17 64 17 64 20 64 c 1,92,93
 20 63 20 63 20 60 c 1,94,95
 19 60 19 60 16 60 c 1,88,89
8 64 m 1,96,97
 8 65 8 65 8 68 c 1,98,99
 10 68 10 68 16 68 c 1,100,101
 16 67 16 67 16 64 c 1,102,103
 14 64 14 64 8 64 c 1,96,97
24 60 m 1,104,105
 24 62 24 62 24 68 c 1,106,107
 25 68 25 68 28 68 c 1,108,109
 28 66 28 66 28 60 c 1,110,111
 27 60 27 60 24 60 c 1,104,105
EndSplineSet
EndChar

StartChar: Odieresis
Encoding: 214 214 140
Width: 36
GlyphClass: 2
Flags: W
LayerCount: 2
Fore
SplineSet
8 0 m 1,0,1
 8 1 8 1 8 4 c 1,2,3
 11 4 11 4 20 4 c 1,4,5
 20 3 20 3 20 0 c 1,6,7
 17 0 17 0 8 0 c 1,0,1
4 4 m 1,8,9
 4 5 4 5 4 8 c 1,10,11
 5 8 5 8 8 8 c 1,12,13
 8 7 8 7 8 4 c 1,14,15
 7 4 7 4 4 4 c 1,8,9
20 4 m 1,16,17
 20 5 20 5 20 8 c 1,18,19
 21 8 21 8 24 8 c 1,20,21
 24 7 24 7 24 4 c 1,22,23
 23 4 23 4 20 4 c 1,16,17
0 8 m 1,24,25
 0 17 0 17 0 44 c 1,26,27
 1 44 1 44 4 44 c 1,28,29
 4 35 4 35 4 8 c 1,30,31
 3 8 3 8 0 8 c 1,24,25
24 8 m 1,32,33
 24 17 24 17 24 44 c 1,34,35
 25 44 25 44 28 44 c 1,36,37
 28 35 28 35 28 8 c 1,38,39
 27 8 27 8 24 8 c 1,32,33
4 44 m 1,40,41
 4 45 4 45 4 48 c 1,42,43
 5 48 5 48 8 48 c 1,44,45
 8 47 8 47 8 44 c 1,46,47
 7 44 7 44 4 44 c 1,40,41
20 44 m 1,48,49
 20 45 20 45 20 48 c 1,50,51
 21 48 21 48 24 48 c 1,52,53
 24 47 24 47 24 44 c 1,54,55
 23 44 23 44 20 44 c 1,48,49
8 48 m 1,56,57
 8 49 8 49 8 52 c 1,58,59
 11 52 11 52 20 52 c 1,60,61
 20 51 20 51 20 48 c 1,62,63
 17 48 17 48 8 48 c 1,56,57
4 56 m 1,64,65
 4 57 4 57 4 60 c 1,66,67
 5 60 5 60 8 60 c 1,68,69
 8 59 8 59 8 56 c 1,70,71
 7 56 7 56 4 56 c 1,64,65
20 56 m 1,72,73
 20 57 20 57 20 60 c 1,74,75
 21 60 21 60 24 60 c 1,76,77
 24 59 24 59 24 56 c 1,78,79
 23 56 23 56 20 56 c 1,72,73
EndSplineSet
EndChar

StartChar: multiply
Encoding: 215 215 141
Width: 28
GlyphClass: 2
Flags: W
LayerCount: 2
Fore
SplineSet
0 12 m 1,0,1
 0 13 0 13 0 16 c 1,2,3
 1 16 1 16 4 16 c 1,4,5
 4 15 4 15 4 12 c 1,6,7
 3 12 3 12 0 12 c 1,0,1
16 12 m 1,8,9
 16 13 16 13 16 16 c 1,10,11
 17 16 17 16 20 16 c 1,12,13
 20 15 20 15 20 12 c 1,14,15
 19 12 19 12 16 12 c 1,8,9
4 16 m 1,16,17
 4 17 4 17 4 20 c 1,18,19
 5 20 5 20 8 20 c 1,20,21
 8 19 8 19 8 16 c 1,22,23
 7 16 7 16 4 16 c 1,16,17
12 16 m 1,24,25
 12 17 12 17 12 20 c 1,26,27
 13 20 13 20 16 20 c 1,28,29
 16 19 16 19 16 16 c 1,30,31
 15 16 15 16 12 16 c 1,24,25
8 20 m 1,32,33
 8 21 8 21 8 24 c 1,34,35
 9 24 9 24 12 24 c 1,36,37
 12 23 12 23 12 20 c 1,38,39
 11 20 11 20 8 20 c 1,32,33
4 24 m 1,40,41
 4 25 4 25 4 28 c 1,42,43
 5 28 5 28 8 28 c 1,44,45
 8 27 8 27 8 24 c 1,46,47
 7 24 7 24 4 24 c 1,40,41
12 24 m 1,48,49
 12 25 12 25 12 28 c 1,50,51
 13 28 13 28 16 28 c 1,52,53
 16 27 16 27 16 24 c 1,54,55
 15 24 15 24 12 24 c 1,48,49
0 28 m 1,56,57
 0 29 0 29 0 32 c 1,58,59
 1 32 1 32 4 32 c 1,60,61
 4 31 4 31 4 28 c 1,62,63
 3 28 3 28 0 28 c 1,56,57
16 28 m 1,64,65
 16 29 16 29 16 32 c 1,66,67
 17 32 17 32 20 32 c 1,68,69
 20 31 20 31 20 28 c 1,70,71
 19 28 19 28 16 28 c 1,64,65
EndSplineSet
EndChar

StartChar: Oslash
Encoding: 216 216 142
Width: 44
GlyphClass: 2
Flags: W
LayerCount: 2
Fore
SplineSet
-8 0 m 1,0,1
 -8 1 -8 1 -8 4 c 1,2,3
 -7 4 -7 4 -4 4 c 1,4,5
 -4 3 -4 3 -4 0 c 1,6,7
 -5 0 -5 0 -8 0 c 1,0,1
8 0 m 1,8,9
 8 1 8 1 8 4 c 1,10,11
 11 4 11 4 20 4 c 1,12,13
 20 3 20 3 20 0 c 1,14,15
 17 0 17 0 8 0 c 1,8,9
-4 4 m 1,16,17
 -4 5 -4 5 -4 8 c 1,18,19
 -3 8 -3 8 0 8 c 1,20,21
 0 7 0 7 0 4 c 1,22,23
 -1 4 -1 4 -4 4 c 1,16,17
4 4 m 1,24,25
 4 5 4 5 4 8 c 1,26,27
 5 8 5 8 8 8 c 1,28,29
 8 7 8 7 8 4 c 1,30,31
 7 4 7 4 4 4 c 1,24,25
20 4 m 1,32,33
 20 5 20 5 20 8 c 1,34,35
 21 8 21 8 24 8 c 1,36,37
 24 7 24 7 24 4 c 1,38,39
 23 4 23 4 20 4 c 1,32,33
8 20 m 1,40,41
 8 21 8 21 8 24 c 1,42,43
 9 24 9 24 12 24 c 1,44,45
 12 23 12 23 12 20 c 1,46,47
 11 20 11 20 8 20 c 1,40,41
12 24 m 1,48,49
 12 25 12 25 12 28 c 1,50,51
 13 28 13 28 16 28 c 1,52,53
 16 27 16 27 16 24 c 1,54,55
 15 24 15 24 12 24 c 1,48,49
16 28 m 1,56,57
 16 29 16 29 16 32 c 1,58,59
 17 32 17 32 20 32 c 1,60,61
 20 31 20 31 20 28 c 1,62,63
 19 28 19 28 16 28 c 1,56,57
0 8 m 1,64,65
 0 17 0 17 0 44 c 1,66,67
 1 44 1 44 4 44 c 1,68,69
 4 38 4 38 4 20 c 1,70,71
 5 20 5 20 8 20 c 1,72,73
 8 19 8 19 8 16 c 1,74,75
 7 16 7 16 4 16 c 1,76,77
 4 14 4 14 4 8 c 1,78,79
 3 8 3 8 0 8 c 1,64,65
24 8 m 1,80,81
 24 14 24 14 24 32 c 1,82,83
 23 32 23 32 20 32 c 1,84,85
 20 33 20 33 20 36 c 1,86,87
 21 36 21 36 24 36 c 1,88,89
 24 38 24 38 24 44 c 1,90,91
 25 44 25 44 28 44 c 1,92,93
 28 35 28 35 28 8 c 1,94,95
 27 8 27 8 24 8 c 1,80,81
4 44 m 1,96,97
 4 45 4 45 4 48 c 1,98,99
 5 48 5 48 8 48 c 1,100,101
 8 47 8 47 8 44 c 1,102,103
 7 44 7 44 4 44 c 1,96,97
20 44 m 1,104,105
 20 45 20 45 20 48 c 1,106,107
 21 48 21 48 24 48 c 1,108,109
 24 47 24 47 24 44 c 1,110,111
 23 44 23 44 20 44 c 1,104,105
28 44 m 1,112,113
 28 45 28 45 28 48 c 1,114,115
 29 48 29 48 32 48 c 1,116,117
 32 47 32 47 32 44 c 1,118,119
 31 44 31 44 28 44 c 1,112,113
8 48 m 1,120,121
 8 49 8 49 8 52 c 1,122,123
 11 52 11 52 20 52 c 1,124,125
 20 51 20 51 20 48 c 1,126,127
 17 48 17 48 8 48 c 1,120,121
32 48 m 1,128,129
 32 49 32 49 32 52 c 1,130,131
 33 52 33 52 36 52 c 1,132,133
 36 51 36 51 36 48 c 1,134,135
 35 48 35 48 32 48 c 1,128,129
EndSplineSet
EndChar

StartChar: Ugrave
Encoding: 217 217 143
Width: 36
GlyphClass: 2
Flags: W
LayerCount: 2
Fore
SplineSet
8 0 m 1,0,1
 8 1 8 1 8 4 c 1,2,3
 11 4 11 4 20 4 c 1,4,5
 20 3 20 3 20 0 c 1,6,7
 17 0 17 0 8 0 c 1,0,1
4 4 m 1,8,9
 4 5 4 5 4 8 c 1,10,11
 5 8 5 8 8 8 c 1,12,13
 8 7 8 7 8 4 c 1,14,15
 7 4 7 4 4 4 c 1,8,9
20 4 m 1,16,17
 20 5 20 5 20 8 c 1,18,19
 21 8 21 8 24 8 c 1,20,21
 24 7 24 7 24 4 c 1,22,23
 23 4 23 4 20 4 c 1,16,17
0 8 m 1,24,25
 0 19 0 19 0 52 c 1,26,27
 1 52 1 52 4 52 c 1,28,29
 4 41 4 41 4 8 c 1,30,31
 3 8 3 8 0 8 c 1,24,25
24 8 m 1,32,33
 24 19 24 19 24 52 c 1,34,35
 25 52 25 52 28 52 c 1,36,37
 28 41 28 41 28 8 c 1,38,39
 27 8 27 8 24 8 c 1,32,33
12 56 m 1,40,41
 12 57 12 57 12 60 c 1,42,43
 13 60 13 60 16 60 c 1,44,45
 16 59 16 59 16 56 c 1,46,47
 15 56 15 56 12 56 c 1,40,41
8 60 m 1,48,49
 8 61 8 61 8 64 c 1,50,51
 9 64 9 64 12 64 c 1,52,53
 12 63 12 63 12 60 c 1,54,55
 11 60 11 60 8 60 c 1,48,49
4 64 m 1,56,57
 4 65 4 65 4 68 c 1,58,59
 5 68 5 68 8 68 c 1,60,61
 8 67 8 67 8 64 c 1,62,63
 7 64 7 64 4 64 c 1,56,57
EndSplineSet
EndChar

StartChar: Uacute
Encoding: 218 218 144
Width: 36
GlyphClass: 2
Flags: W
LayerCount: 2
Fore
SplineSet
8 0 m 1,0,1
 8 1 8 1 8 4 c 1,2,3
 11 4 11 4 20 4 c 1,4,5
 20 3 20 3 20 0 c 1,6,7
 17 0 17 0 8 0 c 1,0,1
4 4 m 1,8,9
 4 5 4 5 4 8 c 1,10,11
 5 8 5 8 8 8 c 1,12,13
 8 7 8 7 8 4 c 1,14,15
 7 4 7 4 4 4 c 1,8,9
20 4 m 1,16,17
 20 5 20 5 20 8 c 1,18,19
 21 8 21 8 24 8 c 1,20,21
 24 7 24 7 24 4 c 1,22,23
 23 4 23 4 20 4 c 1,16,17
0 8 m 1,24,25
 0 19 0 19 0 52 c 1,26,27
 1 52 1 52 4 52 c 1,28,29
 4 41 4 41 4 8 c 1,30,31
 3 8 3 8 0 8 c 1,24,25
24 8 m 1,32,33
 24 19 24 19 24 52 c 1,34,35
 25 52 25 52 28 52 c 1,36,37
 28 41 28 41 28 8 c 1,38,39
 27 8 27 8 24 8 c 1,32,33
12 56 m 1,40,41
 12 57 12 57 12 60 c 1,42,43
 13 60 13 60 16 60 c 1,44,45
 16 59 16 59 16 56 c 1,46,47
 15 56 15 56 12 56 c 1,40,41
16 60 m 1,48,49
 16 61 16 61 16 64 c 1,50,51
 17 64 17 64 20 64 c 1,52,53
 20 63 20 63 20 60 c 1,54,55
 19 60 19 60 16 60 c 1,48,49
20 64 m 1,56,57
 20 65 20 65 20 68 c 1,58,59
 21 68 21 68 24 68 c 1,60,61
 24 67 24 67 24 64 c 1,62,63
 23 64 23 64 20 64 c 1,56,57
EndSplineSet
EndChar

StartChar: Ucircumflex
Encoding: 219 219 145
Width: 36
GlyphClass: 2
Flags: W
LayerCount: 2
Fore
SplineSet
8 0 m 1,0,1
 8 1 8 1 8 4 c 1,2,3
 9 4 9 4 12 4 c 0,4,5
 14 4 14 4 20 4 c 1,6,7
 20 3 20 3 20 0 c 1,8,9
 17 0 17 0 8 0 c 1,0,1
4 4 m 1,10,11
 4 5 4 5 4 8 c 1,12,13
 5 8 5 8 8 8 c 1,14,15
 8 7 8 7 8 4 c 1,16,17
 7 4 7 4 4 4 c 1,10,11
20 4 m 1,18,19
 20 5 20 5 20 8 c 1,20,21
 21 8 21 8 24 8 c 1,22,23
 24 7 24 7 24 4 c 1,24,25
 23 4 23 4 20 4 c 1,18,19
0 8 m 1,26,27
 0 19 0 19 0 52 c 1,28,29
 1 52 1 52 4 52 c 1,30,31
 4 41 4 41 4 8 c 1,32,33
 3 8 3 8 0 8 c 1,26,27
24 8 m 1,34,35
 24 19 24 19 24 52 c 1,36,37
 25 52 25 52 28 52 c 1,38,39
 28 41 28 41 28 8 c 1,40,41
 27 8 27 8 24 8 c 1,34,35
4 56 m 1,42,43
 4 57 4 57 4 60 c 1,44,45
 5 60 5 60 8 60 c 1,46,47
 8 59 8 59 8 56 c 1,48,49
 7 56 7 56 4 56 c 1,42,43
20 56 m 1,50,51
 20 57 20 57 20 60 c 1,52,53
 21 60 21 60 24 60 c 1,54,55
 24 59 24 59 24 56 c 1,56,57
 23 56 23 56 20 56 c 1,50,51
8 60 m 1,58,59
 8 61 8 61 8 64 c 1,60,61
 9 64 9 64 12 64 c 1,62,63
 12 63 12 63 12 60 c 1,64,65
 11 60 11 60 8 60 c 1,58,59
16 60 m 1,66,67
 16 61 16 61 16 64 c 1,68,69
 17 64 17 64 20 64 c 1,70,71
 20 63 20 63 20 60 c 1,72,73
 19 60 19 60 16 60 c 1,66,67
12 64 m 1,74,75
 12 65 12 65 12 68 c 1,76,77
 13 68 13 68 16 68 c 1,78,79
 16 67 16 67 16 64 c 1,80,81
 15 64 15 64 12 64 c 1,74,75
EndSplineSet
EndChar

StartChar: Udieresis
Encoding: 220 220 146
Width: 36
GlyphClass: 2
Flags: W
LayerCount: 2
Fore
SplineSet
8 0 m 1,0,1
 8 1 8 1 8 4 c 1,2,3
 11 4 11 4 20 4 c 1,4,5
 20 3 20 3 20 0 c 1,6,7
 17 0 17 0 8 0 c 1,0,1
4 4 m 1,8,9
 4 5 4 5 4 8 c 1,10,11
 5 8 5 8 8 8 c 1,12,13
 8 7 8 7 8 4 c 1,14,15
 7 4 7 4 4 4 c 1,8,9
20 4 m 1,16,17
 20 5 20 5 20 8 c 1,18,19
 21 8 21 8 24 8 c 1,20,21
 24 7 24 7 24 4 c 1,22,23
 23 4 23 4 20 4 c 1,16,17
0 8 m 1,24,25
 0 19 0 19 0 52 c 1,26,27
 1 52 1 52 4 52 c 1,28,29
 4 41 4 41 4 8 c 1,30,31
 3 8 3 8 0 8 c 1,24,25
24 8 m 1,32,33
 24 19 24 19 24 52 c 1,34,35
 25 52 25 52 28 52 c 1,36,37
 28 41 28 41 28 8 c 1,38,39
 27 8 27 8 24 8 c 1,32,33
4 56 m 1,40,41
 4 57 4 57 4 60 c 1,42,43
 5 60 5 60 8 60 c 1,44,45
 8 59 8 59 8 56 c 1,46,47
 7 56 7 56 4 56 c 1,40,41
20 56 m 1,48,49
 20 57 20 57 20 60 c 1,50,51
 21 60 21 60 24 60 c 1,52,53
 24 59 24 59 24 56 c 1,54,55
 23 56 23 56 20 56 c 1,48,49
EndSplineSet
EndChar

StartChar: Yacute
Encoding: 221 221 147
Width: 36
GlyphClass: 2
Flags: W
LayerCount: 2
Fore
SplineSet
12 0 m 1,0,1
 12 6 12 6 12 24 c 1,2,3
 13 24 13 24 16 24 c 1,4,5
 16 18 16 18 16 0 c 1,6,7
 15 0 15 0 12 0 c 1,0,1
8 24 m 1,8,9
 8 25 8 25 8 28 c 1,10,11
 9 28 9 28 12 28 c 1,12,13
 12 27 12 27 12 24 c 1,14,15
 11 24 11 24 8 24 c 1,8,9
16 24 m 1,16,17
 16 25 16 25 16 28 c 1,18,19
 17 28 17 28 20 28 c 1,20,21
 20 27 20 27 20 24 c 1,22,23
 19 24 19 24 16 24 c 1,16,17
4 28 m 1,24,25
 4 30 4 30 4 36 c 1,26,27
 5 36 5 36 8 36 c 1,28,29
 8 34 8 34 8 28 c 1,30,31
 7 28 7 28 4 28 c 1,24,25
20 28 m 1,32,33
 20 30 20 30 20 36 c 1,34,35
 21 36 21 36 24 36 c 1,36,37
 24 34 24 34 24 28 c 1,38,39
 23 28 23 28 20 28 c 1,32,33
0 36 m 1,40,41
 0 40 0 40 0 52 c 1,42,43
 1 52 1 52 4 52 c 1,44,45
 4 48 4 48 4 36 c 1,46,47
 3 36 3 36 0 36 c 1,40,41
24 36 m 1,48,49
 24 40 24 40 24 52 c 1,50,51
 25 52 25 52 28 52 c 1,52,53
 28 48 28 48 28 36 c 1,54,55
 27 36 27 36 24 36 c 1,48,49
12 56 m 1,56,57
 12 57 12 57 12 60 c 1,58,59
 13 60 13 60 16 60 c 1,60,61
 16 59 16 59 16 56 c 1,62,63
 15 56 15 56 12 56 c 1,56,57
16 60 m 1,64,65
 16 61 16 61 16 64 c 1,66,67
 17 64 17 64 20 64 c 1,68,69
 20 63 20 63 20 60 c 1,70,71
 19 60 19 60 16 60 c 1,64,65
20 64 m 1,72,73
 20 65 20 65 20 68 c 1,74,75
 21 68 21 68 24 68 c 1,76,77
 24 67 24 67 24 64 c 1,78,79
 23 64 23 64 20 64 c 1,72,73
EndSplineSet
EndChar

StartChar: Thorn
Encoding: 222 222 148
Width: 36
GlyphClass: 2
Flags: W
LayerCount: 2
Fore
SplineSet
8 8 m 1,0,1
 8 9 8 9 8 12 c 1,2,3
 11 12 11 12 20 12 c 1,4,5
 20 11 20 11 20 8 c 1,6,7
 17 8 17 8 8 8 c 1,0,1
20 12 m 1,8,9
 20 13 20 13 20 16 c 1,10,11
 21 16 21 16 24 16 c 1,12,13
 24 15 24 15 24 12 c 1,14,15
 23 12 23 12 20 12 c 1,8,9
24 16 m 1,16,17
 24 21 24 21 24 36 c 1,18,19
 25 36 25 36 28 36 c 1,20,21
 28 31 28 31 28 16 c 1,22,23
 27 16 27 16 24 16 c 1,16,17
20 36 m 1,24,25
 20 37 20 37 20 40 c 1,26,27
 21 40 21 40 24 40 c 1,28,29
 24 39 24 39 24 36 c 1,30,31
 23 36 23 36 20 36 c 1,24,25
8 40 m 1,32,33
 8 41 8 41 8 44 c 1,34,35
 11 44 11 44 20 44 c 1,36,37
 20 43 20 43 20 40 c 1,38,39
 17 40 17 40 8 40 c 1,32,33
0 0 m 1,40,41
 0 13 0 13 0 52 c 1,42,43
 1 52 1 52 4 52 c 1,44,45
 4 49 4 49 4 40 c 1,46,47
 5 40 5 40 8 40 c 1,48,49
 8 39 8 39 8 36 c 1,50,51
 7 36 7 36 4 36 c 1,52,53
 4 31 4 31 4 16 c 1,54,55
 5 16 5 16 8 16 c 1,56,57
 8 15 8 15 8 12 c 1,58,59
 7 12 7 12 4 12 c 1,60,61
 4 9 4 9 4 0 c 1,62,63
 3 0 3 0 0 0 c 1,40,41
EndSplineSet
EndChar

StartChar: germandbls
Encoding: 223 223 149
Width: 36
GlyphClass: 2
Flags: W
LayerCount: 2
Fore
SplineSet
8 0 m 1,0,1
 8 1 8 1 8 4 c 1,2,3
 11 4 11 4 20 4 c 1,4,5
 20 3 20 3 20 0 c 1,6,7
 17 0 17 0 8 0 c 1,0,1
20 4 m 1,8,9
 20 5 20 5 20 8 c 1,10,11
 21 8 21 8 24 8 c 1,12,13
 24 7 24 7 24 4 c 1,14,15
 23 4 23 4 20 4 c 1,8,9
24 8 m 1,16,17
 24 10 24 10 24 16 c 1,18,19
 25 16 25 16 28 16 c 1,20,21
 28 14 28 14 28 8 c 1,22,23
 27 8 27 8 24 8 c 1,16,17
20 16 m 1,24,25
 20 17 20 17 20 20 c 1,26,27
 21 20 21 20 24 20 c 1,28,29
 24 19 24 19 24 16 c 1,30,31
 23 16 23 16 20 16 c 1,24,25
16 20 m 1,32,33
 16 21 16 21 16 24 c 1,34,35
 17 24 17 24 20 24 c 1,36,37
 20 23 20 23 20 20 c 1,38,39
 19 20 19 20 16 20 c 1,32,33
12 24 m 1,40,41
 12 25 12 25 12 28 c 1,42,43
 13 28 13 28 16 28 c 1,44,45
 16 27 16 27 16 24 c 1,46,47
 15 24 15 24 12 24 c 1,40,41
16 28 m 1,48,49
 16 29 16 29 16 32 c 1,50,51
 17 32 17 32 20 32 c 1,52,53
 20 31 20 31 20 28 c 1,54,55
 19 28 19 28 16 28 c 1,48,49
20 32 m 1,56,57
 20 33 20 33 20 36 c 1,58,59
 21 36 21 36 24 36 c 1,60,61
 24 35 24 35 24 32 c 1,62,63
 23 32 23 32 20 32 c 1,56,57
0 0 m 1,64,65
 0 11 0 11 0 44 c 1,66,67
 1 44 1 44 4 44 c 1,68,69
 4 33 4 33 4 0 c 1,70,71
 3 0 3 0 0 0 c 1,64,65
24 36 m 1,72,73
 24 38 24 38 24 44 c 1,74,75
 25 44 25 44 28 44 c 1,76,77
 28 42 28 42 28 36 c 1,78,79
 27 36 27 36 24 36 c 1,72,73
4 44 m 1,80,81
 4 45 4 45 4 48 c 1,82,83
 5 48 5 48 8 48 c 1,84,85
 8 47 8 47 8 44 c 1,86,87
 7 44 7 44 4 44 c 1,80,81
20 44 m 1,88,89
 20 45 20 45 20 48 c 1,90,91
 21 48 21 48 24 48 c 1,92,93
 24 47 24 47 24 44 c 1,94,95
 23 44 23 44 20 44 c 1,88,89
8 48 m 1,96,97
 8 49 8 49 8 52 c 1,98,99
 11 52 11 52 20 52 c 1,100,101
 20 51 20 51 20 48 c 1,102,103
 17 48 17 48 8 48 c 1,96,97
EndSplineSet
EndChar

StartChar: agrave
Encoding: 224 224 150
Width: 36
GlyphClass: 2
Flags: W
LayerCount: 2
Fore
SplineSet
4 0 m 1,0,1
 4 1 4 1 4 4 c 1,2,3
 8 4 8 4 20 4 c 1,4,5
 20 3 20 3 20 0 c 1,6,7
 16 0 16 0 4 0 c 1,0,1
0 4 m 1,8,9
 0 7 0 7 0 16 c 1,10,11
 1 16 1 16 4 16 c 1,12,13
 4 13 4 13 4 4 c 1,14,15
 3 4 3 4 0 4 c 1,8,9
4 16 m 1,16,17
 4 17 4 17 4 20 c 1,18,19
 5 20 5 20 8 20 c 1,20,21
 8 19 8 19 8 16 c 1,22,23
 7 16 7 16 4 16 c 1,16,17
0 28 m 1,24,25
 0 29 0 29 0 32 c 1,26,27
 1 32 1 32 4 32 c 1,28,29
 4 31 4 31 4 28 c 1,30,31
 3 28 3 28 0 28 c 1,24,25
4 32 m 1,32,33
 4 33 4 33 4 36 c 1,34,35
 5 36 5 36 8 36 c 1,36,37
 8 35 8 35 8 32 c 1,38,39
 7 32 7 32 4 32 c 1,32,33
24 0 m 1,40,41
 24 1 24 1 24 4 c 1,42,43
 23 4 23 4 20 4 c 1,44,45
 20 5 20 5 20 8 c 1,46,47
 21 8 21 8 24 8 c 1,48,49
 24 11 24 11 24 20 c 1,50,51
 20 20 20 20 8 20 c 1,52,53
 8 21 8 21 8 24 c 1,54,55
 12 24 12 24 24 24 c 1,56,57
 24 27 24 27 24 36 c 1,58,59
 25 36 25 36 28 36 c 1,60,61
 28 27 28 27 28 0 c 1,62,63
 27 0 27 0 24 0 c 1,40,41
8 36 m 1,64,65
 8 37 8 37 8 40 c 1,66,67
 12 40 12 40 24 40 c 1,68,69
 24 39 24 39 24 36 c 1,70,71
 20 36 20 36 8 36 c 1,64,65
12 44 m 1,72,73
 12 45 12 45 12 48 c 1,74,75
 13 48 13 48 16 48 c 1,76,77
 16 47 16 47 16 44 c 1,78,79
 15 44 15 44 12 44 c 1,72,73
8 48 m 1,80,81
 8 49 8 49 8 52 c 1,82,83
 9 52 9 52 12 52 c 1,84,85
 12 51 12 51 12 48 c 1,86,87
 11 48 11 48 8 48 c 1,80,81
4 52 m 1,88,89
 4 53 4 53 4 56 c 1,90,91
 5 56 5 56 8 56 c 1,92,93
 8 55 8 55 8 52 c 1,94,95
 7 52 7 52 4 52 c 1,88,89
EndSplineSet
EndChar

StartChar: aacute
Encoding: 225 225 151
Width: 36
GlyphClass: 2
Flags: W
LayerCount: 2
Fore
SplineSet
4 0 m 1,0,1
 4 1 4 1 4 4 c 1,2,3
 8 4 8 4 20 4 c 1,4,5
 20 3 20 3 20 0 c 1,6,7
 16 0 16 0 4 0 c 1,0,1
0 4 m 1,8,9
 0 7 0 7 0 16 c 1,10,11
 1 16 1 16 4 16 c 1,12,13
 4 13 4 13 4 4 c 1,14,15
 3 4 3 4 0 4 c 1,8,9
4 16 m 1,16,17
 4 17 4 17 4 20 c 1,18,19
 5 20 5 20 8 20 c 1,20,21
 8 19 8 19 8 16 c 1,22,23
 7 16 7 16 4 16 c 1,16,17
0 28 m 1,24,25
 0 29 0 29 0 32 c 1,26,27
 1 32 1 32 4 32 c 1,28,29
 4 31 4 31 4 28 c 1,30,31
 3 28 3 28 0 28 c 1,24,25
4 32 m 1,32,33
 4 33 4 33 4 36 c 1,34,35
 5 36 5 36 8 36 c 1,36,37
 8 35 8 35 8 32 c 1,38,39
 7 32 7 32 4 32 c 1,32,33
24 0 m 1,40,41
 24 1 24 1 24 4 c 1,42,43
 23 4 23 4 20 4 c 1,44,45
 20 5 20 5 20 8 c 1,46,47
 21 8 21 8 24 8 c 1,48,49
 24 11 24 11 24 20 c 1,50,51
 20 20 20 20 8 20 c 1,52,53
 8 21 8 21 8 24 c 1,54,55
 12 24 12 24 24 24 c 1,56,57
 24 27 24 27 24 36 c 1,58,59
 25 36 25 36 28 36 c 1,60,61
 28 27 28 27 28 0 c 1,62,63
 27 0 27 0 24 0 c 1,40,41
8 36 m 1,64,65
 8 37 8 37 8 40 c 1,66,67
 12 40 12 40 24 40 c 1,68,69
 24 39 24 39 24 36 c 1,70,71
 20 36 20 36 8 36 c 1,64,65
12 44 m 1,72,73
 12 45 12 45 12 48 c 1,74,75
 13 48 13 48 16 48 c 1,76,77
 16 47 16 47 16 44 c 1,78,79
 15 44 15 44 12 44 c 1,72,73
16 48 m 1,80,81
 16 49 16 49 16 52 c 1,82,83
 17 52 17 52 20 52 c 1,84,85
 20 51 20 51 20 48 c 1,86,87
 19 48 19 48 16 48 c 1,80,81
20 52 m 1,88,89
 20 53 20 53 20 56 c 1,90,91
 21 56 21 56 24 56 c 1,92,93
 24 55 24 55 24 52 c 1,94,95
 23 52 23 52 20 52 c 1,88,89
EndSplineSet
EndChar

StartChar: acircumflex
Encoding: 226 226 152
Width: 36
GlyphClass: 2
Flags: W
LayerCount: 2
Fore
SplineSet
4 0 m 1,0,1
 4 1 4 1 4 4 c 1,2,3
 6 4 6 4 12 4 c 0,4,5
 14 4 14 4 20 4 c 1,6,7
 20 3 20 3 20 0 c 1,8,9
 16 0 16 0 4 0 c 1,0,1
0 4 m 1,10,11
 0 7 0 7 0 16 c 1,12,13
 1 16 1 16 4 16 c 1,14,15
 4 13 4 13 4 4 c 1,16,17
 3 4 3 4 0 4 c 1,10,11
4 16 m 1,18,19
 4 17 4 17 4 20 c 1,20,21
 5 20 5 20 8 20 c 1,22,23
 8 19 8 19 8 16 c 1,24,25
 7 16 7 16 4 16 c 1,18,19
0 28 m 1,26,27
 0 29 0 29 0 32 c 1,28,29
 1 32 1 32 4 32 c 1,30,31
 4 31 4 31 4 28 c 1,32,33
 3 28 3 28 0 28 c 1,26,27
4 32 m 1,34,35
 4 33 4 33 4 36 c 1,36,37
 5 36 5 36 8 36 c 1,38,39
 8 35 8 35 8 32 c 1,40,41
 7 32 7 32 4 32 c 1,34,35
24 0 m 1,42,43
 24 1 24 1 24 4 c 1,44,45
 23 4 23 4 20 4 c 1,46,47
 20 5 20 5 20 8 c 1,48,49
 21 8 21 8 24 8 c 1,50,51
 24 11 24 11 24 20 c 1,52,53
 20 20 20 20 8 20 c 1,54,55
 8 21 8 21 8 24 c 1,56,57
 12 24 12 24 24 24 c 1,58,59
 24 27 24 27 24 36 c 1,60,61
 25 36 25 36 28 36 c 1,62,63
 28 27 28 27 28 0 c 1,64,65
 27 0 27 0 24 0 c 1,42,43
8 36 m 1,66,67
 8 37 8 37 8 40 c 1,68,69
 12 40 12 40 24 40 c 1,70,71
 24 39 24 39 24 36 c 1,72,73
 20 36 20 36 8 36 c 1,66,67
4 44 m 1,74,75
 4 45 4 45 4 48 c 1,76,77
 5 48 5 48 8 48 c 1,78,79
 8 47 8 47 8 44 c 1,80,81
 7 44 7 44 4 44 c 1,74,75
20 44 m 1,82,83
 20 45 20 45 20 48 c 1,84,85
 21 48 21 48 24 48 c 1,86,87
 24 47 24 47 24 44 c 1,88,89
 23 44 23 44 20 44 c 1,82,83
8 48 m 1,90,91
 8 49 8 49 8 52 c 1,92,93
 9 52 9 52 12 52 c 1,94,95
 12 51 12 51 12 48 c 1,96,97
 11 48 11 48 8 48 c 1,90,91
16 48 m 1,98,99
 16 49 16 49 16 52 c 1,100,101
 17 52 17 52 20 52 c 1,102,103
 20 51 20 51 20 48 c 1,104,105
 19 48 19 48 16 48 c 1,98,99
12 52 m 1,106,107
 12 53 12 53 12 56 c 1,108,109
 13 56 13 56 16 56 c 1,110,111
 16 55 16 55 16 52 c 1,112,113
 15 52 15 52 12 52 c 1,106,107
EndSplineSet
EndChar

StartChar: atilde
Encoding: 227 227 153
Width: 36
GlyphClass: 2
Flags: W
LayerCount: 2
Fore
SplineSet
4 0 m 1,0,1
 4 1 4 1 4 4 c 1,2,3
 5 4 5 4 8 4 c 256,4,5
 11 4 11 4 20 4 c 1,6,7
 20 3 20 3 20 0 c 1,8,9
 16 0 16 0 4 0 c 1,0,1
0 4 m 1,10,11
 0 7 0 7 0 16 c 1,12,13
 1 16 1 16 4 16 c 1,14,15
 4 13 4 13 4 4 c 1,16,17
 3 4 3 4 0 4 c 1,10,11
4 16 m 1,18,19
 4 17 4 17 4 20 c 1,20,21
 5 20 5 20 8 20 c 1,22,23
 8 19 8 19 8 16 c 1,24,25
 7 16 7 16 4 16 c 1,18,19
0 28 m 1,26,27
 0 29 0 29 0 32 c 1,28,29
 1 32 1 32 4 32 c 1,30,31
 4 31 4 31 4 28 c 1,32,33
 3 28 3 28 0 28 c 1,26,27
4 32 m 1,34,35
 4 33 4 33 4 36 c 1,36,37
 5 36 5 36 8 36 c 1,38,39
 8 35 8 35 8 32 c 1,40,41
 7 32 7 32 4 32 c 1,34,35
24 0 m 1,42,43
 24 1 24 1 24 4 c 1,44,45
 23 4 23 4 20 4 c 1,46,47
 20 5 20 5 20 8 c 1,48,49
 21 8 21 8 24 8 c 1,50,51
 24 11 24 11 24 20 c 1,52,53
 20 20 20 20 8 20 c 1,54,55
 8 21 8 21 8 24 c 1,56,57
 12 24 12 24 24 24 c 1,58,59
 24 27 24 27 24 36 c 1,60,61
 25 36 25 36 28 36 c 1,62,63
 28 27 28 27 28 0 c 1,64,65
 27 0 27 0 24 0 c 1,42,43
8 36 m 1,66,67
 8 37 8 37 8 40 c 1,68,69
 12 40 12 40 24 40 c 1,70,71
 24 39 24 39 24 36 c 1,72,73
 20 36 20 36 8 36 c 1,66,67
0 44 m 1,74,75
 0 45 0 45 0 48 c 1,76,77
 1 48 1 48 4 48 c 1,78,79
 4 47 4 47 4 44 c 1,80,81
 3 44 3 44 0 44 c 1,74,75
20 44 m 1,82,83
 20 45 20 45 20 48 c 1,84,85
 21 48 21 48 24 48 c 1,86,87
 24 47 24 47 24 44 c 1,88,89
 23 44 23 44 20 44 c 1,82,83
4 48 m 1,90,91
 4 49 4 49 4 52 c 1,92,93
 5 52 5 52 8 52 c 1,94,95
 8 51 8 51 8 48 c 1,96,97
 7 48 7 48 4 48 c 1,90,91
16 48 m 1,98,99
 16 49 16 49 16 52 c 1,100,101
 17 52 17 52 20 52 c 1,102,103
 20 51 20 51 20 48 c 1,104,105
 19 48 19 48 16 48 c 1,98,99
8 52 m 1,106,107
 8 53 8 53 8 56 c 1,108,109
 10 56 10 56 16 56 c 1,110,111
 16 55 16 55 16 52 c 1,112,113
 14 52 14 52 8 52 c 1,106,107
24 48 m 1,114,115
 24 50 24 50 24 56 c 1,116,117
 25 56 25 56 28 56 c 1,118,119
 28 54 28 54 28 48 c 1,120,121
 27 48 27 48 24 48 c 1,114,115
EndSplineSet
EndChar

StartChar: adieresis
Encoding: 228 228 154
Width: 36
GlyphClass: 2
Flags: W
LayerCount: 2
Fore
SplineSet
4 0 m 1,0,1
 4 1 4 1 4 4 c 1,2,3
 8 4 8 4 20 4 c 1,4,5
 20 3 20 3 20 0 c 1,6,7
 16 0 16 0 4 0 c 1,0,1
0 4 m 1,8,9
 0 7 0 7 0 16 c 1,10,11
 1 16 1 16 4 16 c 1,12,13
 4 13 4 13 4 4 c 1,14,15
 3 4 3 4 0 4 c 1,8,9
4 16 m 1,16,17
 4 17 4 17 4 20 c 1,18,19
 5 20 5 20 8 20 c 1,20,21
 8 19 8 19 8 16 c 1,22,23
 7 16 7 16 4 16 c 1,16,17
0 28 m 1,24,25
 0 29 0 29 0 32 c 1,26,27
 1 32 1 32 4 32 c 1,28,29
 4 31 4 31 4 28 c 1,30,31
 3 28 3 28 0 28 c 1,24,25
4 32 m 1,32,33
 4 33 4 33 4 36 c 1,34,35
 5 36 5 36 8 36 c 1,36,37
 8 35 8 35 8 32 c 1,38,39
 7 32 7 32 4 32 c 1,32,33
24 0 m 1,40,41
 24 1 24 1 24 4 c 1,42,43
 23 4 23 4 20 4 c 1,44,45
 20 5 20 5 20 8 c 1,46,47
 21 8 21 8 24 8 c 1,48,49
 24 11 24 11 24 20 c 1,50,51
 20 20 20 20 8 20 c 1,52,53
 8 21 8 21 8 24 c 1,54,55
 12 24 12 24 24 24 c 1,56,57
 24 27 24 27 24 36 c 1,58,59
 25 36 25 36 28 36 c 1,60,61
 28 27 28 27 28 0 c 1,62,63
 27 0 27 0 24 0 c 1,40,41
8 36 m 1,64,65
 8 37 8 37 8 40 c 1,66,67
 12 40 12 40 24 40 c 1,68,69
 24 39 24 39 24 36 c 1,70,71
 20 36 20 36 8 36 c 1,64,65
4 44 m 1,72,73
 4 45 4 45 4 48 c 1,74,75
 5 48 5 48 8 48 c 1,76,77
 8 47 8 47 8 44 c 1,78,79
 7 44 7 44 4 44 c 1,72,73
20 44 m 1,80,81
 20 45 20 45 20 48 c 1,82,83
 21 48 21 48 24 48 c 1,84,85
 24 47 24 47 24 44 c 1,86,87
 23 44 23 44 20 44 c 1,80,81
EndSplineSet
EndChar

StartChar: aring
Encoding: 229 229 155
Width: 36
GlyphClass: 2
Flags: W
LayerCount: 2
Fore
SplineSet
4 0 m 1,0,1
 4 1 4 1 4 4 c 1,2,3
 6 4 6 4 12 4 c 0,4,5
 14 4 14 4 20 4 c 1,6,7
 20 3 20 3 20 0 c 1,8,9
 16 0 16 0 4 0 c 1,0,1
0 4 m 1,10,11
 0 7 0 7 0 16 c 1,12,13
 1 16 1 16 4 16 c 1,14,15
 4 13 4 13 4 4 c 1,16,17
 3 4 3 4 0 4 c 1,10,11
4 16 m 1,18,19
 4 17 4 17 4 20 c 1,20,21
 5 20 5 20 8 20 c 1,22,23
 8 19 8 19 8 16 c 1,24,25
 7 16 7 16 4 16 c 1,18,19
0 28 m 1,26,27
 0 29 0 29 0 32 c 1,28,29
 1 32 1 32 4 32 c 1,30,31
 4 31 4 31 4 28 c 1,32,33
 3 28 3 28 0 28 c 1,26,27
4 32 m 1,34,35
 4 33 4 33 4 36 c 1,36,37
 5 36 5 36 8 36 c 1,38,39
 8 35 8 35 8 32 c 1,40,41
 7 32 7 32 4 32 c 1,34,35
24 0 m 1,42,43
 24 1 24 1 24 4 c 1,44,45
 23 4 23 4 20 4 c 1,46,47
 20 5 20 5 20 8 c 1,48,49
 21 8 21 8 24 8 c 1,50,51
 24 11 24 11 24 20 c 1,52,53
 20 20 20 20 8 20 c 1,54,55
 8 21 8 21 8 24 c 1,56,57
 12 24 12 24 24 24 c 1,58,59
 24 27 24 27 24 36 c 1,60,61
 25 36 25 36 28 36 c 1,62,63
 28 27 28 27 28 0 c 1,64,65
 27 0 27 0 24 0 c 1,42,43
8 36 m 1,66,67
 8 37 8 37 8 40 c 1,68,69
 12 40 12 40 24 40 c 1,70,71
 24 39 24 39 24 36 c 1,72,73
 20 36 20 36 8 36 c 1,66,67
12 44 m 1,74,75
 12 45 12 45 12 48 c 1,76,77
 13 48 13 48 16 48 c 1,78,79
 16 47 16 47 16 44 c 1,80,81
 15 44 15 44 12 44 c 1,74,75
8 48 m 1,82,83
 8 49 8 49 8 52 c 1,84,85
 9 52 9 52 12 52 c 1,86,87
 12 51 12 51 12 48 c 1,88,89
 11 48 11 48 8 48 c 1,82,83
16 48 m 1,90,91
 16 49 16 49 16 52 c 1,92,93
 17 52 17 52 20 52 c 1,94,95
 20 51 20 51 20 48 c 1,96,97
 19 48 19 48 16 48 c 1,90,91
12 52 m 1,98,99
 12 53 12 53 12 56 c 1,100,101
 13 56 13 56 16 56 c 1,102,103
 16 55 16 55 16 52 c 1,104,105
 15 52 15 52 12 52 c 1,98,99
EndSplineSet
EndChar

StartChar: ae
Encoding: 230 230 156
Width: 60
GlyphClass: 2
Flags: W
LayerCount: 2
Fore
SplineSet
4 0 m 1,0,1
 4 1 4 1 4 4 c 1,2,3
 5 4 5 4 8 4 c 256,4,5
 11 4 11 4 20 4 c 1,6,7
 20 3 20 3 20 0 c 1,8,9
 16 0 16 0 4 0 c 1,0,1
32 0 m 1,10,11
 32 1 32 1 32 4 c 1,12,13
 35 4 35 4 44 4 c 1,14,15
 44 3 44 3 44 0 c 1,16,17
 41 0 41 0 32 0 c 1,10,11
44 4 m 1,18,19
 44 5 44 5 44 8 c 1,20,21
 45 8 45 8 48 8 c 1,22,23
 48 7 48 7 48 4 c 1,24,25
 47 4 47 4 44 4 c 1,18,19
48 8 m 1,26,27
 48 9 48 9 48 12 c 1,28,29
 49 12 49 12 52 12 c 1,30,31
 52 11 52 11 52 8 c 1,32,33
 51 8 51 8 48 8 c 1,26,27
0 4 m 1,34,35
 0 7 0 7 0 16 c 1,36,37
 1 16 1 16 4 16 c 1,38,39
 4 13 4 13 4 4 c 1,40,41
 3 4 3 4 0 4 c 1,34,35
4 16 m 1,42,43
 4 17 4 17 4 20 c 1,44,45
 5 20 5 20 8 20 c 1,46,47
 8 19 8 19 8 16 c 1,48,49
 7 16 7 16 4 16 c 1,42,43
0 28 m 1,50,51
 0 29 0 29 0 32 c 1,52,53
 1 32 1 32 4 32 c 1,54,55
 4 31 4 31 4 28 c 1,56,57
 3 28 3 28 0 28 c 1,50,51
4 32 m 1,58,59
 4 33 4 33 4 36 c 1,60,61
 5 36 5 36 8 36 c 1,62,63
 8 35 8 35 8 32 c 1,64,65
 7 32 7 32 4 32 c 1,58,59
24 0 m 1,66,67
 24 1 24 1 24 4 c 1,68,69
 23 4 23 4 20 4 c 1,70,71
 20 5 20 5 20 8 c 1,72,73
 21 8 21 8 24 8 c 1,74,75
 24 11 24 11 24 20 c 1,76,77
 20 20 20 20 8 20 c 1,78,79
 8 21 8 21 8 24 c 1,80,81
 12 24 12 24 24 24 c 1,82,83
 24 27 24 27 24 36 c 1,84,85
 26 36 26 36 32 36 c 1,86,87
 32 35 32 35 32 32 c 1,88,89
 31 32 31 32 28 32 c 1,90,91
 28 30 28 30 28 24 c 1,92,93
 33 24 33 24 48 24 c 1,94,95
 48 26 48 26 48 32 c 1,96,97
 49 32 49 32 52 32 c 1,98,99
 52 29 52 29 52 20 c 1,100,101
 46 20 46 20 28 20 c 1,102,103
 28 17 28 17 28 8 c 1,104,105
 29 8 29 8 32 8 c 1,106,107
 32 7 32 7 32 4 c 1,108,109
 31 4 31 4 28 4 c 1,110,111
 28 3 28 3 28 0 c 1,112,113
 27 0 27 0 24 0 c 1,66,67
44 32 m 1,114,115
 44 33 44 33 44 36 c 1,116,117
 45 36 45 36 48 36 c 1,118,119
 48 35 48 35 48 32 c 1,120,121
 47 32 47 32 44 32 c 1,114,115
8 36 m 1,122,123
 8 37 8 37 8 40 c 1,124,125
 12 40 12 40 24 40 c 1,126,127
 24 39 24 39 24 36 c 1,128,129
 20 36 20 36 8 36 c 1,122,123
32 36 m 1,130,131
 32 37 32 37 32 40 c 1,132,133
 35 40 35 40 44 40 c 1,134,135
 44 39 44 39 44 36 c 1,136,137
 41 36 41 36 32 36 c 1,130,131
EndSplineSet
EndChar

StartChar: ccedilla
Encoding: 231 231 157
Width: 36
GlyphClass: 2
Flags: W
LayerCount: 2
Fore
SplineSet
8 -12 m 1,0,1
 8 -11 8 -11 8 -8 c 1,2,3
 10 -8 10 -8 16 -8 c 1,4,5
 16 -9 16 -9 16 -12 c 1,6,7
 14 -12 14 -12 8 -12 c 1,0,1
16 -8 m 1,8,9
 16 -7 16 -7 16 -4 c 1,10,11
 17 -4 17 -4 20 -4 c 1,12,13
 20 -5 20 -5 20 -8 c 1,14,15
 19 -8 19 -8 16 -8 c 1,8,9
12 -4 m 1,16,17
 12 -3 12 -3 12 0 c 1,18,19
 11 0 11 0 8 0 c 1,20,21
 8 1 8 1 8 4 c 1,22,23
 11 4 11 4 20 4 c 1,24,25
 20 3 20 3 20 0 c 1,26,27
 19 0 19 0 16 0 c 1,28,29
 16 -1 16 -1 16 -4 c 1,30,31
 15 -4 15 -4 12 -4 c 1,16,17
4 4 m 1,32,33
 4 5 4 5 4 8 c 1,34,35
 5 8 5 8 8 8 c 1,36,37
 8 7 8 7 8 4 c 1,38,39
 7 4 7 4 4 4 c 1,32,33
20 4 m 1,40,41
 20 5 20 5 20 8 c 1,42,43
 21 8 21 8 24 8 c 1,44,45
 24 7 24 7 24 4 c 1,46,47
 23 4 23 4 20 4 c 1,40,41
24 8 m 1,48,49
 24 9 24 9 24 12 c 1,50,51
 25 12 25 12 28 12 c 1,52,53
 28 11 28 11 28 8 c 1,54,55
 27 8 27 8 24 8 c 1,48,49
0 8 m 1,56,57
 0 14 0 14 0 32 c 1,58,59
 1 32 1 32 4 32 c 1,60,61
 4 26 4 26 4 8 c 1,62,63
 3 8 3 8 0 8 c 1,56,57
24 28 m 1,64,65
 24 29 24 29 24 32 c 1,66,67
 25 32 25 32 28 32 c 1,68,69
 28 31 28 31 28 28 c 1,70,71
 27 28 27 28 24 28 c 1,64,65
4 32 m 1,72,73
 4 33 4 33 4 36 c 1,74,75
 5 36 5 36 8 36 c 1,76,77
 8 35 8 35 8 32 c 1,78,79
 7 32 7 32 4 32 c 1,72,73
20 32 m 1,80,81
 20 33 20 33 20 36 c 1,82,83
 21 36 21 36 24 36 c 1,84,85
 24 35 24 35 24 32 c 1,86,87
 23 32 23 32 20 32 c 1,80,81
8 36 m 1,88,89
 8 37 8 37 8 40 c 1,90,91
 11 40 11 40 20 40 c 1,92,93
 20 39 20 39 20 36 c 1,94,95
 17 36 17 36 8 36 c 1,88,89
EndSplineSet
EndChar

StartChar: egrave
Encoding: 232 232 158
Width: 36
GlyphClass: 2
Flags: W
LayerCount: 2
Fore
SplineSet
8 0 m 1,0,1
 8 1 8 1 8 4 c 1,2,3
 11 4 11 4 20 4 c 1,4,5
 20 3 20 3 20 0 c 1,6,7
 17 0 17 0 8 0 c 1,0,1
4 4 m 1,8,9
 4 5 4 5 4 8 c 1,10,11
 5 8 5 8 8 8 c 1,12,13
 8 7 8 7 8 4 c 1,14,15
 7 4 7 4 4 4 c 1,8,9
20 4 m 1,16,17
 20 5 20 5 20 8 c 1,18,19
 21 8 21 8 24 8 c 1,20,21
 24 7 24 7 24 4 c 1,22,23
 23 4 23 4 20 4 c 1,16,17
24 8 m 1,24,25
 24 9 24 9 24 12 c 1,26,27
 25 12 25 12 28 12 c 1,28,29
 28 11 28 11 28 8 c 1,30,31
 27 8 27 8 24 8 c 1,24,25
0 8 m 1,32,33
 0 14 0 14 0 32 c 1,34,35
 1 32 1 32 4 32 c 1,36,37
 4 30 4 30 4 24 c 1,38,39
 9 24 9 24 24 24 c 1,40,41
 24 26 24 26 24 32 c 1,42,43
 25 32 25 32 28 32 c 1,44,45
 28 29 28 29 28 20 c 1,46,47
 22 20 22 20 4 20 c 1,48,49
 4 17 4 17 4 8 c 1,50,51
 3 8 3 8 0 8 c 1,32,33
4 32 m 1,52,53
 4 33 4 33 4 36 c 1,54,55
 5 36 5 36 8 36 c 1,56,57
 8 35 8 35 8 32 c 1,58,59
 7 32 7 32 4 32 c 1,52,53
20 32 m 1,60,61
 20 33 20 33 20 36 c 1,62,63
 21 36 21 36 24 36 c 1,64,65
 24 35 24 35 24 32 c 1,66,67
 23 32 23 32 20 32 c 1,60,61
8 36 m 1,68,69
 8 37 8 37 8 40 c 1,70,71
 11 40 11 40 20 40 c 1,72,73
 20 39 20 39 20 36 c 1,74,75
 17 36 17 36 8 36 c 1,68,69
12 44 m 1,76,77
 12 45 12 45 12 48 c 1,78,79
 13 48 13 48 16 48 c 1,80,81
 16 47 16 47 16 44 c 1,82,83
 15 44 15 44 12 44 c 1,76,77
8 48 m 1,84,85
 8 49 8 49 8 52 c 1,86,87
 9 52 9 52 12 52 c 1,88,89
 12 51 12 51 12 48 c 1,90,91
 11 48 11 48 8 48 c 1,84,85
4 52 m 1,92,93
 4 53 4 53 4 56 c 1,94,95
 5 56 5 56 8 56 c 1,96,97
 8 55 8 55 8 52 c 1,98,99
 7 52 7 52 4 52 c 1,92,93
EndSplineSet
EndChar

StartChar: eacute
Encoding: 233 233 159
Width: 36
GlyphClass: 2
Flags: W
LayerCount: 2
Fore
SplineSet
8 0 m 1,0,1
 8 1 8 1 8 4 c 1,2,3
 11 4 11 4 20 4 c 1,4,5
 20 3 20 3 20 0 c 1,6,7
 17 0 17 0 8 0 c 1,0,1
4 4 m 1,8,9
 4 5 4 5 4 8 c 1,10,11
 5 8 5 8 8 8 c 1,12,13
 8 7 8 7 8 4 c 1,14,15
 7 4 7 4 4 4 c 1,8,9
20 4 m 1,16,17
 20 5 20 5 20 8 c 1,18,19
 21 8 21 8 24 8 c 1,20,21
 24 7 24 7 24 4 c 1,22,23
 23 4 23 4 20 4 c 1,16,17
24 8 m 1,24,25
 24 9 24 9 24 12 c 1,26,27
 25 12 25 12 28 12 c 1,28,29
 28 11 28 11 28 8 c 1,30,31
 27 8 27 8 24 8 c 1,24,25
0 8 m 1,32,33
 0 14 0 14 0 32 c 1,34,35
 1 32 1 32 4 32 c 1,36,37
 4 30 4 30 4 24 c 1,38,39
 9 24 9 24 24 24 c 1,40,41
 24 26 24 26 24 32 c 1,42,43
 25 32 25 32 28 32 c 1,44,45
 28 29 28 29 28 20 c 1,46,47
 22 20 22 20 4 20 c 1,48,49
 4 17 4 17 4 8 c 1,50,51
 3 8 3 8 0 8 c 1,32,33
4 32 m 1,52,53
 4 33 4 33 4 36 c 1,54,55
 5 36 5 36 8 36 c 1,56,57
 8 35 8 35 8 32 c 1,58,59
 7 32 7 32 4 32 c 1,52,53
20 32 m 1,60,61
 20 33 20 33 20 36 c 1,62,63
 21 36 21 36 24 36 c 1,64,65
 24 35 24 35 24 32 c 1,66,67
 23 32 23 32 20 32 c 1,60,61
8 36 m 1,68,69
 8 37 8 37 8 40 c 1,70,71
 11 40 11 40 20 40 c 1,72,73
 20 39 20 39 20 36 c 1,74,75
 17 36 17 36 8 36 c 1,68,69
12 44 m 1,76,77
 12 45 12 45 12 48 c 1,78,79
 13 48 13 48 16 48 c 1,80,81
 16 47 16 47 16 44 c 1,82,83
 15 44 15 44 12 44 c 1,76,77
16 48 m 1,84,85
 16 49 16 49 16 52 c 1,86,87
 17 52 17 52 20 52 c 1,88,89
 20 51 20 51 20 48 c 1,90,91
 19 48 19 48 16 48 c 1,84,85
20 52 m 1,92,93
 20 53 20 53 20 56 c 1,94,95
 21 56 21 56 24 56 c 1,96,97
 24 55 24 55 24 52 c 1,98,99
 23 52 23 52 20 52 c 1,92,93
EndSplineSet
EndChar

StartChar: ecircumflex
Encoding: 234 234 160
Width: 36
GlyphClass: 2
Flags: W
LayerCount: 2
Fore
SplineSet
8 0 m 1,0,1
 8 1 8 1 8 4 c 1,2,3
 9 4 9 4 12 4 c 0,4,5
 14 4 14 4 20 4 c 1,6,7
 20 3 20 3 20 0 c 1,8,9
 17 0 17 0 8 0 c 1,0,1
4 4 m 1,10,11
 4 5 4 5 4 8 c 1,12,13
 5 8 5 8 8 8 c 1,14,15
 8 7 8 7 8 4 c 1,16,17
 7 4 7 4 4 4 c 1,10,11
20 4 m 1,18,19
 20 5 20 5 20 8 c 1,20,21
 21 8 21 8 24 8 c 1,22,23
 24 7 24 7 24 4 c 1,24,25
 23 4 23 4 20 4 c 1,18,19
24 8 m 1,26,27
 24 9 24 9 24 12 c 1,28,29
 25 12 25 12 28 12 c 1,30,31
 28 11 28 11 28 8 c 1,32,33
 27 8 27 8 24 8 c 1,26,27
0 8 m 1,34,35
 0 14 0 14 0 32 c 1,36,37
 1 32 1 32 4 32 c 1,38,39
 4 30 4 30 4 24 c 1,40,41
 9 24 9 24 24 24 c 1,42,43
 24 26 24 26 24 32 c 1,44,45
 25 32 25 32 28 32 c 1,46,47
 28 29 28 29 28 20 c 1,48,49
 22 20 22 20 4 20 c 1,50,51
 4 17 4 17 4 8 c 1,52,53
 3 8 3 8 0 8 c 1,34,35
4 32 m 1,54,55
 4 33 4 33 4 36 c 1,56,57
 5 36 5 36 8 36 c 1,58,59
 8 35 8 35 8 32 c 1,60,61
 7 32 7 32 4 32 c 1,54,55
20 32 m 1,62,63
 20 33 20 33 20 36 c 1,64,65
 21 36 21 36 24 36 c 1,66,67
 24 35 24 35 24 32 c 1,68,69
 23 32 23 32 20 32 c 1,62,63
8 36 m 1,70,71
 8 37 8 37 8 40 c 1,72,73
 11 40 11 40 20 40 c 1,74,75
 20 39 20 39 20 36 c 1,76,77
 17 36 17 36 8 36 c 1,70,71
4 44 m 1,78,79
 4 45 4 45 4 48 c 1,80,81
 5 48 5 48 8 48 c 1,82,83
 8 47 8 47 8 44 c 1,84,85
 7 44 7 44 4 44 c 1,78,79
20 44 m 1,86,87
 20 45 20 45 20 48 c 1,88,89
 21 48 21 48 24 48 c 1,90,91
 24 47 24 47 24 44 c 1,92,93
 23 44 23 44 20 44 c 1,86,87
8 48 m 1,94,95
 8 49 8 49 8 52 c 1,96,97
 9 52 9 52 12 52 c 1,98,99
 12 51 12 51 12 48 c 1,100,101
 11 48 11 48 8 48 c 1,94,95
16 48 m 1,102,103
 16 49 16 49 16 52 c 1,104,105
 17 52 17 52 20 52 c 1,106,107
 20 51 20 51 20 48 c 1,108,109
 19 48 19 48 16 48 c 1,102,103
12 52 m 1,110,111
 12 53 12 53 12 56 c 1,112,113
 13 56 13 56 16 56 c 1,114,115
 16 55 16 55 16 52 c 1,116,117
 15 52 15 52 12 52 c 1,110,111
EndSplineSet
EndChar

StartChar: edieresis
Encoding: 235 235 161
Width: 36
GlyphClass: 2
Flags: W
LayerCount: 2
Fore
SplineSet
8 0 m 1,0,1
 8 1 8 1 8 4 c 1,2,3
 11 4 11 4 20 4 c 1,4,5
 20 3 20 3 20 0 c 1,6,7
 17 0 17 0 8 0 c 1,0,1
4 4 m 1,8,9
 4 5 4 5 4 8 c 1,10,11
 5 8 5 8 8 8 c 1,12,13
 8 7 8 7 8 4 c 1,14,15
 7 4 7 4 4 4 c 1,8,9
20 4 m 1,16,17
 20 5 20 5 20 8 c 1,18,19
 21 8 21 8 24 8 c 1,20,21
 24 7 24 7 24 4 c 1,22,23
 23 4 23 4 20 4 c 1,16,17
24 8 m 1,24,25
 24 9 24 9 24 12 c 1,26,27
 25 12 25 12 28 12 c 1,28,29
 28 11 28 11 28 8 c 1,30,31
 27 8 27 8 24 8 c 1,24,25
0 8 m 1,32,33
 0 14 0 14 0 32 c 1,34,35
 1 32 1 32 4 32 c 1,36,37
 4 30 4 30 4 24 c 1,38,39
 9 24 9 24 24 24 c 1,40,41
 24 26 24 26 24 32 c 1,42,43
 25 32 25 32 28 32 c 1,44,45
 28 29 28 29 28 20 c 1,46,47
 22 20 22 20 4 20 c 1,48,49
 4 17 4 17 4 8 c 1,50,51
 3 8 3 8 0 8 c 1,32,33
4 32 m 1,52,53
 4 33 4 33 4 36 c 1,54,55
 5 36 5 36 8 36 c 1,56,57
 8 35 8 35 8 32 c 1,58,59
 7 32 7 32 4 32 c 1,52,53
20 32 m 1,60,61
 20 33 20 33 20 36 c 1,62,63
 21 36 21 36 24 36 c 1,64,65
 24 35 24 35 24 32 c 1,66,67
 23 32 23 32 20 32 c 1,60,61
8 36 m 1,68,69
 8 37 8 37 8 40 c 1,70,71
 11 40 11 40 20 40 c 1,72,73
 20 39 20 39 20 36 c 1,74,75
 17 36 17 36 8 36 c 1,68,69
4 44 m 1,76,77
 4 45 4 45 4 48 c 1,78,79
 5 48 5 48 8 48 c 1,80,81
 8 47 8 47 8 44 c 1,82,83
 7 44 7 44 4 44 c 1,76,77
20 44 m 1,84,85
 20 45 20 45 20 48 c 1,86,87
 21 48 21 48 24 48 c 1,88,89
 24 47 24 47 24 44 c 1,90,91
 23 44 23 44 20 44 c 1,84,85
EndSplineSet
EndChar

StartChar: igrave
Encoding: 236 236 162
Width: 12
GlyphClass: 2
Flags: W
LayerCount: 2
Fore
SplineSet
0 0 m 1,0,1
 0 10 0 10 0 40 c 1,2,3
 1 40 1 40 4 40 c 1,4,5
 4 30 4 30 4 0 c 1,6,7
 3 0 3 0 0 0 c 1,0,1
0 44 m 1,8,9
 0 45 0 45 0 48 c 1,10,11
 1 48 1 48 4 48 c 1,12,13
 4 47 4 47 4 44 c 1,14,15
 3 44 3 44 0 44 c 1,8,9
-4 48 m 1,16,17
 -4 49 -4 49 -4 52 c 1,18,19
 -3 52 -3 52 0 52 c 1,20,21
 0 51 0 51 0 48 c 1,22,23
 -1 48 -1 48 -4 48 c 1,16,17
-8 52 m 1,24,25
 -8 53 -8 53 -8 56 c 1,26,27
 -7 56 -7 56 -4 56 c 1,28,29
 -4 55 -4 55 -4 52 c 1,30,31
 -5 52 -5 52 -8 52 c 1,24,25
EndSplineSet
EndChar

StartChar: iacute
Encoding: 237 237 163
Width: 12
GlyphClass: 2
Flags: W
LayerCount: 2
Fore
SplineSet
0 0 m 1,0,1
 0 10 0 10 0 40 c 1,2,3
 1 40 1 40 4 40 c 1,4,5
 4 30 4 30 4 0 c 1,6,7
 3 0 3 0 0 0 c 1,0,1
0 44 m 1,8,9
 0 45 0 45 0 48 c 1,10,11
 1 48 1 48 4 48 c 1,12,13
 4 47 4 47 4 44 c 1,14,15
 3 44 3 44 0 44 c 1,8,9
4 48 m 1,16,17
 4 49 4 49 4 52 c 1,18,19
 5 52 5 52 8 52 c 1,20,21
 8 51 8 51 8 48 c 1,22,23
 7 48 7 48 4 48 c 1,16,17
8 52 m 1,24,25
 8 53 8 53 8 56 c 1,26,27
 9 56 9 56 12 56 c 1,28,29
 12 55 12 55 12 52 c 1,30,31
 11 52 11 52 8 52 c 1,24,25
EndSplineSet
EndChar

StartChar: icircumflex
Encoding: 238 238 164
Width: 12
GlyphClass: 2
Flags: W
LayerCount: 2
Fore
SplineSet
0 0 m 1,0,1
 0 10 0 10 0 40 c 1,2,3
 1 40 1 40 4 40 c 1,4,5
 4 30 4 30 4 0 c 1,6,7
 3 0 3 0 0 0 c 1,0,1
-8 44 m 1,8,9
 -8 45 -8 45 -8 48 c 1,10,11
 -7 48 -7 48 -4 48 c 1,12,13
 -4 47 -4 47 -4 44 c 1,14,15
 -5 44 -5 44 -8 44 c 1,8,9
8 44 m 1,16,17
 8 45 8 45 8 48 c 1,18,19
 9 48 9 48 12 48 c 1,20,21
 12 47 12 47 12 44 c 1,22,23
 11 44 11 44 8 44 c 1,16,17
-4 48 m 1,24,25
 -4 49 -4 49 -4 52 c 1,26,27
 -3 52 -3 52 0 52 c 1,28,29
 0 51 0 51 0 48 c 1,30,31
 -1 48 -1 48 -4 48 c 1,24,25
4 48 m 1,32,33
 4 49 4 49 4 52 c 1,34,35
 5 52 5 52 8 52 c 1,36,37
 8 51 8 51 8 48 c 1,38,39
 7 48 7 48 4 48 c 1,32,33
0 52 m 1,40,41
 0 53 0 53 0 56 c 1,42,43
 1 56 1 56 4 56 c 1,44,45
 4 55 4 55 4 52 c 1,46,47
 3 52 3 52 0 52 c 1,40,41
EndSplineSet
EndChar

StartChar: idieresis
Encoding: 239 239 165
Width: 12
GlyphClass: 2
Flags: W
LayerCount: 2
Fore
SplineSet
0 0 m 1,0,1
 0 10 0 10 0 40 c 1,2,3
 1 40 1 40 4 40 c 1,4,5
 4 30 4 30 4 0 c 1,6,7
 3 0 3 0 0 0 c 1,0,1
-8 44 m 1,8,9
 -8 45 -8 45 -8 48 c 1,10,11
 -7 48 -7 48 -4 48 c 1,12,13
 -4 47 -4 47 -4 44 c 1,14,15
 -5 44 -5 44 -8 44 c 1,8,9
8 44 m 1,16,17
 8 45 8 45 8 48 c 1,18,19
 9 48 9 48 12 48 c 1,20,21
 12 47 12 47 12 44 c 1,22,23
 11 44 11 44 8 44 c 1,16,17
EndSplineSet
EndChar

StartChar: eth
Encoding: 240 240 166
Width: 40
GlyphClass: 2
Flags: W
LayerCount: 2
Fore
SplineSet
8 0 m 1,0,1
 8 1 8 1 8 4 c 1,2,3
 11 4 11 4 20 4 c 1,4,5
 20 3 20 3 20 0 c 1,6,7
 17 0 17 0 8 0 c 1,0,1
4 4 m 1,8,9
 4 5 4 5 4 8 c 1,10,11
 5 8 5 8 8 8 c 1,12,13
 8 7 8 7 8 4 c 1,14,15
 7 4 7 4 4 4 c 1,8,9
20 4 m 1,16,17
 20 5 20 5 20 8 c 1,18,19
 21 8 21 8 24 8 c 1,20,21
 24 7 24 7 24 4 c 1,22,23
 23 4 23 4 20 4 c 1,16,17
0 8 m 1,24,25
 0 14 0 14 0 32 c 1,26,27
 1 32 1 32 4 32 c 1,28,29
 4 26 4 26 4 8 c 1,30,31
 3 8 3 8 0 8 c 1,24,25
4 32 m 1,32,33
 4 33 4 33 4 36 c 1,34,35
 5 36 5 36 8 36 c 1,36,37
 8 35 8 35 8 32 c 1,38,39
 7 32 7 32 4 32 c 1,32,33
8 36 m 1,40,41
 8 37 8 37 8 40 c 1,42,43
 11 40 11 40 20 40 c 1,44,45
 20 39 20 39 20 36 c 1,46,47
 17 36 17 36 8 36 c 1,40,41
24 8 m 1,48,49
 24 14 24 14 24 32 c 1,50,51
 23 32 23 32 20 32 c 1,52,53
 20 33 20 33 20 36 c 1,54,55
 21 36 21 36 24 36 c 1,56,57
 24 38 24 38 24 44 c 1,58,59
 22 44 22 44 16 44 c 1,60,61
 16 45 16 45 16 48 c 1,62,63
 18 48 18 48 24 48 c 1,64,65
 24 50 24 50 24 56 c 1,66,67
 25 56 25 56 28 56 c 1,68,69
 28 54 28 54 28 48 c 1,70,71
 29 48 29 48 32 48 c 1,72,73
 32 47 32 47 32 44 c 1,74,75
 31 44 31 44 28 44 c 1,76,77
 28 35 28 35 28 8 c 1,78,79
 27 8 27 8 24 8 c 1,48,49
EndSplineSet
EndChar

StartChar: ntilde
Encoding: 241 241 167
Width: 36
GlyphClass: 2
Flags: W
LayerCount: 2
Fore
SplineSet
24 0 m 1,0,1
 24 8 24 8 24 32 c 1,2,3
 25 32 25 32 28 32 c 1,4,5
 28 24 28 24 28 0 c 1,6,7
 27 0 27 0 24 0 c 1,0,1
20 32 m 1,8,9
 20 33 20 33 20 36 c 1,10,11
 21 36 21 36 24 36 c 1,12,13
 24 35 24 35 24 32 c 1,14,15
 23 32 23 32 20 32 c 1,8,9
0 0 m 1,16,17
 0 10 0 10 0 40 c 1,18,19
 1 40 1 40 4 40 c 1,20,21
 4 39 4 39 4 36 c 1,22,23
 5 36 5 36 8 36 c 1,24,25
 8 35 8 35 8 32 c 1,26,27
 7 32 7 32 4 32 c 1,28,29
 4 24 4 24 4 0 c 1,30,31
 3 0 3 0 0 0 c 1,16,17
8 36 m 1,32,33
 8 37 8 37 8 40 c 1,34,35
 11 40 11 40 20 40 c 1,36,37
 20 39 20 39 20 36 c 1,38,39
 17 36 17 36 8 36 c 1,32,33
0 44 m 1,40,41
 0 45 0 45 0 48 c 1,42,43
 1 48 1 48 4 48 c 1,44,45
 4 47 4 47 4 44 c 1,46,47
 3 44 3 44 0 44 c 1,40,41
20 44 m 1,48,49
 20 45 20 45 20 48 c 1,50,51
 21 48 21 48 24 48 c 1,52,53
 24 47 24 47 24 44 c 1,54,55
 23 44 23 44 20 44 c 1,48,49
4 48 m 1,56,57
 4 49 4 49 4 52 c 1,58,59
 5 52 5 52 8 52 c 1,60,61
 8 51 8 51 8 48 c 1,62,63
 7 48 7 48 4 48 c 1,56,57
16 48 m 1,64,65
 16 49 16 49 16 52 c 1,66,67
 17 52 17 52 20 52 c 1,68,69
 20 51 20 51 20 48 c 1,70,71
 19 48 19 48 16 48 c 1,64,65
8 52 m 1,72,73
 8 53 8 53 8 56 c 1,74,75
 10 56 10 56 16 56 c 1,76,77
 16 55 16 55 16 52 c 1,78,79
 14 52 14 52 8 52 c 1,72,73
24 48 m 1,80,81
 24 50 24 50 24 56 c 1,82,83
 25 56 25 56 28 56 c 1,84,85
 28 54 28 54 28 48 c 1,86,87
 27 48 27 48 24 48 c 1,80,81
EndSplineSet
EndChar

StartChar: ograve
Encoding: 242 242 168
Width: 36
GlyphClass: 2
Flags: W
LayerCount: 2
Fore
SplineSet
8 0 m 1,0,1
 8 1 8 1 8 4 c 1,2,3
 11 4 11 4 20 4 c 1,4,5
 20 3 20 3 20 0 c 1,6,7
 17 0 17 0 8 0 c 1,0,1
4 4 m 1,8,9
 4 5 4 5 4 8 c 1,10,11
 5 8 5 8 8 8 c 1,12,13
 8 7 8 7 8 4 c 1,14,15
 7 4 7 4 4 4 c 1,8,9
20 4 m 1,16,17
 20 5 20 5 20 8 c 1,18,19
 21 8 21 8 24 8 c 1,20,21
 24 7 24 7 24 4 c 1,22,23
 23 4 23 4 20 4 c 1,16,17
0 8 m 1,24,25
 0 14 0 14 0 32 c 1,26,27
 1 32 1 32 4 32 c 1,28,29
 4 26 4 26 4 8 c 1,30,31
 3 8 3 8 0 8 c 1,24,25
24 8 m 1,32,33
 24 14 24 14 24 32 c 1,34,35
 25 32 25 32 28 32 c 1,36,37
 28 26 28 26 28 8 c 1,38,39
 27 8 27 8 24 8 c 1,32,33
4 32 m 1,40,41
 4 33 4 33 4 36 c 1,42,43
 5 36 5 36 8 36 c 1,44,45
 8 35 8 35 8 32 c 1,46,47
 7 32 7 32 4 32 c 1,40,41
20 32 m 1,48,49
 20 33 20 33 20 36 c 1,50,51
 21 36 21 36 24 36 c 1,52,53
 24 35 24 35 24 32 c 1,54,55
 23 32 23 32 20 32 c 1,48,49
8 36 m 1,56,57
 8 37 8 37 8 40 c 1,58,59
 11 40 11 40 20 40 c 1,60,61
 20 39 20 39 20 36 c 1,62,63
 17 36 17 36 8 36 c 1,56,57
12 44 m 1,64,65
 12 45 12 45 12 48 c 1,66,67
 13 48 13 48 16 48 c 1,68,69
 16 47 16 47 16 44 c 1,70,71
 15 44 15 44 12 44 c 1,64,65
8 48 m 1,72,73
 8 49 8 49 8 52 c 1,74,75
 9 52 9 52 12 52 c 1,76,77
 12 51 12 51 12 48 c 1,78,79
 11 48 11 48 8 48 c 1,72,73
4 52 m 1,80,81
 4 53 4 53 4 56 c 1,82,83
 5 56 5 56 8 56 c 1,84,85
 8 55 8 55 8 52 c 1,86,87
 7 52 7 52 4 52 c 1,80,81
EndSplineSet
EndChar

StartChar: oacute
Encoding: 243 243 169
Width: 36
GlyphClass: 2
Flags: W
LayerCount: 2
Fore
SplineSet
8 0 m 1,0,1
 8 1 8 1 8 4 c 1,2,3
 11 4 11 4 20 4 c 1,4,5
 20 3 20 3 20 0 c 1,6,7
 17 0 17 0 8 0 c 1,0,1
4 4 m 1,8,9
 4 5 4 5 4 8 c 1,10,11
 5 8 5 8 8 8 c 1,12,13
 8 7 8 7 8 4 c 1,14,15
 7 4 7 4 4 4 c 1,8,9
20 4 m 1,16,17
 20 5 20 5 20 8 c 1,18,19
 21 8 21 8 24 8 c 1,20,21
 24 7 24 7 24 4 c 1,22,23
 23 4 23 4 20 4 c 1,16,17
0 8 m 1,24,25
 0 14 0 14 0 32 c 1,26,27
 1 32 1 32 4 32 c 1,28,29
 4 26 4 26 4 8 c 1,30,31
 3 8 3 8 0 8 c 1,24,25
24 8 m 1,32,33
 24 14 24 14 24 32 c 1,34,35
 25 32 25 32 28 32 c 1,36,37
 28 26 28 26 28 8 c 1,38,39
 27 8 27 8 24 8 c 1,32,33
4 32 m 1,40,41
 4 33 4 33 4 36 c 1,42,43
 5 36 5 36 8 36 c 1,44,45
 8 35 8 35 8 32 c 1,46,47
 7 32 7 32 4 32 c 1,40,41
20 32 m 1,48,49
 20 33 20 33 20 36 c 1,50,51
 21 36 21 36 24 36 c 1,52,53
 24 35 24 35 24 32 c 1,54,55
 23 32 23 32 20 32 c 1,48,49
8 36 m 1,56,57
 8 37 8 37 8 40 c 1,58,59
 11 40 11 40 20 40 c 1,60,61
 20 39 20 39 20 36 c 1,62,63
 17 36 17 36 8 36 c 1,56,57
12 44 m 1,64,65
 12 45 12 45 12 48 c 1,66,67
 13 48 13 48 16 48 c 1,68,69
 16 47 16 47 16 44 c 1,70,71
 15 44 15 44 12 44 c 1,64,65
16 48 m 1,72,73
 16 49 16 49 16 52 c 1,74,75
 17 52 17 52 20 52 c 1,76,77
 20 51 20 51 20 48 c 1,78,79
 19 48 19 48 16 48 c 1,72,73
20 52 m 1,80,81
 20 53 20 53 20 56 c 1,82,83
 21 56 21 56 24 56 c 1,84,85
 24 55 24 55 24 52 c 1,86,87
 23 52 23 52 20 52 c 1,80,81
EndSplineSet
EndChar

StartChar: ocircumflex
Encoding: 244 244 170
Width: 36
GlyphClass: 2
Flags: W
LayerCount: 2
Fore
SplineSet
8 0 m 1,0,1
 8 1 8 1 8 4 c 1,2,3
 9 4 9 4 12 4 c 0,4,5
 14 4 14 4 20 4 c 1,6,7
 20 3 20 3 20 0 c 1,8,9
 17 0 17 0 8 0 c 1,0,1
4 4 m 1,10,11
 4 5 4 5 4 8 c 1,12,13
 5 8 5 8 8 8 c 1,14,15
 8 7 8 7 8 4 c 1,16,17
 7 4 7 4 4 4 c 1,10,11
20 4 m 1,18,19
 20 5 20 5 20 8 c 1,20,21
 21 8 21 8 24 8 c 1,22,23
 24 7 24 7 24 4 c 1,24,25
 23 4 23 4 20 4 c 1,18,19
0 8 m 1,26,27
 0 14 0 14 0 32 c 1,28,29
 1 32 1 32 4 32 c 1,30,31
 4 26 4 26 4 8 c 1,32,33
 3 8 3 8 0 8 c 1,26,27
24 8 m 1,34,35
 24 14 24 14 24 32 c 1,36,37
 25 32 25 32 28 32 c 1,38,39
 28 26 28 26 28 8 c 1,40,41
 27 8 27 8 24 8 c 1,34,35
4 32 m 1,42,43
 4 33 4 33 4 36 c 1,44,45
 5 36 5 36 8 36 c 1,46,47
 8 35 8 35 8 32 c 1,48,49
 7 32 7 32 4 32 c 1,42,43
20 32 m 1,50,51
 20 33 20 33 20 36 c 1,52,53
 21 36 21 36 24 36 c 1,54,55
 24 35 24 35 24 32 c 1,56,57
 23 32 23 32 20 32 c 1,50,51
8 36 m 1,58,59
 8 37 8 37 8 40 c 1,60,61
 11 40 11 40 20 40 c 1,62,63
 20 39 20 39 20 36 c 1,64,65
 17 36 17 36 8 36 c 1,58,59
4 44 m 1,66,67
 4 45 4 45 4 48 c 1,68,69
 5 48 5 48 8 48 c 1,70,71
 8 47 8 47 8 44 c 1,72,73
 7 44 7 44 4 44 c 1,66,67
20 44 m 1,74,75
 20 45 20 45 20 48 c 1,76,77
 21 48 21 48 24 48 c 1,78,79
 24 47 24 47 24 44 c 1,80,81
 23 44 23 44 20 44 c 1,74,75
8 48 m 1,82,83
 8 49 8 49 8 52 c 1,84,85
 9 52 9 52 12 52 c 1,86,87
 12 51 12 51 12 48 c 1,88,89
 11 48 11 48 8 48 c 1,82,83
16 48 m 1,90,91
 16 49 16 49 16 52 c 1,92,93
 17 52 17 52 20 52 c 1,94,95
 20 51 20 51 20 48 c 1,96,97
 19 48 19 48 16 48 c 1,90,91
12 52 m 1,98,99
 12 53 12 53 12 56 c 1,100,101
 13 56 13 56 16 56 c 1,102,103
 16 55 16 55 16 52 c 1,104,105
 15 52 15 52 12 52 c 1,98,99
EndSplineSet
EndChar

StartChar: otilde
Encoding: 245 245 171
Width: 36
GlyphClass: 2
Flags: W
LayerCount: 2
Fore
SplineSet
8 0 m 1,0,1
 8 1 8 1 8 4 c 1,2,3
 11 4 11 4 20 4 c 1,4,5
 20 3 20 3 20 0 c 1,6,7
 17 0 17 0 8 0 c 1,0,1
4 4 m 1,8,9
 4 5 4 5 4 8 c 1,10,11
 5 8 5 8 8 8 c 1,12,13
 8 7 8 7 8 4 c 1,14,15
 7 4 7 4 4 4 c 1,8,9
20 4 m 1,16,17
 20 5 20 5 20 8 c 1,18,19
 21 8 21 8 24 8 c 1,20,21
 24 7 24 7 24 4 c 1,22,23
 23 4 23 4 20 4 c 1,16,17
0 8 m 1,24,25
 0 14 0 14 0 32 c 1,26,27
 1 32 1 32 4 32 c 1,28,29
 4 26 4 26 4 8 c 1,30,31
 3 8 3 8 0 8 c 1,24,25
24 8 m 1,32,33
 24 14 24 14 24 32 c 1,34,35
 25 32 25 32 28 32 c 1,36,37
 28 26 28 26 28 8 c 1,38,39
 27 8 27 8 24 8 c 1,32,33
4 32 m 1,40,41
 4 33 4 33 4 36 c 1,42,43
 5 36 5 36 8 36 c 1,44,45
 8 35 8 35 8 32 c 1,46,47
 7 32 7 32 4 32 c 1,40,41
20 32 m 1,48,49
 20 33 20 33 20 36 c 1,50,51
 21 36 21 36 24 36 c 1,52,53
 24 35 24 35 24 32 c 1,54,55
 23 32 23 32 20 32 c 1,48,49
8 36 m 1,56,57
 8 37 8 37 8 40 c 1,58,59
 11 40 11 40 20 40 c 1,60,61
 20 39 20 39 20 36 c 1,62,63
 17 36 17 36 8 36 c 1,56,57
0 44 m 1,64,65
 0 45 0 45 0 48 c 1,66,67
 1 48 1 48 4 48 c 1,68,69
 4 47 4 47 4 44 c 1,70,71
 3 44 3 44 0 44 c 1,64,65
20 44 m 1,72,73
 20 45 20 45 20 48 c 1,74,75
 21 48 21 48 24 48 c 1,76,77
 24 47 24 47 24 44 c 1,78,79
 23 44 23 44 20 44 c 1,72,73
4 48 m 1,80,81
 4 49 4 49 4 52 c 1,82,83
 5 52 5 52 8 52 c 1,84,85
 8 51 8 51 8 48 c 1,86,87
 7 48 7 48 4 48 c 1,80,81
16 48 m 1,88,89
 16 49 16 49 16 52 c 1,90,91
 17 52 17 52 20 52 c 1,92,93
 20 51 20 51 20 48 c 1,94,95
 19 48 19 48 16 48 c 1,88,89
8 52 m 1,96,97
 8 53 8 53 8 56 c 1,98,99
 10 56 10 56 16 56 c 1,100,101
 16 55 16 55 16 52 c 1,102,103
 14 52 14 52 8 52 c 1,96,97
24 48 m 1,104,105
 24 50 24 50 24 56 c 1,106,107
 25 56 25 56 28 56 c 1,108,109
 28 54 28 54 28 48 c 1,110,111
 27 48 27 48 24 48 c 1,104,105
EndSplineSet
EndChar

StartChar: odieresis
Encoding: 246 246 172
Width: 36
GlyphClass: 2
Flags: W
LayerCount: 2
Fore
SplineSet
8 0 m 1,0,1
 8 1 8 1 8 4 c 1,2,3
 11 4 11 4 20 4 c 1,4,5
 20 3 20 3 20 0 c 1,6,7
 17 0 17 0 8 0 c 1,0,1
4 4 m 1,8,9
 4 5 4 5 4 8 c 1,10,11
 5 8 5 8 8 8 c 1,12,13
 8 7 8 7 8 4 c 1,14,15
 7 4 7 4 4 4 c 1,8,9
20 4 m 1,16,17
 20 5 20 5 20 8 c 1,18,19
 21 8 21 8 24 8 c 1,20,21
 24 7 24 7 24 4 c 1,22,23
 23 4 23 4 20 4 c 1,16,17
0 8 m 1,24,25
 0 14 0 14 0 32 c 1,26,27
 1 32 1 32 4 32 c 1,28,29
 4 26 4 26 4 8 c 1,30,31
 3 8 3 8 0 8 c 1,24,25
24 8 m 1,32,33
 24 14 24 14 24 32 c 1,34,35
 25 32 25 32 28 32 c 1,36,37
 28 26 28 26 28 8 c 1,38,39
 27 8 27 8 24 8 c 1,32,33
4 32 m 1,40,41
 4 33 4 33 4 36 c 1,42,43
 5 36 5 36 8 36 c 1,44,45
 8 35 8 35 8 32 c 1,46,47
 7 32 7 32 4 32 c 1,40,41
20 32 m 1,48,49
 20 33 20 33 20 36 c 1,50,51
 21 36 21 36 24 36 c 1,52,53
 24 35 24 35 24 32 c 1,54,55
 23 32 23 32 20 32 c 1,48,49
8 36 m 1,56,57
 8 37 8 37 8 40 c 1,58,59
 11 40 11 40 20 40 c 1,60,61
 20 39 20 39 20 36 c 1,62,63
 17 36 17 36 8 36 c 1,56,57
4 44 m 1,64,65
 4 45 4 45 4 48 c 1,66,67
 5 48 5 48 8 48 c 1,68,69
 8 47 8 47 8 44 c 1,70,71
 7 44 7 44 4 44 c 1,64,65
20 44 m 1,72,73
 20 45 20 45 20 48 c 1,74,75
 21 48 21 48 24 48 c 1,76,77
 24 47 24 47 24 44 c 1,78,79
 23 44 23 44 20 44 c 1,72,73
EndSplineSet
EndChar

StartChar: divide
Encoding: 247 247 173
Width: 28
GlyphClass: 2
Flags: W
LayerCount: 2
Fore
SplineSet
8 12 m 1,0,1
 8 13 8 13 8 16 c 1,2,3
 9 16 9 16 12 16 c 1,4,5
 12 15 12 15 12 12 c 1,6,7
 11 12 11 12 8 12 c 1,0,1
0 20 m 1,8,9
 0 21 0 21 0 24 c 1,10,11
 5 24 5 24 20 24 c 1,12,13
 20 23 20 23 20 20 c 1,14,15
 15 20 15 20 0 20 c 1,8,9
8 28 m 1,16,17
 8 29 8 29 8 32 c 1,18,19
 9 32 9 32 12 32 c 1,20,21
 12 31 12 31 12 28 c 1,22,23
 11 28 11 28 8 28 c 1,16,17
EndSplineSet
EndChar

StartChar: oslash
Encoding: 248 248 174
Width: 36
GlyphClass: 2
Flags: W
LayerCount: 2
Fore
SplineSet
0 0 m 1,0,1
 0 1 0 1 0 4 c 1,2,3
 1 4 1 4 4 4 c 1,4,5
 4 3 4 3 4 0 c 1,6,7
 3 0 3 0 0 0 c 1,0,1
8 0 m 1,8,9
 8 1 8 1 8 4 c 1,10,11
 11 4 11 4 20 4 c 1,12,13
 20 3 20 3 20 0 c 1,14,15
 17 0 17 0 8 0 c 1,8,9
20 4 m 1,16,17
 20 5 20 5 20 8 c 1,18,19
 21 8 21 8 24 8 c 1,20,21
 24 7 24 7 24 4 c 1,22,23
 23 4 23 4 20 4 c 1,16,17
8 12 m 1,24,25
 8 13 8 13 8 16 c 1,26,27
 9 16 9 16 12 16 c 1,28,29
 12 15 12 15 12 12 c 1,30,31
 11 12 11 12 8 12 c 1,24,25
12 16 m 1,32,33
 12 18 12 18 12 24 c 1,34,35
 13 24 13 24 16 24 c 1,36,37
 16 22 16 22 16 16 c 1,38,39
 15 16 15 16 12 16 c 1,32,33
16 24 m 1,40,41
 16 25 16 25 16 28 c 1,42,43
 17 28 17 28 20 28 c 1,44,45
 20 27 20 27 20 24 c 1,46,47
 19 24 19 24 16 24 c 1,40,41
4 4 m 1,48,49
 4 5 4 5 4 8 c 1,50,51
 3 8 3 8 0 8 c 1,52,53
 0 14 0 14 0 32 c 1,54,55
 1 32 1 32 4 32 c 1,56,57
 4 27 4 27 4 12 c 1,58,59
 5 12 5 12 8 12 c 1,60,61
 8 10 8 10 8 4 c 1,62,63
 7 4 7 4 4 4 c 1,48,49
4 32 m 1,64,65
 4 33 4 33 4 36 c 1,66,67
 5 36 5 36 8 36 c 1,68,69
 8 35 8 35 8 32 c 1,70,71
 7 32 7 32 4 32 c 1,64,65
24 8 m 1,72,73
 24 13 24 13 24 28 c 1,74,75
 23 28 23 28 20 28 c 1,76,77
 20 30 20 30 20 36 c 1,78,79
 21 36 21 36 24 36 c 1,80,81
 24 35 24 35 24 32 c 1,82,83
 25 32 25 32 28 32 c 1,84,85
 28 26 28 26 28 8 c 1,86,87
 27 8 27 8 24 8 c 1,72,73
8 36 m 1,88,89
 8 37 8 37 8 40 c 1,90,91
 11 40 11 40 20 40 c 1,92,93
 20 39 20 39 20 36 c 1,94,95
 17 36 17 36 8 36 c 1,88,89
24 36 m 1,96,97
 24 37 24 37 24 40 c 1,98,99
 25 40 25 40 28 40 c 1,100,101
 28 39 28 39 28 36 c 1,102,103
 27 36 27 36 24 36 c 1,96,97
EndSplineSet
EndChar

StartChar: ugrave
Encoding: 249 249 175
Width: 36
GlyphClass: 2
Flags: W
LayerCount: 2
Fore
SplineSet
8 0 m 1,0,1
 8 1 8 1 8 4 c 1,2,3
 11 4 11 4 20 4 c 1,4,5
 20 3 20 3 20 0 c 1,6,7
 17 0 17 0 8 0 c 1,0,1
4 4 m 1,8,9
 4 5 4 5 4 8 c 1,10,11
 5 8 5 8 8 8 c 1,12,13
 8 7 8 7 8 4 c 1,14,15
 7 4 7 4 4 4 c 1,8,9
20 4 m 1,16,17
 20 5 20 5 20 8 c 1,18,19
 21 8 21 8 24 8 c 1,20,21
 24 7 24 7 24 4 c 1,22,23
 23 4 23 4 20 4 c 1,16,17
0 8 m 1,24,25
 0 16 0 16 0 40 c 1,26,27
 1 40 1 40 4 40 c 1,28,29
 4 32 4 32 4 8 c 1,30,31
 3 8 3 8 0 8 c 1,24,25
24 8 m 1,32,33
 24 16 24 16 24 40 c 1,34,35
 25 40 25 40 28 40 c 1,36,37
 28 32 28 32 28 8 c 1,38,39
 27 8 27 8 24 8 c 1,32,33
12 44 m 1,40,41
 12 45 12 45 12 48 c 1,42,43
 13 48 13 48 16 48 c 1,44,45
 16 47 16 47 16 44 c 1,46,47
 15 44 15 44 12 44 c 1,40,41
8 48 m 1,48,49
 8 49 8 49 8 52 c 1,50,51
 9 52 9 52 12 52 c 1,52,53
 12 51 12 51 12 48 c 1,54,55
 11 48 11 48 8 48 c 1,48,49
4 52 m 1,56,57
 4 53 4 53 4 56 c 1,58,59
 5 56 5 56 8 56 c 1,60,61
 8 55 8 55 8 52 c 1,62,63
 7 52 7 52 4 52 c 1,56,57
EndSplineSet
EndChar

StartChar: uacute
Encoding: 250 250 176
Width: 36
GlyphClass: 2
Flags: W
LayerCount: 2
Fore
SplineSet
8 0 m 1,0,1
 8 1 8 1 8 4 c 1,2,3
 11 4 11 4 20 4 c 1,4,5
 20 3 20 3 20 0 c 1,6,7
 17 0 17 0 8 0 c 1,0,1
4 4 m 1,8,9
 4 5 4 5 4 8 c 1,10,11
 5 8 5 8 8 8 c 1,12,13
 8 7 8 7 8 4 c 1,14,15
 7 4 7 4 4 4 c 1,8,9
20 4 m 1,16,17
 20 5 20 5 20 8 c 1,18,19
 21 8 21 8 24 8 c 1,20,21
 24 7 24 7 24 4 c 1,22,23
 23 4 23 4 20 4 c 1,16,17
0 8 m 1,24,25
 0 16 0 16 0 40 c 1,26,27
 1 40 1 40 4 40 c 1,28,29
 4 32 4 32 4 8 c 1,30,31
 3 8 3 8 0 8 c 1,24,25
24 8 m 1,32,33
 24 16 24 16 24 40 c 1,34,35
 25 40 25 40 28 40 c 1,36,37
 28 32 28 32 28 8 c 1,38,39
 27 8 27 8 24 8 c 1,32,33
12 44 m 1,40,41
 12 45 12 45 12 48 c 1,42,43
 13 48 13 48 16 48 c 1,44,45
 16 47 16 47 16 44 c 1,46,47
 15 44 15 44 12 44 c 1,40,41
16 48 m 1,48,49
 16 49 16 49 16 52 c 1,50,51
 17 52 17 52 20 52 c 1,52,53
 20 51 20 51 20 48 c 1,54,55
 19 48 19 48 16 48 c 1,48,49
20 52 m 1,56,57
 20 53 20 53 20 56 c 1,58,59
 21 56 21 56 24 56 c 1,60,61
 24 55 24 55 24 52 c 1,62,63
 23 52 23 52 20 52 c 1,56,57
EndSplineSet
EndChar

StartChar: ucircumflex
Encoding: 251 251 177
Width: 36
GlyphClass: 2
Flags: W
LayerCount: 2
Fore
SplineSet
8 0 m 1,0,1
 8 1 8 1 8 4 c 1,2,3
 9 4 9 4 12 4 c 0,4,5
 14 4 14 4 20 4 c 1,6,7
 20 3 20 3 20 0 c 1,8,9
 17 0 17 0 8 0 c 1,0,1
4 4 m 1,10,11
 4 5 4 5 4 8 c 1,12,13
 5 8 5 8 8 8 c 1,14,15
 8 7 8 7 8 4 c 1,16,17
 7 4 7 4 4 4 c 1,10,11
20 4 m 1,18,19
 20 5 20 5 20 8 c 1,20,21
 21 8 21 8 24 8 c 1,22,23
 24 7 24 7 24 4 c 1,24,25
 23 4 23 4 20 4 c 1,18,19
0 8 m 1,26,27
 0 16 0 16 0 40 c 1,28,29
 1 40 1 40 4 40 c 1,30,31
 4 32 4 32 4 8 c 1,32,33
 3 8 3 8 0 8 c 1,26,27
24 8 m 1,34,35
 24 16 24 16 24 40 c 1,36,37
 25 40 25 40 28 40 c 1,38,39
 28 32 28 32 28 8 c 1,40,41
 27 8 27 8 24 8 c 1,34,35
4 44 m 1,42,43
 4 45 4 45 4 48 c 1,44,45
 5 48 5 48 8 48 c 1,46,47
 8 47 8 47 8 44 c 1,48,49
 7 44 7 44 4 44 c 1,42,43
20 44 m 1,50,51
 20 45 20 45 20 48 c 1,52,53
 21 48 21 48 24 48 c 1,54,55
 24 47 24 47 24 44 c 1,56,57
 23 44 23 44 20 44 c 1,50,51
8 48 m 1,58,59
 8 49 8 49 8 52 c 1,60,61
 9 52 9 52 12 52 c 1,62,63
 12 51 12 51 12 48 c 1,64,65
 11 48 11 48 8 48 c 1,58,59
16 48 m 1,66,67
 16 49 16 49 16 52 c 1,68,69
 17 52 17 52 20 52 c 1,70,71
 20 51 20 51 20 48 c 1,72,73
 19 48 19 48 16 48 c 1,66,67
12 52 m 1,74,75
 12 53 12 53 12 56 c 1,76,77
 13 56 13 56 16 56 c 1,78,79
 16 55 16 55 16 52 c 1,80,81
 15 52 15 52 12 52 c 1,74,75
EndSplineSet
EndChar

StartChar: udieresis
Encoding: 252 252 178
Width: 36
GlyphClass: 2
Flags: W
LayerCount: 2
Fore
SplineSet
8 0 m 1,0,1
 8 1 8 1 8 4 c 1,2,3
 11 4 11 4 20 4 c 1,4,5
 20 3 20 3 20 0 c 1,6,7
 17 0 17 0 8 0 c 1,0,1
4 4 m 1,8,9
 4 5 4 5 4 8 c 1,10,11
 5 8 5 8 8 8 c 1,12,13
 8 7 8 7 8 4 c 1,14,15
 7 4 7 4 4 4 c 1,8,9
20 4 m 1,16,17
 20 5 20 5 20 8 c 1,18,19
 21 8 21 8 24 8 c 1,20,21
 24 7 24 7 24 4 c 1,22,23
 23 4 23 4 20 4 c 1,16,17
0 8 m 1,24,25
 0 16 0 16 0 40 c 1,26,27
 1 40 1 40 4 40 c 1,28,29
 4 32 4 32 4 8 c 1,30,31
 3 8 3 8 0 8 c 1,24,25
24 8 m 1,32,33
 24 16 24 16 24 40 c 1,34,35
 25 40 25 40 28 40 c 1,36,37
 28 32 28 32 28 8 c 1,38,39
 27 8 27 8 24 8 c 1,32,33
4 44 m 1,40,41
 4 45 4 45 4 48 c 1,42,43
 5 48 5 48 8 48 c 1,44,45
 8 47 8 47 8 44 c 1,46,47
 7 44 7 44 4 44 c 1,40,41
20 44 m 1,48,49
 20 45 20 45 20 48 c 1,50,51
 21 48 21 48 24 48 c 1,52,53
 24 47 24 47 24 44 c 1,54,55
 23 44 23 44 20 44 c 1,48,49
EndSplineSet
EndChar

StartChar: yacute
Encoding: 253 253 179
Width: 36
GlyphClass: 2
Flags: W
LayerCount: 2
Fore
SplineSet
8 -12 m 1,0,1
 8 -11 8 -11 8 -8 c 1,2,3
 11 -8 11 -8 20 -8 c 1,4,5
 20 -9 20 -9 20 -12 c 1,6,7
 17 -12 17 -12 8 -12 c 1,0,1
4 -8 m 1,8,9
 4 -7 4 -7 4 -4 c 1,10,11
 5 -4 5 -4 8 -4 c 1,12,13
 8 -5 8 -5 8 -8 c 1,14,15
 7 -8 7 -8 4 -8 c 1,8,9
20 -8 m 1,16,17
 20 -7 20 -7 20 -4 c 1,18,19
 21 -4 21 -4 24 -4 c 1,20,21
 24 -5 24 -5 24 -8 c 1,22,23
 23 -8 23 -8 20 -8 c 1,16,17
0 -4 m 1,24,25
 0 -3 0 -3 0 0 c 1,26,27
 1 0 1 0 4 0 c 1,28,29
 4 -1 4 -1 4 -4 c 1,30,31
 3 -4 3 -4 0 -4 c 1,24,25
8 8 m 1,32,33
 8 9 8 9 8 12 c 1,34,35
 11 12 11 12 20 12 c 1,36,37
 20 11 20 11 20 8 c 1,38,39
 17 8 17 8 8 8 c 1,32,33
4 12 m 1,40,41
 4 13 4 13 4 16 c 1,42,43
 5 16 5 16 8 16 c 1,44,45
 8 15 8 15 8 12 c 1,46,47
 7 12 7 12 4 12 c 1,40,41
0 16 m 1,48,49
 0 22 0 22 0 40 c 1,50,51
 1 40 1 40 4 40 c 1,52,53
 4 34 4 34 4 16 c 1,54,55
 3 16 3 16 0 16 c 1,48,49
24 -4 m 1,56,57
 24 0 24 0 24 12 c 1,58,59
 23 12 23 12 20 12 c 1,60,61
 20 13 20 13 20 16 c 1,62,63
 21 16 21 16 24 16 c 1,64,65
 24 22 24 22 24 40 c 1,66,67
 25 40 25 40 28 40 c 1,68,69
 28 29 28 29 28 -4 c 1,70,71
 27 -4 27 -4 24 -4 c 1,56,57
12 44 m 1,72,73
 12 45 12 45 12 48 c 1,74,75
 13 48 13 48 16 48 c 1,76,77
 16 47 16 47 16 44 c 1,78,79
 15 44 15 44 12 44 c 1,72,73
16 48 m 1,80,81
 16 49 16 49 16 52 c 1,82,83
 17 52 17 52 20 52 c 1,84,85
 20 51 20 51 20 48 c 1,86,87
 19 48 19 48 16 48 c 1,80,81
20 52 m 1,88,89
 20 53 20 53 20 56 c 1,90,91
 21 56 21 56 24 56 c 1,92,93
 24 55 24 55 24 52 c 1,94,95
 23 52 23 52 20 52 c 1,88,89
EndSplineSet
EndChar

StartChar: thorn
Encoding: 254 254 180
Width: 36
GlyphClass: 2
Flags: W
LayerCount: 2
Fore
SplineSet
8 4 m 1,0,1
 8 5 8 5 8 8 c 1,2,3
 11 8 11 8 20 8 c 1,4,5
 20 7 20 7 20 4 c 1,6,7
 17 4 17 4 8 4 c 1,0,1
20 8 m 1,8,9
 20 9 20 9 20 12 c 1,10,11
 21 12 21 12 24 12 c 1,12,13
 24 11 24 11 24 8 c 1,14,15
 23 8 23 8 20 8 c 1,8,9
24 12 m 1,16,17
 24 16 24 16 24 28 c 1,18,19
 25 28 25 28 28 28 c 1,20,21
 28 24 28 24 28 12 c 1,22,23
 27 12 27 12 24 12 c 1,16,17
20 28 m 1,24,25
 20 29 20 29 20 32 c 1,26,27
 21 32 21 32 24 32 c 1,28,29
 24 31 24 31 24 28 c 1,30,31
 23 28 23 28 20 28 c 1,24,25
8 32 m 1,32,33
 8 33 8 33 8 36 c 1,34,35
 11 36 11 36 20 36 c 1,36,37
 20 35 20 35 20 32 c 1,38,39
 17 32 17 32 8 32 c 1,32,33
0 0 m 1,40,41
 0 10 0 10 0 40 c 1,42,43
 1 40 1 40 4 40 c 1,44,45
 4 38 4 38 4 32 c 1,46,47
 5 32 5 32 8 32 c 1,48,49
 8 31 8 31 8 28 c 1,50,51
 7 28 7 28 4 28 c 1,52,53
 4 24 4 24 4 12 c 1,54,55
 5 12 5 12 8 12 c 1,56,57
 8 11 8 11 8 8 c 1,58,59
 7 8 7 8 4 8 c 1,60,61
 4 6 4 6 4 0 c 1,62,63
 3 0 3 0 0 0 c 1,40,41
EndSplineSet
EndChar

StartChar: ydieresis
Encoding: 255 255 181
Width: 36
GlyphClass: 2
Flags: W
LayerCount: 2
Fore
SplineSet
8 -12 m 1,0,1
 8 -11 8 -11 8 -8 c 1,2,3
 11 -8 11 -8 20 -8 c 1,4,5
 20 -9 20 -9 20 -12 c 1,6,7
 17 -12 17 -12 8 -12 c 1,0,1
4 -8 m 1,8,9
 4 -7 4 -7 4 -4 c 1,10,11
 5 -4 5 -4 8 -4 c 1,12,13
 8 -5 8 -5 8 -8 c 1,14,15
 7 -8 7 -8 4 -8 c 1,8,9
20 -8 m 1,16,17
 20 -7 20 -7 20 -4 c 1,18,19
 21 -4 21 -4 24 -4 c 1,20,21
 24 -5 24 -5 24 -8 c 1,22,23
 23 -8 23 -8 20 -8 c 1,16,17
0 -4 m 1,24,25
 0 -3 0 -3 0 0 c 1,26,27
 1 0 1 0 4 0 c 1,28,29
 4 -1 4 -1 4 -4 c 1,30,31
 3 -4 3 -4 0 -4 c 1,24,25
8 8 m 1,32,33
 8 9 8 9 8 12 c 1,34,35
 11 12 11 12 20 12 c 1,36,37
 20 11 20 11 20 8 c 1,38,39
 17 8 17 8 8 8 c 1,32,33
4 12 m 1,40,41
 4 13 4 13 4 16 c 1,42,43
 5 16 5 16 8 16 c 1,44,45
 8 15 8 15 8 12 c 1,46,47
 7 12 7 12 4 12 c 1,40,41
0 16 m 1,48,49
 0 22 0 22 0 40 c 1,50,51
 1 40 1 40 4 40 c 1,52,53
 4 34 4 34 4 16 c 1,54,55
 3 16 3 16 0 16 c 1,48,49
24 -4 m 1,56,57
 24 0 24 0 24 12 c 1,58,59
 23 12 23 12 20 12 c 1,60,61
 20 13 20 13 20 16 c 1,62,63
 21 16 21 16 24 16 c 1,64,65
 24 22 24 22 24 40 c 1,66,67
 25 40 25 40 28 40 c 1,68,69
 28 29 28 29 28 -4 c 1,70,71
 27 -4 27 -4 24 -4 c 1,56,57
4 44 m 1,72,73
 4 45 4 45 4 48 c 1,74,75
 5 48 5 48 8 48 c 1,76,77
 8 47 8 47 8 44 c 1,78,79
 7 44 7 44 4 44 c 1,72,73
20 44 m 1,80,81
 20 45 20 45 20 48 c 1,82,83
 21 48 21 48 24 48 c 1,84,85
 24 47 24 47 24 44 c 1,86,87
 23 44 23 44 20 44 c 1,80,81
EndSplineSet
EndChar

StartChar: uni0108
Encoding: 264 264 182
Width: 36
GlyphClass: 2
Flags: W
LayerCount: 2
Fore
SplineSet
8 0 m 1,0,1
 8 1 8 1 8 4 c 1,2,3
 9 4 9 4 12 4 c 0,4,5
 14 4 14 4 20 4 c 1,6,7
 20 3 20 3 20 0 c 1,8,9
 17 0 17 0 8 0 c 1,0,1
4 4 m 1,10,11
 4 5 4 5 4 8 c 1,12,13
 5 8 5 8 8 8 c 1,14,15
 8 7 8 7 8 4 c 1,16,17
 7 4 7 4 4 4 c 1,10,11
20 4 m 1,18,19
 20 5 20 5 20 8 c 1,20,21
 21 8 21 8 24 8 c 1,22,23
 24 7 24 7 24 4 c 1,24,25
 23 4 23 4 20 4 c 1,18,19
24 8 m 1,26,27
 24 9 24 9 24 12 c 1,28,29
 25 12 25 12 28 12 c 1,30,31
 28 11 28 11 28 8 c 1,32,33
 27 8 27 8 24 8 c 1,26,27
0 8 m 1,34,35
 0 17 0 17 0 44 c 1,36,37
 1 44 1 44 4 44 c 1,38,39
 4 35 4 35 4 8 c 1,40,41
 3 8 3 8 0 8 c 1,34,35
24 40 m 1,42,43
 24 41 24 41 24 44 c 1,44,45
 25 44 25 44 28 44 c 1,46,47
 28 43 28 43 28 40 c 1,48,49
 27 40 27 40 24 40 c 1,42,43
4 44 m 1,50,51
 4 45 4 45 4 48 c 1,52,53
 5 48 5 48 8 48 c 1,54,55
 8 47 8 47 8 44 c 1,56,57
 7 44 7 44 4 44 c 1,50,51
20 44 m 1,58,59
 20 45 20 45 20 48 c 1,60,61
 21 48 21 48 24 48 c 1,62,63
 24 47 24 47 24 44 c 1,64,65
 23 44 23 44 20 44 c 1,58,59
8 48 m 1,66,67
 8 49 8 49 8 52 c 1,68,69
 11 52 11 52 20 52 c 1,70,71
 20 51 20 51 20 48 c 1,72,73
 17 48 17 48 8 48 c 1,66,67
4 56 m 1,74,75
 4 57 4 57 4 60 c 1,76,77
 5 60 5 60 8 60 c 1,78,79
 8 59 8 59 8 56 c 1,80,81
 7 56 7 56 4 56 c 1,74,75
20 56 m 1,82,83
 20 57 20 57 20 60 c 1,84,85
 21 60 21 60 24 60 c 1,86,87
 24 59 24 59 24 56 c 1,88,89
 23 56 23 56 20 56 c 1,82,83
8 60 m 1,90,91
 8 61 8 61 8 64 c 1,92,93
 9 64 9 64 12 64 c 1,94,95
 12 63 12 63 12 60 c 1,96,97
 11 60 11 60 8 60 c 1,90,91
16 60 m 1,98,99
 16 61 16 61 16 64 c 1,100,101
 17 64 17 64 20 64 c 1,102,103
 20 63 20 63 20 60 c 1,104,105
 19 60 19 60 16 60 c 1,98,99
12 64 m 1,106,107
 12 65 12 65 12 68 c 1,108,109
 13 68 13 68 16 68 c 1,110,111
 16 67 16 67 16 64 c 1,112,113
 15 64 15 64 12 64 c 1,106,107
EndSplineSet
EndChar

StartChar: uni0109
Encoding: 265 265 183
Width: 36
GlyphClass: 2
Flags: W
LayerCount: 2
Fore
SplineSet
8 0 m 1,0,1
 8 1 8 1 8 4 c 1,2,3
 9 4 9 4 12 4 c 0,4,5
 14 4 14 4 20 4 c 1,6,7
 20 3 20 3 20 0 c 1,8,9
 17 0 17 0 8 0 c 1,0,1
4 4 m 1,10,11
 4 5 4 5 4 8 c 1,12,13
 5 8 5 8 8 8 c 1,14,15
 8 7 8 7 8 4 c 1,16,17
 7 4 7 4 4 4 c 1,10,11
20 4 m 1,18,19
 20 5 20 5 20 8 c 1,20,21
 21 8 21 8 24 8 c 1,22,23
 24 7 24 7 24 4 c 1,24,25
 23 4 23 4 20 4 c 1,18,19
24 8 m 1,26,27
 24 9 24 9 24 12 c 1,28,29
 25 12 25 12 28 12 c 1,30,31
 28 11 28 11 28 8 c 1,32,33
 27 8 27 8 24 8 c 1,26,27
0 8 m 1,34,35
 0 14 0 14 0 32 c 1,36,37
 1 32 1 32 4 32 c 1,38,39
 4 26 4 26 4 8 c 1,40,41
 3 8 3 8 0 8 c 1,34,35
24 28 m 1,42,43
 24 29 24 29 24 32 c 1,44,45
 25 32 25 32 28 32 c 1,46,47
 28 31 28 31 28 28 c 1,48,49
 27 28 27 28 24 28 c 1,42,43
4 32 m 1,50,51
 4 33 4 33 4 36 c 1,52,53
 5 36 5 36 8 36 c 1,54,55
 8 35 8 35 8 32 c 1,56,57
 7 32 7 32 4 32 c 1,50,51
20 32 m 1,58,59
 20 33 20 33 20 36 c 1,60,61
 21 36 21 36 24 36 c 1,62,63
 24 35 24 35 24 32 c 1,64,65
 23 32 23 32 20 32 c 1,58,59
8 36 m 1,66,67
 8 37 8 37 8 40 c 1,68,69
 11 40 11 40 20 40 c 1,70,71
 20 39 20 39 20 36 c 1,72,73
 17 36 17 36 8 36 c 1,66,67
4 44 m 1,74,75
 4 45 4 45 4 48 c 1,76,77
 5 48 5 48 8 48 c 1,78,79
 8 47 8 47 8 44 c 1,80,81
 7 44 7 44 4 44 c 1,74,75
20 44 m 1,82,83
 20 45 20 45 20 48 c 1,84,85
 21 48 21 48 24 48 c 1,86,87
 24 47 24 47 24 44 c 1,88,89
 23 44 23 44 20 44 c 1,82,83
8 48 m 1,90,91
 8 49 8 49 8 52 c 1,92,93
 9 52 9 52 12 52 c 1,94,95
 12 51 12 51 12 48 c 1,96,97
 11 48 11 48 8 48 c 1,90,91
16 48 m 1,98,99
 16 49 16 49 16 52 c 1,100,101
 17 52 17 52 20 52 c 1,102,103
 20 51 20 51 20 48 c 1,104,105
 19 48 19 48 16 48 c 1,98,99
12 52 m 1,106,107
 12 53 12 53 12 56 c 1,108,109
 13 56 13 56 16 56 c 1,110,111
 16 55 16 55 16 52 c 1,112,113
 15 52 15 52 12 52 c 1,106,107
EndSplineSet
EndChar

StartChar: Ccaron
Encoding: 268 268 184
Width: 36
GlyphClass: 2
Flags: W
LayerCount: 2
Fore
SplineSet
8 0 m 1,0,1
 8 1 8 1 8 4 c 1,2,3
 11 4 11 4 20 4 c 1,4,5
 20 3 20 3 20 0 c 1,6,7
 17 0 17 0 8 0 c 1,0,1
4 4 m 1,8,9
 4 5 4 5 4 8 c 1,10,11
 5 8 5 8 8 8 c 1,12,13
 8 7 8 7 8 4 c 1,14,15
 7 4 7 4 4 4 c 1,8,9
20 4 m 1,16,17
 20 5 20 5 20 8 c 1,18,19
 21 8 21 8 24 8 c 1,20,21
 24 7 24 7 24 4 c 1,22,23
 23 4 23 4 20 4 c 1,16,17
24 8 m 1,24,25
 24 9 24 9 24 12 c 1,26,27
 25 12 25 12 28 12 c 1,28,29
 28 11 28 11 28 8 c 1,30,31
 27 8 27 8 24 8 c 1,24,25
0 8 m 1,32,33
 0 17 0 17 0 44 c 1,34,35
 1 44 1 44 4 44 c 1,36,37
 4 35 4 35 4 8 c 1,38,39
 3 8 3 8 0 8 c 1,32,33
24 40 m 1,40,41
 24 41 24 41 24 44 c 1,42,43
 25 44 25 44 28 44 c 1,44,45
 28 43 28 43 28 40 c 1,46,47
 27 40 27 40 24 40 c 1,40,41
4 44 m 1,48,49
 4 45 4 45 4 48 c 1,50,51
 5 48 5 48 8 48 c 1,52,53
 8 47 8 47 8 44 c 1,54,55
 7 44 7 44 4 44 c 1,48,49
20 44 m 1,56,57
 20 45 20 45 20 48 c 1,58,59
 21 48 21 48 24 48 c 1,60,61
 24 47 24 47 24 44 c 1,62,63
 23 44 23 44 20 44 c 1,56,57
8 48 m 1,64,65
 8 49 8 49 8 52 c 1,66,67
 11 52 11 52 20 52 c 1,68,69
 20 51 20 51 20 48 c 1,70,71
 17 48 17 48 8 48 c 1,64,65
12 56 m 1,72,73
 12 57 12 57 12 60 c 1,74,75
 13 60 13 60 16 60 c 1,76,77
 16 59 16 59 16 56 c 1,78,79
 15 56 15 56 12 56 c 1,72,73
8 60 m 1,80,81
 8 61 8 61 8 64 c 1,82,83
 9 64 9 64 12 64 c 1,84,85
 12 63 12 63 12 60 c 1,86,87
 11 60 11 60 8 60 c 1,80,81
16 60 m 1,88,89
 16 61 16 61 16 64 c 1,90,91
 17 64 17 64 20 64 c 1,92,93
 20 63 20 63 20 60 c 1,94,95
 19 60 19 60 16 60 c 1,88,89
4 64 m 1,96,97
 4 65 4 65 4 68 c 1,98,99
 5 68 5 68 8 68 c 1,100,101
 8 67 8 67 8 64 c 1,102,103
 7 64 7 64 4 64 c 1,96,97
20 64 m 1,104,105
 20 65 20 65 20 68 c 1,106,107
 21 68 21 68 24 68 c 1,108,109
 24 67 24 67 24 64 c 1,110,111
 23 64 23 64 20 64 c 1,104,105
EndSplineSet
EndChar

StartChar: ccaron
Encoding: 269 269 185
Width: 36
GlyphClass: 2
Flags: W
LayerCount: 2
Fore
SplineSet
8 0 m 1,0,1
 8 1 8 1 8 4 c 1,2,3
 11 4 11 4 20 4 c 1,4,5
 20 3 20 3 20 0 c 1,6,7
 17 0 17 0 8 0 c 1,0,1
4 4 m 1,8,9
 4 5 4 5 4 8 c 1,10,11
 5 8 5 8 8 8 c 1,12,13
 8 7 8 7 8 4 c 1,14,15
 7 4 7 4 4 4 c 1,8,9
20 4 m 1,16,17
 20 5 20 5 20 8 c 1,18,19
 21 8 21 8 24 8 c 1,20,21
 24 7 24 7 24 4 c 1,22,23
 23 4 23 4 20 4 c 1,16,17
24 8 m 1,24,25
 24 9 24 9 24 12 c 1,26,27
 25 12 25 12 28 12 c 1,28,29
 28 11 28 11 28 8 c 1,30,31
 27 8 27 8 24 8 c 1,24,25
0 8 m 1,32,33
 0 14 0 14 0 32 c 1,34,35
 1 32 1 32 4 32 c 1,36,37
 4 26 4 26 4 8 c 1,38,39
 3 8 3 8 0 8 c 1,32,33
24 28 m 1,40,41
 24 29 24 29 24 32 c 1,42,43
 25 32 25 32 28 32 c 1,44,45
 28 31 28 31 28 28 c 1,46,47
 27 28 27 28 24 28 c 1,40,41
4 32 m 1,48,49
 4 33 4 33 4 36 c 1,50,51
 5 36 5 36 8 36 c 1,52,53
 8 35 8 35 8 32 c 1,54,55
 7 32 7 32 4 32 c 1,48,49
20 32 m 1,56,57
 20 33 20 33 20 36 c 1,58,59
 21 36 21 36 24 36 c 1,60,61
 24 35 24 35 24 32 c 1,62,63
 23 32 23 32 20 32 c 1,56,57
8 36 m 1,64,65
 8 37 8 37 8 40 c 1,66,67
 11 40 11 40 20 40 c 1,68,69
 20 39 20 39 20 36 c 1,70,71
 17 36 17 36 8 36 c 1,64,65
12 44 m 1,72,73
 12 45 12 45 12 48 c 1,74,75
 13 48 13 48 16 48 c 1,76,77
 16 47 16 47 16 44 c 1,78,79
 15 44 15 44 12 44 c 1,72,73
8 48 m 1,80,81
 8 49 8 49 8 52 c 1,82,83
 9 52 9 52 12 52 c 1,84,85
 12 51 12 51 12 48 c 1,86,87
 11 48 11 48 8 48 c 1,80,81
16 48 m 1,88,89
 16 49 16 49 16 52 c 1,90,91
 17 52 17 52 20 52 c 1,92,93
 20 51 20 51 20 48 c 1,94,95
 19 48 19 48 16 48 c 1,88,89
4 52 m 1,96,97
 4 53 4 53 4 56 c 1,98,99
 5 56 5 56 8 56 c 1,100,101
 8 55 8 55 8 52 c 1,102,103
 7 52 7 52 4 52 c 1,96,97
20 52 m 1,104,105
 20 53 20 53 20 56 c 1,106,107
 21 56 21 56 24 56 c 1,108,109
 24 55 24 55 24 52 c 1,110,111
 23 52 23 52 20 52 c 1,104,105
EndSplineSet
EndChar

StartChar: uni010e
Encoding: 270 270 186
Width: 36
GlyphClass: 2
Flags: W
LayerCount: 2
Fore
SplineSet
20 4 m 1,0,1
 20 5 20 5 20 8 c 1,2,3
 21 8 21 8 24 8 c 1,4,5
 24 7 24 7 24 4 c 1,6,7
 23 4 23 4 20 4 c 1,0,1
24 8 m 1,8,9
 24 17 24 17 24 44 c 1,10,11
 25 44 25 44 28 44 c 1,12,13
 28 35 28 35 28 8 c 1,14,15
 27 8 27 8 24 8 c 1,8,9
20 44 m 1,16,17
 20 45 20 45 20 48 c 1,18,19
 21 48 21 48 24 48 c 1,20,21
 24 47 24 47 24 44 c 1,22,23
 23 44 23 44 20 44 c 1,16,17
0 0 m 1,24,25
 0 13 0 13 0 52 c 1,26,27
 1 52 1 52 4 52 c 0,28,29
 8 52 8 52 20 52 c 1,30,31
 20 51 20 51 20 48 c 1,32,33
 16 48 16 48 4 48 c 1,34,35
 4 37 4 37 4 4 c 1,36,37
 8 4 8 4 20 4 c 1,38,39
 20 3 20 3 20 0 c 1,40,41
 15 0 15 0 0 0 c 1,24,25
12 56 m 1,42,43
 12 57 12 57 12 60 c 1,44,45
 13 60 13 60 16 60 c 1,46,47
 16 59 16 59 16 56 c 1,48,49
 15 56 15 56 12 56 c 1,42,43
8 60 m 1,50,51
 8 61 8 61 8 64 c 1,52,53
 9 64 9 64 12 64 c 1,54,55
 12 63 12 63 12 60 c 1,56,57
 11 60 11 60 8 60 c 1,50,51
16 60 m 1,58,59
 16 61 16 61 16 64 c 1,60,61
 17 64 17 64 20 64 c 1,62,63
 20 63 20 63 20 60 c 1,64,65
 19 60 19 60 16 60 c 1,58,59
4 64 m 1,66,67
 4 65 4 65 4 68 c 1,68,69
 5 68 5 68 8 68 c 1,70,71
 8 67 8 67 8 64 c 1,72,73
 7 64 7 64 4 64 c 1,66,67
20 64 m 1,74,75
 20 65 20 65 20 68 c 1,76,77
 21 68 21 68 24 68 c 1,78,79
 24 67 24 67 24 64 c 1,80,81
 23 64 23 64 20 64 c 1,74,75
EndSplineSet
EndChar

